<mxfile host="app.diagrams.net" modified="2024-02-02T21:17:09.431Z" agent="Mozilla/5.0 (Windows NT 10.0; Win64; x64) AppleWebKit/537.36 (KHTML, like Gecko) Chrome/121.0.0.0 Safari/537.36" etag="jeiYFlOwiXDeAuJjua7n" version="23.1.1" type="device">
  <diagram name="Page-1" id="xiQdW2yJRkncEB4eE3tO">
    <mxGraphModel dx="1315" dy="753" grid="1" gridSize="10" guides="1" tooltips="1" connect="1" arrows="1" fold="1" page="1" pageScale="1" pageWidth="850" pageHeight="1100" math="0" shadow="0">
      <root>
        <mxCell id="0" />
        <mxCell id="1" parent="0" />
        <mxCell id="MXc2tF7lGj1LIrIw39Sy-23" value="" style="rounded=0;whiteSpace=wrap;html=1;strokeColor=none;" vertex="1" parent="1">
          <mxGeometry x="240" y="200" width="440" height="680" as="geometry" />
        </mxCell>
        <mxCell id="MXc2tF7lGj1LIrIw39Sy-17" style="edgeStyle=orthogonalEdgeStyle;rounded=0;orthogonalLoop=1;jettySize=auto;html=1;exitX=0.5;exitY=1;exitDx=0;exitDy=0;entryX=0.5;entryY=0;entryDx=0;entryDy=0;" edge="1" parent="1" source="MXc2tF7lGj1LIrIw39Sy-2" target="MXc2tF7lGj1LIrIw39Sy-16">
          <mxGeometry relative="1" as="geometry" />
        </mxCell>
        <mxCell id="MXc2tF7lGj1LIrIw39Sy-2" value="Start" style="ellipse;whiteSpace=wrap;html=1;aspect=fixed;" vertex="1" parent="1">
          <mxGeometry x="440" y="230" width="40" height="40" as="geometry" />
        </mxCell>
        <mxCell id="MXc2tF7lGj1LIrIw39Sy-11" style="edgeStyle=orthogonalEdgeStyle;rounded=0;orthogonalLoop=1;jettySize=auto;html=1;exitX=0.5;exitY=1;exitDx=0;exitDy=0;entryX=0.5;entryY=0;entryDx=0;entryDy=0;" edge="1" parent="1" source="MXc2tF7lGj1LIrIw39Sy-5" target="MXc2tF7lGj1LIrIw39Sy-9">
          <mxGeometry relative="1" as="geometry" />
        </mxCell>
        <mxCell id="MXc2tF7lGj1LIrIw39Sy-5" value="1st Layer&lt;br&gt;&lt;br&gt;&lt;br&gt;" style="rounded=0;whiteSpace=wrap;html=1;" vertex="1" parent="1">
          <mxGeometry x="360" y="400" width="200" height="80" as="geometry" />
        </mxCell>
        <mxCell id="MXc2tF7lGj1LIrIw39Sy-7" value="" style="shape=image;verticalLabelPosition=bottom;labelBackgroundColor=default;verticalAlign=top;aspect=fixed;imageAspect=0;image=data:image/png,iVBORw0KGgoAAAANSUhEUgAAAzgAAABgCAYAAADRudeFAAAAAXNSR0IArs4c6QAAAARnQU1BAACxjwv8YQUAAAAJcEhZcwAADsMAAA7DAcdvqGQAAEHVSURBVHhe7Z0HuNTEFscHefQuKF26IE0BRR/SpSNdunSUKr0rAtKRpnTkCSi9KkW6CFIEEUEEEZAHig8QQToiaF7+s5O92Wx272ZTNrv3/L5vIJNJMrnZlDlzWiJJhhEE4QhffPEF69q1Kxs6dChr3ry5WOs+XnnlFZYkSRI2Z84cljZtWrGWIAiCIAjC/Twi/icIwmbGjx/PqlSpwm7fvs2effZZsdadvPDCC2zZsmWsZMmS7Pjx42ItQRAEQRCE+yENDkE4wODBg9m4ceNY/vz52Y4dO9gTTzwhWtzLpEmTWL9+/VimTJnYtm3b2DPPPCNaCIIgCIIg3AsJOARhM71792ZTp07lgsI333wTFcKNAoQyCGcZMmTgQk6pUqVEC0EQBEEQhDshAYcgbKR79+5sxowZLHHixGzLli3spZdeEi3Wc+3aNfavf/3Lcp+ZevXqsXXr1rF06dLxv+H5558XLQRBEARBEO6DfHAIwiZmzZrFhRswevRoW4Wb9evXc80QTOCuX78u1lrDwoULWZ48ediNGze4sHPp0iXRQhAEQRAE4T5IwCEIG4ApGkzTQMOGDdnAgQP5stWcOnWKtW7dmjVo0IDduXOHXblyhQsiVpI+fXq2cuVKlixZMnb58mXWokUL9s8//4hWgiAIgiAId0ECDkFYzB9//MHDLN+/f59rPhYsWCBarOH8+fPsk08+Ya+++iorXLgw+/jjj9nff/8tWhmzw+oUvjeTJ0/myzt37mTvvPMOXyYIgiAIgnAb5INDEBbTtm1bbtYF5s+fz+vh8vnnn3PzswcPHrCTJ0+yb7/9lvvaKMC3Ry3cgP/+978sd+7comYtCG8N7dQjjzzCvvzyS1amTBnRQhAEQRAE4Q5IwCEIC8Hg/7nnnuNalHz58nGhBI7/4YLcOYMGDRI1D2nSpGGVK1dmdevWZffu3eOBDNTYKeCsXbuWm9wB5MrZv38/XyYIgiAIgnALJOAQhIVUrFiR7dq1iy9/+OGHrF27dnw5XA4ePMh2797NMmbMyHLmzMkDCcDsLUmSJLz9P//5D+vYsSNfVrBTwMHrolixYt7kn/DNgTkeQRAEQRCEWyABhyAs4tNPP2X169fny3nz5mU//vijKe1NKDgt4IDFixdz/x+AqG0nTpzwClwEQRAEQRCRhoIMEIRFTJw4USwx1qNHD9uFm0jRrFkzrkUCZ86cYcuWLePLBEEQBEEQboAEHIKwgO+//57t2bOHLydKlIg1btyYL8ciCGzQtGlTUWPsgw8+EEsEQRAEQRCRhwQcgrAAJPVUePHFF1m2bNlELTZp1KiRWGI8mhrM8QiCIAiCINwACTgEYRLku1m0aJGoMdakSROxFLsgXLTaz2fevHliiSBiD/i6IcDH0aNHxRpC4eeff+bBVbp06SLWEAThRhD46KmnnopI9NPhw4ez0qVL88iyTkECDkGYBBqMmzdvihpjVapUEUuxTe3atcUS44lHCSLW+PPPP1mHDh14II9kyZKxLFmyiBYCbN26lZUsWZJHjnzmmWfEWoIg3EjBggXZL7/8wipUqMCmTp0q1jpD0aJF2eHDh3kajeXLl4u19kICDkGYZPPmzWKJsXTp0rFChQqJWmyD2RgFBBs4d+6cqBFE9HPr1i1WqVIlPusJ7Q2S7mbOnFm0EtBq1axZk129epVNnjyZderUSbQQBOFGYD7/2Wef8ainvXv3Zt26dRMt9oN0EojAitx9CFQ0YcIE0WIfJOAQCQ6YmSxZsoSble3YsYObmJlBLeDAdAtBBhICmIlRs337drFEENENPsJ16tRhX331FRdqcG8jDxXhATOwr7/+Ovvnn3/Y22+/zQdLBEG4n/Lly3OLC2ikZ86cyfr37y9a7AfBiWDOjjHSwIED2fTp00WLPVgi4Dx48ICrvZDFfdu2bWzFihVs9uzZbOzYsWzVqlViK4KIHH/88Qd74403WI4cObgpRcuWLVmrVq24Odmjjz7K89ecOnVKbB06OK6S9BI8//zzYin2gbo7TZo0osb4DDdBRDv4nmG2EWZXmOlct24dK1CggGglNmzYwN+dEG6QD2vEiBGihSCIaKBq1apcMw2Q3gL+MU7Rtm1bNnLkSL6MdBrz58/ny3ZgONEnXmrvvfce27RpE7t48SIv165d4xnO9cAASO2fQBBO88UXX7DWrVtzIRxAy9K8eXOWNm1adujQId6OKGApU6bk97Y2cWYw9u3bx9W+CsgJow6hbDeRSPSpply5ct7w2MWKFWPfffcdXyaIaOTvv//m74aVK1fyOuzUe/bsyZcJxnbu3Mlq1arFfZNgiov3Z6pUqUQr4QR37tzhA8QrV67wWfjkyZN7i7oO4fyvv/7iBVYKKHrLmOCDFk49WaUHfE0xGEWagEB9pkiRgo8FtX2p6/gfBT6cmEgIFRx33Lhx7PTp07xPpV/0qT6HpEmTcg3s3bt3+bVCwTL6xrOM7xThASZq0OIAmIw5pc3Bb1m3bl0+WfLII49w0zWYrVmO3JEhDh8+DEkm5PLSSy+JPQnCeSZOnCjJD5D3fuzTp48kD2JEqwdZaJf69evH2+WXtyQP0kVL/MybN897bJTdu3eLFmfQ9o8iCzii1X7kl5K3X/lDw68lQUQrgwYN8t7PDRo0EGsJcPbsWUkeBPNrkzJlSunYsWOihXCSDz/80HuPWlX27dsnjh6YggUL6u4bbilcuLA4cmjIApbucYyU3r17i6MRQBb6pNKlS/NrkyhRImnLli2ixX6uXbsm5cmTh/ctC6iGxl2hYthELWvWrHwGB6Hm8uXLx01+gmVsR7QGgogE0MwMGDCAax0BZgwmTZrEZwwU4IPz9NNPczUtwAxu3759+XIo/PDDD2LJQ6znv9GijiqFWTNFS0YQ0QZmqBXHV/nD6zXhIDyWGzBLQ+AFMG3aNB4ViXAeaCDgR4Ex2JNPPhmWBg3aGviUQQuHnGawaogPfD+LFCnC+8yVKxe3eDACtCzZs2fnps0wEx88eLBoCQ30ib8bY05op4wAPzrs265dO7GGANB2QVuN4EiyPMDNx37//XfRai8ZMmTgfUN+gHatRYsWXDNsKR45xxyXL1+W5JPzkZSVsmvXLrEVQTiH/JBK8svU517cuXOnaPXw6aef+rQrBbMJoSIL+z773rlzR7Q4Q6Q1OOPHj/fpe9u2baKFIKKHmzdvSrlz5/bex/Td8mXMmDHeayMPdMVawg1Aa37kyBFJFjy8v5FegcZkzpw50vHjxy3RtOOZGTt2rG5f6tK+fXtp06ZN0r1798Se5kHf77//vpQ/f37dPlFkIUqaO3cu35YIztSpU73Xzennu1evXt6+e/ToIdZagyUCDpg9e7b3JJWSPHlySZbIxBYE4RydOnXyuRdTp07N1bEKDx8+lDJnzuyzjVKgqtWasQWiQIEC3v3SpUsn1jpHpAWcjz76yKfvGTNmiBaCiB7atm3rvYdfeeUVsZYAMEtPkiQJvzZJkyaVTp8+LVoIN4HBvHIPa0uRIkWk27dviy2tJZhg1b9/f7GVPVy/ft1nYgIFZpQbNmwQWxChgPFQsWLFvNdw1qxZosV+bty44R2LYewFYdgqLAsTrReBChGloJYkCCe5dOkSW7Bggah5gKkk1LEKX3/9Nbt8+bKo+QI1vNqMLRiKyQbImDGjWEo4ZMqUSSx5QMARgogm1q5d631f4Hv17rvv8mXCk+gUkdIQWQ4gEmX+/Pn5MuEuguVfQ9Qsu4JBBAufDrMjO4FpVffu3UXN40IBU1N1EmoifhA4YsaMGaLGuJn+yZMnRc1eEOxJMQ2WZRJuRogAGlZgmYCDfAFaYPNIEE6DBxU2nWqqVasmljzAXyQQXbp0EUvxo+4nmC9arKL9m7XXnSDcDCY5kM9FAflcnIpAGA3AT+LEiRN8+bHHHmNDhw7ly4T7QDS0QCCKmF1oJ7nUOBFhT/HbgF/Oxo0buU8tYRxERG3cuDFfxv2CiQ3Ff9lu4N+n5NXDBHXnzp35slksEXAQhg8z4loowAARCZYuXSqW4vj3v/8tljyULVuWZyfX0qRJE58BT3yoB/RGHR9jAe3fjPCfBBEtIDyu4lSLgdqQIUP4MuEJoPL++++LmudaYcaccCfBLAjsdByH4BsI5ImzEwzAP/roI76MfEwlSpTgy0R4IPmmAvJaIu2FEyDxJwJCKaxZs4bt379f1MLHEgFn7969XhW2AgY+2kElQdgNZht/+uknUfMALUPx4sVFzQPuT0RZw4wFBB2YU86ZM4ctWbIkbE2MU7MdbgJR59TgRUUQ0cD58+d9ksy99tpr8eYCSUi888473ncaIh61b9+eLxPuJJiAc/XqVbFkPcE0OHb2C5AHDu4RiAKnHpwT4VGqVClWqVIlUWNs2LBh7OHDh6JmLw0bNuSRmRWsmGyyRMDBQFEL1E1GwwgShFk2b94sluJAOE09XzCEgl2xYgUf6MDEEpob2KIaQX1crZCfENCapCVELRYRnYwePdr7zOK5N2KaGutgogjvRgUIN/Q9dzd49wYS0GNRwEEC+bfeeosvI0F3qH6zRHD69esnlhg7c+aMY+Hy8fv16dNH1DxyxdatW0UtPCy5I5DdWAuZpxGRAA6GWkqWLCmWrEct4CRE8yytgENZzYlo4Oeff/YJRFK/fv2gztIJjVGjRnm1Nxh4IOM54X4CaXHsFDSCmajZ2e/IkSPZb7/9xpo3b87KlCkj1hJmqVmzJitcuLCoMTZ27Fg/Sw27QIABtS8ZfmMzmBZwbt++zQ4dOiRqcZCAQ0QC2I1qsdMu9/HHHxdLCdPBXvs30yCRiAbgW6LWuKojMSV0kKwXCfgUkNgb2m7C/QQKNGCnoLFlyxax5I9dvj/QLOAZhlZx/PjxYi1hBTAzR4ABhXPnzrFVq1aJmr2kSJGCJ55V2LNnDztw4ICoGce0gIMT0NrowYfhxRdfFDWCcAa8TPUy6SNrsl0gq7MCZpOCRWeLRbQfTopARbgdBMWB7b5C3rx5WcWKFUWNQBRK9TedfG+ih0AaHFgXqFMaWMXhw4f9UjKosUuwghkV/iY4ptOkmvUg2JKaiRMniiX7adq0qVjyMGnSJLFkHNMCjp7/DUyCUqdOLWoE4Qx42ephZ9jIggULiiVPDPfTp0+LWsLg+++/F0secuXKJZYIwp0sXLiQXb9+XdQYq1evnlgiMEHzwQcfiJpnRrV69eqiRrgdpwMN9OrVK2hwHTv63LFjB/v000+5YKOOvEVYB5z9EXBAAVZaeqlg7ACTTWrLGERU+/XXX0XNGKYFHPK/IdyCnoCDCGnp06cXNetRa3DAjz/+KJYSBsePHxdLHifXbNmyiRpBuBNESlRDAk4cCNKiTtZbpUoVCi4QRTgp4MCMET6vwXxcre4TviDIVQVgmgYBnLAHrSYFgoYTIOCL2kwNv/m6detEzRimBByoPPUGlSTgEJFAz//G7qRfWgHHqey/bkEt4BQtWpQi2RCuBhmy1fkVMCBETizCA2bG1ZDwF104JeAguWb//v25v8bcuXNZ0qRJRYsvVgs40C4eO3aMu0AguABhHwjbrEb7brATq/o2NRqB9K71v8EAhz4YRCTQE7btFnCKFCnikzcnIWlwLl686DPbW758ebFEEO5kw4YNPiY1tWvXNhwaPlbBdUEmeAV8y+vUqSNqRDQQKMgAsNLhH34RSK/Qtm1bbsoUSLCyUsCBWenQoUO5UDV16lSxlrALmKmpLTKQb8ipCVzk0FSPq2AphrDgRjEl4Oj532BASdmOCafBy+/s2bOiFofdAg7yDpQuXVrUEpaAo/W/Ic0t4Xa0pg6VK1cWS8S+fft8BsGYvFHbwhPuxwkNDia2xo0bx799CCEMnBBwkHgW92ebNm14Yk/CfrTKCqe0OEg3oY5+i4ASejkO48OUgEP+N4Rb+Pbbb8WSL3ZGUFOAnbqC0wIOZlW06K2zA7V5GmbVSINDuBmY1Wzbtk3UPKgnJxI6WuEPybqJ6MIJAWfw4ME8Pcibb77JMmfOzNcF0hzdvXuXP3dmwTdt+vTpPkIVYT/lypUTSx6cNFOzou9EEkI/hQHURbiptQmA1q5dy5Om6YF9EFb6f//7H4/Wkjx5cu4AXqlSpaDZcAkiPqAyV2fgBYjkh3sOg287wT2tfhgRcUQdgcQMMBtBHHqARxXPG2axsA79wiZZayaK5xKOmJiBRVQzXAeY4eA6IDFp9uzZxZbm6NixozfcLhxN9XygCCIQmAw4ePAg9+WEORTuV9jW2+XHBfOrl19+WdQYS5s2Lfvjjz9c4TeG8PaYMLxx4wYfNNaoUYOfn1HwDP70009+YV5DoVChQj4TNLNnz2adOnUSNedB2H1cEwzM8R7Mnz8/F7qCDeK1YCAOoRbHwnsSYexxjFjVTOF5ev7550XNF+R6mjZtmqiFx9dff82PD/MlTHApvjfwmcDYT48LFy6Y/ubAVBLmpRBuBg0aJNYmHJCzC+MKCHoIcw+g5cAzi/vZrnfY0aNHfSaJ0Q/G74pgayeffPIJa9CggagxLivAh1JtuhYvEHDCYf369RCMfIo8gJLkwZfYwsO1a9ek4cOHS/JDIcmDLL99UOQTlqpXry4tWLBAkiV+sSdBxCEPgqTJkydLPXv21C3FihXzu6/kD6HutkoZMWKEJA8GRA/hIwsdUo4cObz99u/fX7SYR/64+/xNZov8shJHNof8wpXkl5z3uFOnThUtBBGYAwcOSN26dZPy5s3rc18qJUuWLNI777zD7y+r6dGjh09flSpVEi2RA9ejdOnSPueFkjx5cmnSpEliq9CQhSQpTZo0fF+j1+/8+fN+53D48GHR6hyyICP95z//kWRBV5IHU37nhFKxYkVp//79Yg99Ll26JA0ZMkTKkCGD7jEKFy4sLV++nPcXDthv8+bN0sCBA6WhQ4dK8kBQtESWM2fO6P69KM2aNRNbhU+ZMmX4seTBp1jjoWPHjn79KcXstdmyZQs/Dt4Zf/75p1gb++B5lgU6qVq1apIszPhdV6U89thjUuvWrfn9aDUY26ROndqnv8WLF4tWe7l8+bJPvyj79u0TraERtoDTt29fv84xyFTAjThx4kTvCwYXqXbt2tLIkSOlZcuWSatWrZKmTJki5cqVy+cY5cuXl27evCmOQhAecK+o7xOryttvvy16MAc+csoxc+fOLdaa5/r169KTTz4pFS9enA+E8HxUrVpVqlmzplSnTh2pQYMG0iuvvMI/Xk2bNpUaNWok1atXjz9rmDSoXLky/yiVKlVKKlKkiFS3bl1xZHPgA6f8vUmSJJGuXLkiWgjCn7Nnz0pNmjTx3jMojz/+OB+ELl26lA82+/XrJ+XMmZO3Pffcc3zQrfDHH39InTt3lp566impYcOGvG6UcuXK+fSPwWmkuHfvHp8ICTTpp5SWLVtKDx8+FHsFp1atWnyfN998U6wJHfXzjJIiRQpbhMxgHDt2zDuARnnhhRe4kIexAoQevOfU54hBHQZgWiD8PProo3wbvDfHjBnDj7FkyRJ+bV566SXvMSBIGZ1UvXHjBt9POYZSunTpErbAZBV4LrTnpRR8N8yA64fjVKlSRayJA8+Stj+lfP7552Ir4+Dex3cLx1m9erVYG9vgvYd3XdKkSb3XEMoDvL8wyYv3Ja7F9OnTuWCpHkNjP7xbrKREiRLe46M4+d7UTlDMnj1btIRG2AJOyZIlfTpG6d69O287d+6c96bMmjWrNG7cOD5Q0+P+/ftS48aNfY4DbQ80PwShgFmcQoUK8RlevaK+f5SCh0NvW6VgEGXVzBvuefWM41dffSVaYhMIUcrfWr9+fbGWIHzBAPStt97y+VinTZtW+uCDD3RnY2/fvu0VhPANwWASA1CtxgfCu1HSp0/vc4yFCxeKFmfBIBgTE+pzCVagbY6P8ePH823xXf7rr7/E2tCB1kzdp3qy0glgEQLNE/rG7w+BWA8MstX3UteuXUWLh61bt/LZbliFTJs2Taz15dChQ1x4Uo7Rpk0b0RIamCRS9tUW/A6RBPdWIKEZ90a44BnE5AOODUFUy4QJE3T7RFm5cqXYyjgYxOMYbtC22g0m9iEkq+9vTDQMGzYs4PMA8I7FBEW+fPn4PrDSgMWLVWDyVDkfFEykOAVkAXXf2uc9PsIScCCs6KmPcSN/8803fPCI9kGDBoWkUvztt9/8JLXXXntNtBJEcGBmpr53lPLtt9+KLZwBWhWl7969e4u1sQfMPzCAUP5WO1TjRPSDDzY0icp9ggJB5fjx42KLwLRv355vD+EZs/jqY6AULFhQbBkamIDQHsPMzLIZYBqrPZf4CgZ6gdi0aRMfeEJACOXa6qHVjjg5iFmxYgXXAuOdAk19fEAgUZ8rBtcA5lmwFEmZMqW0Y8cOvk4LNPbasQvqMIcJhVOnTvHZdPX+6pI9e3ZdrZKTZMqUSffcMNMfLso9G2iAOW/ePL/+lGJ01l0Bk9wwM8e97RYTQLvA3wdLDfV1wySDkecZ7iGKBhQTFlaBZ0Z9XjDHd4pWrVr59A0tlhHCEnDWrVvn06lS1q5dy18wKHjpGkGrxcEs3507d0QrQQQG5gfqewcFH0xoB53k4MGD3o8fPjKYjY5F3n33Xe91xkwoQWjBjKOixVdK0aJF/Xw0A3HhwgUpWbJkfL8nnnjC5zgoRrWGet8sDIidBjOtegPkdOnS8YGDVsukFOyDQYvWBAqmW8qML8xXwkU7uIKpixNAm4Lzx9/95ZdfirXB2bt3r8+5Ypb74sWL3tneUaNGiS19ge+Aej91gYVAKGCMo7e/uoR6j9sFhH+988K4LBzgCwKhEZPQgf62YNdl9OjRYitjKD5znTp1Emtik7lz53q1l0qB6ZkRUzO8yyBktmvXju+P8bNV9+GiRYt8zg0lHBPhcIBLi7pfvCeMEFYUtT59+rApU6aImgdEfJFfVDwfiSzc+ITODYUJEyawgQMHipqHjz/+mL366quiFnmQAVsvuWm0kThxYp5IKVbC+iL5l/xREzUPiPwRKHS0nTRr1owtX76cL+OeRrbnWEMeuLITJ07wZUQ5qlixIl92M4hAg7xdiKcfzTzyyCM8tDEiT8qDXrHWXSDKDiItIXqSgjw44r9B3rx5xZr4QdSnGTNmiJovSPTXs2dPUYsfeZDF3nrrLVHzhDVHJE9EFXQK9IeohogEBIoVK8YaNWrEatasyfN64LcF//3vf9n27dvZZ599xr+l9+/f5+sB8nohOSnOf/369ey7777j65s2bcqWLl0a1j2B85IHvzxSmcKYMWN4OGA7QfQ8RF+UB2f83PHuDBVEUvpbFcG1ePHi/FrkyZOHv5vkAaNoiQPfhKNHj4qaL7t27Qrpe4hcQYj0FwhZ2OKR+Zy8r7Tg/HCeeiBks9FzwxhMFg7Ze++9x2ShQ6z1BeOiQNcP40VEOTUCEkri+cB9efr06ZiNsouIcOPHjxc1D7jeGPuGCsbiiCCrfn7BJ598wurVqydq4YP3NiK1qQn1eTHLypUr/SJCIsHsE088IWrxwMUcg2idjtRl1qxZYitjzJ8/3+9YcCJ0C9BIac8v2gs0H7GA1gwGpW3btqLVWWAup8yowok61rSQSkQbFPgRRAOYGVbOOVYKIk66EWgttf6ZMAEKdYZcDWaO1fbo6nLkyBGxVWg0b97cZ39EAHQa+IQo/cOvJhQnfpiDQ0sDx3jMwKv/BqXAbMNMdCmYlWuPKQ+wRKt9tGjRgveFQApGQbQ47TmjBHJEh7O63vYo0LYbCTSAQBd6x0Hp0KGD2CpyIPiM3rmh/Prrr2Kr0IAvKbSHiDoX7H6FKZVefyhGfZyAYu5tRivpdhD8QnutEETIiOWJnvWKUqzyMcQ9oz32jBkzRKu97Nmzx6/vjRs3itb4MSzgwC5Sa8OqFNjLhQvsNLXHsyrikxXgZtGeX7SXmTNnir8uusmWLZvf3/bee++JVucZPHiw9zxguxwrQFhTnL1hshAJE59wWLNmjff3iJWi+B24Cfge6DlgIyx0uKgjXikFEbK0plrxgdDC6mM8++yzosUZcG0QXRF9I/RrOOBvhunf9u3bvZM6CLxiNiDPhg0bfK4Nyq5du0SrPcD/Cf3AZyVQAKJA4FrqjUHwHQh2X6hD+asLgiAZAWZ1Wp9hFPhMuCGapNZHSV2+++47sVX84FoqZn/xTVDAL1Pbl1JefvllsVVofPbZZ3w/mNqFEzAjGoCAoL1OefLk4WkhjFChQgW/4yjFiCAQDJjKaY8dTqTGcDhx4oRf3whQEyqGTdSQTVQvkScSZ/3www8BM9rGB9R02gRO8sfS0cypwYA6HGYRu3fv5kmXohmo98uUKcNVxzArjGZg7qGXtM0pFaoeMGFE3zBpxPU9fPgwN+uKdmBuN3HiRL68aNEi1rJlS77sdvCKQ4I7eVAV9SZqMC+F+ReeXVnIFGvdAZLwDRkyRNQ8wHQZSWlhohYOSMyJBJ1q8P0JlFQwEDB3+f7770XNk5hw9erVomY/P//8MzdPy5kzJzfJMvPenTdvHnvttdd4sj28Y2CWZYaFCxeytm3bipoHmMkhKaZdKL+rUVNDgMSfeiZLMJ+CGVUg8E2oXr261+QPv8Hbb7/NM/IbRRY0uWnQjh07uMlX48aNWdeuXXkywkjTt29fNnnyZFHzxYhJMd7xrVq14r8VzCGDgTFRoHsa5vCBTOa04NsJc0OMJXF/1KpVS7TEDjA7hZmpdui9bt06ntA0VLA/vgd6Q3i8by9evGiZqSS+NTBlVUACYCQCtpvLly+zLFmyiJoHQ8le5YtjCKjWsZu2II+BGbQmBChmNEJEwkBtMqUUqNQRXjaSyAMaby4GzIJh1jGagRkLotng7zEaqpGIfeQBMXf2Vj+HKIikGS54ZpRnSF3CSSqrTkqLAgdmp4HGPL4ElfEBEyw8h9AgWJWIUx00RCl2zpyfPHmSv6NhGhaOCa88SPc7X5Tdu3eLLQKDaGkw74TjdKSDAdgFnPr1rg9KqCGbYWoK7ZostPDIcaEQyGwQASxCBZYX2KdGjRpiTWwB53w9ixO93EKhgN9IeywUK6OoAW0/yLfnBHgPqftFQQ7OUPF4NRoAjrpaMCuidQQyytdffy2W4pAfDLFEEPocOXJELMUBR2bMHEcSzNRiZhROvwcOHGDDhg0TLdGHPAhh7dq141pMaA+0AUYIArPn6hk+gHsfs9rhAofwa9euiVocFSpUEEuhIX/n+Ky/mkhov7p06cJeeOEFUTMONE4tWrTg7zYEIShRooRoMYc80BdLHpIkScKLXUDLgt+kQ4cOYf0Oe/bsEUtxpEqVimsK4gPa/jZt2nDtc8aMGcXa2CLY36V9DgIBi5pff/2VvfHGG6xAgQJibXAC9Rtqn3jWhw8fzi1MYvUb07t3bx6ERYsskIglY7z77rs+WhoEKunVqxcPvGQlWsss7TvDLvAekgVnUfNgpG9DAg5uQCVqixpcUDMg6gjU9lpgRkUQwdCLlIZoOW4Aqn2ocTHQQ5Q3I5FR3AIis2BQhec+W7ZsPKqJGfMaIvbYsGGDrgkL3t8Q9MNFbzINphcwYTECIntqI1/aOYC3A7xHMIkIgWDbtm08+phVKFHdFDDAtBNFQDESNU3N3r17xVIciBxm93lHC2YFHJhTwhQZwiBM+EIlUL8Y3+E7Eh+YBMS23bp1Y4UKFRJrYwdERVywYIGoxVG2bNmQhHM9mjdvzqOcwSQRQiHG0XYIh5EScICZvg0JOLBhxcyLGkiMwcImhoKe9ga2hQiHShDB0BNwrJrZtILXX3+d28zjOenYsSP34YomMOME22D4D+DczQxYidgENtF6hDuAVYC/gBb4tuFZMsKNGzfEUhzRJOCMGDGCa38ee+wxLvSVKlVKtFiD9vrYfW0Q0nbkyJFhTURhoAy/Iy1GtXqxjFkBB+k6oI3FpJwRS4hA/eI3wyRDMBDaG0I8jhHN1g7BCOQ3YjYVStGiRfl3GooGs/54gdD68kAQdQozfRv6Uuh9cBCXX6tCMoreTB1+NMRAJ4hAwHQKMfK1uEWDo9C+fXs2f/58PosMJ0LkDHA7mMjAC/P999/nJgo453z58olWgvAAx309B2JMUMHxOlwwKNJ7TsLJuaTV3oBoEHBwDWDiB7MdOPxD82FUexUKTmu3Wrdu7ZOTyAi43/QE1mjIxeUU2hlvNfHNfkM7tmzZMj5JCBNCI5gRrDBAx30IU61wA5K4GQSjOHbsmKjFAWsIs+4dTqDVjuq9U+0C3xI1Rvo2JODoCSJVq1YVS+GDhERayDyNiA+YTempvt2kwVHARx2RnzD7DJ81tws5EG5gK4/nG+dKmhtCjzlz5oglX8qVK8ejfIULfOv0Zn3DGcjqvSPcbs6ESF9I3jlr1ixWuHBhLtzkz59ftFoLfOvUuPna6JmnwWxPm4gwIROuoKFMagG8+41qSoMJVsH6hYnr1q1beaRDROeKRQKZjSFKXDQIdFohQ/vOsBMzfYd8B0PyV4fZVDCrGj516hQPCagF/gsEEQy9AAOwG4aviBtB2HOY1EGLo85O7kagFkZo5S1btpgaqBKxC8xYAvmVmZ34ssr/BsAHTovW1NpN3Lx5k9WsWZOtWrWKPfvss9w0NHv27KLVerTXx83XRi/AACZDo82nyk7CFXA++ugj7s8BzSsmKIwSTr8IL42w1gBCgHYwGwvAygT+N3rAvzUa0E4S6b1T7cJM3yELOIH8b8xqWvTy3KRLl45VqVJF1AhCHzcHGAgETE2WL1/u+vt7woQJrHv37o6+yIjoAr6TeuZCoFKlSmIpPPQEnHD8b4DeoMmtucwuXLjAJw2VfCXI3RRs4GgF2uvj5jxvehoc8r/xJUWKFLzoEUjQuH37Nhs8eDBLnjw5j8wVDuEIONOnT+eT3PXq1WMvvfSSWBtbwIdVb9IA39Zo+Zu174Rw3sPhou3biBAc8lnqfXCQvNBsYis98zQkQaJITUR86Glw3C7gEESsgNlePeA7acZkCDN2VvnfAAzatDhpQx4qSAiMwDp4r8E8bfPmzab9W0NBe33ceG0AwhafP39e1OIgAcefQMJGIB8cBApBYkgEgEBAmXAwKuDgXOBzg7HepEmTxNrYQy8oBoA2OphZn5vQChlOjs+17yMjfYcs4OgFGDArfSJL6VdffSVqcTRq1EgsEYQ+uOn1nPbc6H9DELGIXvRLAPMWM34cVvrfAL1BhNu0FLCQgNYLg8w+ffqwpUuXWpaFPD6018etAo7eGASaCuTmInwJNHDGc6X1YTh37hwPMwwzyJAzxOtgVMBBCGqcD/x+YjmAjV4QFhBNgTG07wS7tcpqtO9qI32HJOAgTj7C+Gkxa2eN3Ala+zo4DNaoUUPUCEKfkydPsj///FPU4iANDkE4QyABx+yMupX+NwAaCiSCVOMmHzg4WeObBzMhRC3EbLaTpqGZMmUSSx7++usvV/rhIBKVFiROJWsPfwINAvG7asPsDhgwgH9Lx40b5/ecGMFIkAFMTs6dO5f7d4YbUS8agMYRkxZ6RJOAoxUyELLeKbTClZG+QxJw8MHRvvAwQwebaDMgqpQWvOgjkWU6VOBYe+vWragud+/eFX9N9KJnnoaX85NPPilqBOELPbvWgoSAeiB1gBms9L9R0A7i9bKJRwJoaho0aMD/NnwPkTneabTXBjP8v/32m6i5Bz0BJ5oGiU4SqjYFASyQvBmJJlu2bCnWhocRDQ60lLjPxowZ44gZZqT46aefxJI/CCASLWh/P6cEHD2BXPu+Cop8gHjp2rUrpBuf8sILL4jW8JA/MFLixIn9jrt48WKxhbu4cOGCVKpUKSlRokR+5xyNRR6ESPLDJ/666EN+Qfr9TfJLWrQSRBzyYI3fG7Hy7BYpUkQ6fvy4+Osiw4MHD3TPDUUWfMRWxpEHPVL69On9jjllyhSxRXjg3a0+njwwFi2RY9asWZIs2PC/d+/evWKt8yxZssTn2qB88803otUd/Pjjj37niCILw2ILQk2nTp10rxeKcq/hWStRogR/Lx48eJCvM4M8ENXtD6Vy5cpiK0n69NNP+bqSJUvyc4hl1q1b53ctUFKlSiX9888/Yiv3kyJFCp/zf+ONN0SLvVy6dMmnX5TJkyeL1vgJaUpMz/bVrBkCQhJCglcDe9pg4aGxvRJ1w2kQ7U1+6btSdR8OR48eZatXrxa16IMCDBChAmdtOHrGyrMrCzc8El8k0b67FZD53EzOJKv9bxS0s36IVhZJ4NTdpUsXfl7QWJmJRgrzohkzZoStddGbEY309dGyfft2sRQHTA9hohYOslDHtRexSjBtihJoAMmnEYm0VatWluQRQvTbQBGuFA0AzB+VsNDh5NqJNgK9J2Fp4qQZqhlwv8D6QY1TGpxffvlFLMVhRIMT792FQAB6eWrMfnDwcGlp2LAh/0AGYvHixVyFj+RnTlOtWjX2xBNPiFr0g1wxSDIVreiFiKYAA4QecN6OJSdW2K0jl1Ikgd+D3mAGkTXNoDeZZsb/RiFv3rxiyQMickWKgQMHsiFDhnBBENHizJr0jRo1iod0nzdvnlhjDO21AW4TcPTM02BWFU4gBkT/gzkWfE9ilfjMxWDu+uabb/KIh/C9sQIM2AP54SgCDnzMzpw5w6MEli1blq+LZQL5NEWTKb2eKbJTY2GzfSeCGkcs64KZwmbNmomaB/jfXLt2LWzbSUSVePHFF0UtDszSBIvMhljpiCkOzQOEoUiAC+7WKDOhgoEJbpJomUHQAsc95JPRcvDgQcpoTQQEgzbMIEYzmPFEGFc3PLsFChTggxU1SBK4YsUKUTMOUgRok+Lhva+XTsAImBTr2rWrqHnAoCuYY7QddOvWjc2cOZNfO3zvzA4UoL3JkSMH/1vwbQxH8MUQAN/yO3fuiDWMC2CjR48WtciCQESYtdXa4sM5feTIkaIWOhAwkecLWfNnz54t1sYWCxYsYO3atRM1X5DnBrPy48eP578xfmurKFSoEPvxxx9FLQ5Y5yBaG+57OKwjSFAsTRgHItBYBe8iaF2jAVgv1a9fX9Q8IKS9ExPK0PIhyp4ayB6Y9AoJCDjB6Ny5s9f2TSmlS5cWreGhd0z5Zg9qk3j79m0pZcqU3Hbx7t27Yi2REJEHO373jyx0S/fu3RNbEARhN3Xr1vV7Dtu2bStajSN/uKSkSZP6HdOs/w348ssv/Y579OhR0eoMvXv35v3mzZtX+vXXX8Vac8iDVO8xzfgz4JuuvjatW7cWLdbz119/cT8Q/CaygCbWBgb+IepzUwr8G4yCb0TmzJn5/t9//71YG3sE8v1Aady4sZQsWTIpT548IV1/I5QpU0a3T5RXX32V/z906FCxdeyDMW3q1Kn9rkX37t3FFtYD//ayZctKW7duFWvMMW3aNJ9zx1jL6vsmEH379vXpO0eOHKIlNOI1UbPD/wYzTVo6dOgQdFZy0aJFPIIQfHQCZeklEgZ65mkFCxbUTehHEIQ96Pk/mNFuDx8+XFfDZkWkrGLFiomlOJw0w4K2QRbUeK4RmFvBRNgsq1at4tnnQY8ePUz5M2hNAO26NvC9lQfW3IID+ZLQL2aDg6HV6CkgKapRFi5cyM3uq1evbsqcErPI8KNCBLzmzZvz38JNBDNRQ9Q0hEmHJsfqXEvB+sUYDtpGM7l2wgXvFbg4wDQOeRYnTpzoiDYfY1q98bLWp8UqoNHFPblnz56A+XeMojUTg3mdUzm6tH0bNlUWgo4ukASxibZs2LBBbGEcRP/RO2Z8UYGKFi3KtzPTNxEb1KtXz+/+wewQQRDOcfbsWb/nMNzomkuXLvU7FkqGDBksi7QEKwH1seUBnmixlzFjxvD+HnvsMemrr77iUeYQ2c8Mu3bt4rPwOG66dOmkW7duiZbweO+993yuTZYsWUSLdcgDXN1IhsEsQjADrnz71SVTpkxii9DBrHO+fPn4/lu2bBFrjXPixAnp0Ucf9TunAQMGiC0iz8mTJ/3OT10qVaoktrQWaHD1+lMK7gGnwbOB95L2XOSBunTq1CmxlX3gb9b2bTYKsR64v5WxETRpVlm0NGnSxOfcmzVrJlrsR6tZloVj0RIaQQUcvfCRCO1848YNsYVx9MyL8OEJxueff863e/7558UaIiGjHaigODVYIQgijgoVKvg8h8mTJ+cmSEaAqRBMj9XHUQrM4Kzi5Zdf9jm2Ex/q+fPne/tTBBKlPP7441KjRo2k2bNnc/O8UMBgbciQIT5hW60w4du5c6fPuaFYZUYHHj58KGXPnt2vDxRcl0DojRdQcuXKJbYInV69evF9cR+YAWHateejlE2bNomtIsuVK1d0zw8FYzi7zDO1JkXqgkF9JEIjwxxM73xQ7BL01MC9ImPGjD794jdAWG2ruH79uvddXKBAAen3338XLebJnz+/z7mPHTtWtNgLUhFow1NjIswIQQWc119/3efgKMgnYAYlBrq6dOzYUbT6gz9SyWGAlzCRsLl69arf/YNilb0pQRChc+DAAb9Z+R07dojW+EG+FcUnQq8YyXkQH2+//bbPsTGDayc//PAD9xtV+oPwV6tWLally5Y8B4j6XDDIb9iwIc8DB8sJLRACJ06c6HetcDwrBo0QsJCTR33s9evXi1bz6AlQSilYsKDYyh/l2w9hUL2PUQ3Otm3b+H0KIQuD/3DB/ao+D21xKj9IfECg1NOWoSBHjl0o2kptwbngXeE0uA56ebXUZdmyZWJr+5g5c6Zfv6tXrxat5jhz5oxUrFgxfkwI/qdPnxYt5sF7QXve27dvF6328u233/r1jb/VCEEFHEiC2g6QYNEMeic9cuRI0eqP8lGqXr26WEMkZDB40t4/mA25efOm2IIgCCfRBo2BWUEog+5Vq1Z5HXDbtGnjcwylHD58WGxtHgyw1MfGoMuu9wbMQ4oXL877gVPuiBEj+OSMGkz2wQRPfU5KwbcXyUjLly8fUADMmjWraVM3NXBMVh8f52wVa9eu9Tm2ugTSQH300Ue8HeZyMO3De169X6jmRUhoDcEGApzZSdI1a9b4nIO2FCpUSGwZefQG9lhnRsCLD2gjtX2i2Bm0Ihh6A3RtcUKTC0Hrueee8+kX70mj2m41MEkbPnw4nzjB8aDtDlUTHCqYOFafM8xhzZyzEebOnevT91NPPSVaQieggAP1tPrgSsFL2SzKi18piASjBz5I+DjAdvmXX34Ra4mEDGYx1fcOilmtIkEQ4YMPHiag1M/k1KlTRas/8N3BgAfbwXQDgg7MHtT7o1jpfwMgdEEoUPcBXxY76NKlCz8+vl27d+8Wa/2BlkfPnyO+AsFwz5494ijWADNfdR9WmgdCUFUfWynNmzfX/Y0hiCCiXpo0afikKBg8eLDPvqNGjeLrg4HxijLQf//998Xa8Dl06JDPOegVt4xVFH8jdbFSI6rHypUr/fqE+amV5o5GgGARaBJBKfG5SFgFNLPQsKj7hklfOEDwUBQQSZIk4eMiOxg9erTP+TZt2lS02M9rr73m0/fAgQNFS+gEFHAWLlzoc3AUzIBYISHOmTPH57h6KlOoDdOmTctnbYyYPBCxjRJqUl0QfpUgiMgBO3Pts4mZ0X379kl37tzhs8YIXdu+fXv+QUZ77dq1pYsXL/L9a9So4bMvipUDbAV8a9R9DBs2TLRYB0xPcGwM7DAgjg+ES9b65wQrGLDv379f7G0d0Iho+8EA0SpeeeUV77ExyblixQrR4gsCAGCmGPeJ2vT4/v37PqZ9uGaBNHyY3YZABC0dxi2YDbYKmNQp56BXoOVxA1oHbZy33bPvir+0uoQiiNpJz549/c5JW5wSwBD8QS144v4cN25cSGGX4TcFiyZ10I2aNWtK3333ndjCeurUqePtCwUmtE6hmN0pBaHljRJQwJk0aZLPwVGscvLHTJoyw4WCFxkCGsDOGC8HOF5iPV6wZqKdELGHnoMnHFEJgog8mJjSi3qlLiVKlODO9woYRGOmXrudHbPNGzdu9OkDZiNWcv78ee+MsRFrh0ARxrQF3+D4Io6aASZW6v6CaZ+McunSJZ6vB8eFb1LXrl25GRr8WjBIw3u8XLlyvB0Tm2jTggBH6vxLcELGBBesPY4dO8b9hlq1asUnR9GeO3duafPmzWJva8BAUzm+uiiCuxM+HaGAwa/6/HDv2w2ujbpPXP9I56fDBItefh5oV/E8YVnREjoBzGLhh6c+F2h2oMWGgIgofbiOiBgM3x0Ex1A7+kNgr1Kliu0+6fjd1MFfYE1lZWCEYCDSpNIvCnzwwtHmBxRwoDpXHlgUqPatnDWCkANpVFEfqwte9NWqVePSLkEo4IHDQ6a9V7S27QRBRBYMjOFwjBCj0NRAm4MEf/h4awmUyNFK/xsFzJSqE+/h/WGlH4uSzDNY4JxAYHCTM2dO77mpC5IywsTKSpM9PWAGou4XWhArwTscfgPq4AvaAnPHYEIcxg4wgdQKY+oCvyWElMXg1g5wz7zzzjtc2ILZDvyIlFDbRiM92YVaowphxwm0rg0wWXMD0FxhEgFaRPxmMMeEwK3c7/Dxchpod/EbqcfZgQq2gSn+hAkTpAsXLogj2AsELPU5OBFxTmH69Ok+fbdr1060GCMR/pEPoIss5LAPPviApU2blnXv3p1lypRJtFiH/MJjK1asYMeOHWMPHjxgWbJkYfLHkCcDIwg18guBPffcc6LmoWjRovzeIQgiOkHSvf79+4uahwwZMrDff//dVPLKQMiDHLZ69WpR8ySfbNWqlaiZY+fOnWzTpk08sSe+m0a5desW27hxI5MHXJh8ZPJAndWqVYs988wzYgt72b9/PytTpoyoMfb000+zI0eOiJp1yANO/j5HQkJ5UMxkoYXlzZuXValSRTcpayCQ9BnX6+rVq/wYjz76KKtatSpPQmvHvROMuXPnsk6dOvF7q2HDhmJt5JAFMDZs2DCWJk0afq2RoNFuZAGcPf744zwRap06dXSTuruJ3r17M1lY5tdHFiDEWmeRhXB+H+Mczp8/z58NWaBhqVKl4r8ZnsHChQuzpEmTij2coXPnzmzOnDmixvh16tmzp6jZCxLxbt26VdQY++STT1i9evVEzQAQcAgiGpCFbR+pHqVHjx6ilSCIaAQaHu1zbYf/jQKCGqj7ctJx1u1AQwRtkfr6UICf0IA/F64XNHFuAP7S0CzZoQkNBkynEE0NPlNuR0mFYmVo5VgAWlJ13iqYglqZWycYMOFDgBGl72zZsoXtO+bsFAdBmEB+UYulONwwU0YQRHhg1h2z+FoqVqwolqynfv36PhYCmGW+fv26qCVsoPXo1auXqHmAhouInwMHDvD/CxQowP+PNNCC4rcsUaKEWOMMeHahyXJa4xAOx48fZ8mSJSOLIQ3QIEOzqtCyZUuWMWNGUbOX9evXcy2WQteuXblGKxxIwCGiBphPqIH5Rrly5USNIIhoA+ZPN27cELU47BRwEidO7DOIh5k0DeLjaN++PR8cK8BMHYIoEZyDBw9ys6Ls2bOLNYSbuX//PjcLK1iwIH8nEHHMmDFDLHlwyjQNqPtOnjw5F5bDhQQcIiq4ffu2n69NgwYNHLezJgjCOnbs2CGW4sDgGnbndoJBPPw1FOA/QXhInTo169Kli6gxdu7cOR97eMKf06dPc78T+A8lSpRIrCXczDfffMOFHLvfNdHGb7/9xlauXClqjPsAwtfZCeCLtG/fPlHzvKfN+P7T6JCIODdv3uQqUTjYBQKzY3BgVANnYYIgopdt27aJpTiqVatm+8QFBvEDBgwQNY+pyt69e0WN6Nu3L0uXLp2okQAYH/g+gbp16/L/CfejmMY2atSI/094wLOuNhEbMWKEWLKf6dOniyXGTQeHDBkiauFBAg4RMSCw4EOaLVs29u9//5vlzp2bNW3alM+qaNGap+XMmdNWMxaCIPTBZAQ+RIgWpf4QGgWz3p9//rmoxeHUgKNHjx4sa9asoub7cU3oQLvVr18/UfPYxQebgEroKINl+HcR7keSJPbhhx+y9OnTs5o1a4q1xMOHD9ns2bNFjfFIeM8++6yo2Qs0oEuXLhU1xl5//XXz5p6eWAME4TzIjYFbUFtmzJghtogDeZHU29iRBJAgiMBcvnzZL2Eeknrevn1bbGGMFi1a+BwLRf6YWpo9Pz6QSE/pGzlxnEz453Zu3brFE+wp1wcJNAl/kBMHCRELFiwo1hBuZ926dfye7tChg1hDgLlz53qf90ceeYQn4XWKIUOGePtGnizkVDILCThEREDmaeVm1pY2bdqIrTxcvHjRJ8FnxowZ+ceXIAhngNBRuHBhn+dUKeEkg0SmbnxA1cdBMjusdxKEHy1ZsqT3HKpWrSpaCLBgwQLvtcHvdeTIEdFCKAwYMIBfHyQuJ6KD8uXL89/siy++EGsIhGdGglzlee/fv79osZ9z585JyZMn9/atN8kdDmSiRkSEjz/+WCz5g4RvahYvXsxVpwoDBw7kNvQEQTgDzNFOnDghar5cuHBBLIUGQjI3btzYLzKXLCix4sWLi5ozIPzokiVLWMqUKXkdPkF6fkEJlTZt2rAmTZrwZfxeePcScSAZLaI+wRG6T58+Yi3hZj777DO2e/dubk5YoUIFsZYYM2YMu3z5Ml/Ge3jUqFF82QkGDRrE/vzzT74Mk0GEhrYCEnCIiIBIHXogdr7yQVVYuHChWGI8pj+yDxME4RxbtmwRS/489dRTYil+MEhu3rw5O3XqlFjjoW3btmz48OGi5iwIEzt58mRRYzz4gCRhIpEAsMmHzyPAfbB9+3a+TDA2adIknoke9646KAPhTiCQdujQgaVNm5Z87lQgUuKUKVP4Mpz7MansVB4j+FcvW7aMLyPXDnyjrIIEHCIiqEO0KiAWPR6yQoUKiTWem18JD43Z1vnz57N//etfvE4QhDM8ePBALPmSI0cO7qwfCgj1jgACmzdvFms8QLiZN29eRMPrIteC4iCO3DwTJ07ky4QnbDc07kpkO4SQvnXrFl9OyCDYBgRjCPhmcnUQztG5c2d26dIlNnr0aMpXpAJ5wZTgTrg2ToWFxndF/f1ABLcsWbKImgV4LNUIwlm+/vpr7tSLWzBPnjxSy5YtpePHj4tWD1euXJFy587Nt8G28iBItBAE4SRTpkzx2kcrJVu2bNK+ffvEFsHZs2ePVKxYMZ/9YXMNp1a38Pvvv0tZs2bl5wZ/IPgJEnEMGjTI+9vhfZ2QkQfJkjxA5t+lTZs2ibWEm1Gc2BEo5e+//xZriWnTpnmf60qVKkn//POPaLGfvn37evtu27atWGsdJOAQEePVV1/lNzY+FBs2bJDu378vWiTp/PnzUtmyZb03/6xZs0QLQRBO8+DBA6lEiRLe5zFnzpzS+vXrfZ5ZLRAY1qxZI9WsWdO7n1IaNmwonTx5UmzpHrZt2+YNfoCJlxs3bogWAgEZSpcu7f0N58+fL1oSFhgcV6hQgV+DCRMmiLWEm0HUVfxezzzzjHT16lWxljh06JCULFkyfm0QYODnn38WLfaDSHbKJHehQoV4kAOrSYR/5A4IwnGQQwPOZVOnTuU278mTJ+cx12GChqR7UF/CJhN2znB2JQgiciCYABxPFyxY4DVngFkZzE2RTwamBXh20QYfOwQlUH9eYPeORIhvvPEGkwfKYq37wN+HDNo4d+TlUuzDCcauXLnCHbN/+OEHlipVKp4NHj5MCQl8l2De1LJlS6/fAuFuGjRowOTBO9u6dSsfUxCeBOslS5ZkP/30EzdD/eKLLxwL8oLfAv7UyH2D/IdffvklN3e2GhJwiIizb98+PojYuHEjO3v2LF8Hu2bYxMPhF8m4CIJwBxcvXmQrV65kJ0+e5MECkLATwo86Khr8NfDhwnOMUrZsWVajRg3uwBoNzJw5k3Xr1o0vjxs3jqKHqfjf//7HypcvzwdG8JfE4ARRxBISEOKj5V4mPEIpfHwVP7KEDt7ViGS5Zs0aHpF2x44djk063bt3j1WuXJn7sCHJO94f2si5VkECDuEq8OChUCABgogu8NwinDsGEbHw/L777rt8ggXMmjWLOygTHs6fP8/KlSvHfvnlFz4LvHPnTq6hIwjC/SAoBhz6U6RIwcNmV6xYUbTYCwRNTFyjT0yK7Nq1ixUuXFi0Wg+Js4SriJXBEUEkNPDsIrRorDy//fv3Z2PHjuVmeMjLsGjRItFC5MqVi8/65smThx0+fJjVrl2b3b17V7QSBOFW+vXrx4UbhDVfu3atY8LN33//zVq1asWFG5h4wlzQTuEGkIBDEARBEDrAR3DDhg3cRr1du3Z8ME94KFCgAPfBefnll9mePXt4+GiCINwLTG/h0wxfm0OHDrHq1auLFvtBIufly5ezSpUq8fcofHDsJvHwSGVXIwiCIAiXg4F8s2bNuIaqVq1a3Lme8AATFyRuzZw5M3v66adZkSJFRAtBEG4D7zD4vSCfIJ5ZJ4E3DISaGTNmsDRp0oi19kI+OARBEARBEARBxAiM/R/M7EHbuPxaBQAAAABJRU5ErkJggg==;" vertex="1" parent="1">
          <mxGeometry x="374.27" y="440" width="171.46" height="19.97" as="geometry" />
        </mxCell>
        <mxCell id="MXc2tF7lGj1LIrIw39Sy-15" style="edgeStyle=orthogonalEdgeStyle;rounded=0;orthogonalLoop=1;jettySize=auto;html=1;exitX=0.5;exitY=1;exitDx=0;exitDy=0;entryX=0.5;entryY=0;entryDx=0;entryDy=0;" edge="1" parent="1" source="MXc2tF7lGj1LIrIw39Sy-9" target="MXc2tF7lGj1LIrIw39Sy-13">
          <mxGeometry relative="1" as="geometry" />
        </mxCell>
        <mxCell id="MXc2tF7lGj1LIrIw39Sy-9" value="2nd Layer&lt;br&gt;&lt;br&gt;&lt;br&gt;" style="rounded=0;whiteSpace=wrap;html=1;" vertex="1" parent="1">
          <mxGeometry x="340" y="500" width="240" height="80" as="geometry" />
        </mxCell>
        <mxCell id="MXc2tF7lGj1LIrIw39Sy-10" value="" style="shape=image;verticalLabelPosition=bottom;labelBackgroundColor=default;verticalAlign=top;aspect=fixed;imageAspect=0;image=data:image/png,iVBORw0KGgoAAAANSUhEUgAAA7IAAABfCAYAAADVsvs1AAAAAXNSR0IArs4c6QAAAARnQU1BAACxjwv8YQUAAAAJcEhZcwAADsMAAA7DAcdvqGQAAEb8SURBVHhe7Z0J3EzVG8cPJRIikkIi+1ZIoT0tEgqlRVnL0j+7kj1abFH0LxQqpezZC6lsRbQgS0hE2UUkbf/539+Z575z58yZeecuM+8sz/fzOZxzz33vLPfOOed5zrNk8xkIhmEYhmEYhmEYhkkSstP/DMN4yJ9//il69eolxo8fT0cSk9mzZ4uuXbuK33//nY4wDMMwDMMwTOLDgizDeMyuXbtErVq1xPDhw8Xx48fpaGLy22+/idGjR4urrrpKbN68mY4yDMMwDMMwTGLDpsUM4yFbt24VdevWFfv37xcjRowQPXv2pJ7EZcyYMXJXNn/+/GLJkiVSqGUYhmEYhmGYRIZ3ZBnGIzZu3ChuvPFGKcQOGzYsKYRY0LlzZ/Hqq6+KX3/9Vdx6661izZo11MMwDMMwDMMwiQnvyDKMB3z99dfitttuE8eOHRPNmjUT06ZNo57k4dFHHxUTJ04UefPmFR9++KG49tprqYdhGIZhmEgcOXJEvPzyy9JlJ1G46KKLpLIa8zrDpCIsyDKMSw4cOCCqVasm/69YsaJYu3atyJMnD/U659tvvxVz584VGzZsEFu2bBEnT54U2bNnFxdccIEoU6aMqFChgqhXr56oXbu2PO6WM2fOSN9evB4mva+++kq+DsMwDMMwkenRo4cYNWoUtRIHzOlVq1alFsOkFizIMowL/v33X+kTu3z5cpEvXz6xbt06UbZsWep1xvz588XAgQPFN998Q0ciA41rx44dRffu3V1rXXfs2CF9ZKFRvvLKK6WZcc6cOamXYRiGYRiV//3vf6J48eLil19+oSN+cufOLa644grZh1K4cGFx1llniWzZssli8tdff4mxY8eKPXv20BE/UFJ36NBBFCtWTOTKlYuOBkDGgRMnTsjd4FWrVomdO3dSTwAowb1QrjNMIsKCLMO4oHfv3mLo0KGyjlQ2jRs3lnUnQHhs1aqV+OCDD2QbAuXdd98trrvuOlGyZEmBn+pPP/0kvvzySzFhwgTx/fffy/NMChYsKH1d77//fjrijBkzZkjzaAAB+bXXXpN1hmEYhmFCWbZsmYwxYVKqVCnxwgsviIYNG0phNhrw97iOFQRifOmll6iVOUuXLhXNmzcXhw8flu0iRYrIuB0Mk6qwIMswDvnss8/ELbfcIgVM+Mci4q9TDh06JM2EsQuLHd0hQ4aIJk2aUG8o0P5OnTpVmjLBpNkKjr344ovUcgaE4enTp8v6zJkzRdOmTWWdYRiGYZhg2rRpI958801Zb9SokXj//fejFmDBP//8I92GsHtqBesKrC/ssGjRInHXXXfJOhThK1eulHWGSUVYkGUYB0CQrF69uvQ9ATDpcRocCebJN998s5xsYM776aefylQ40QDB9/rrr5fmRVYGDx4s+vfvTy37bNq0SZpDYXi49NJLxfbt29nEmGEYhmEUEF8CLj6wqrr66qulkvvcc8+l3uhAbA3EqLCSI0cOmYvejkAMsKaAKTKU3LDyMgVshklFOP0OwzgAE4MpxMIcyE2E3+HDh0shtly5clL7Gq0QCxBkCjuz8LmxAh9bmBg5pUqVKtIkCsCcGblmGYZhGIYJBnEtIMTCn3X8+PG2hVgA4VcFQrFdIRZgPVCiRAlZ54CNTKrDgizD2OTUqVOiX79+1PILjU7BTqppBowJ8MILL5R1OzRo0EBqXa1gJ7Vv377Ucob17+Hrg9RCDMMwDMMEmDJlivwfvqmwqnICLLFUbrrpJqrZx8xkULp0afk/w6QqLMgyjE0mTZqU4ZeKnVj4oDhl1qxZUkA855xzxH//+18xefJk8ffff1Nv9DzwwANUC4AIyjotb7RAG2wGr4B508iRI2WdYRiGYRghfv31V5l3Ha43zz33HB21B/xjV69eTa0AcDlyCsyLAQuyTKrDgizD2GTcuHFUE+Khhx6imjPMIAwIvY+gSi1btnTk24oJDz46Kjotrx1at25NNb8AjwmXYRiGYRh/lH/M3wjOiHgSTli/fr209LIC5XadOnWoZZ+ff/5Z/s+CLJPqsCDLMDZAvtitW7fKOvxQ7r33Xll3CoIoqWDnEzugdsB70Wlvv/jiC6o5A2bLZpAn7EIvWLBA1hmGYRgm3THNiq1KX7voFM6wiHLiawtg1YWUO8hZi/z2DJPKsCDLMDZ4/fXXqSbEjTfeKCcKN6hBmgB2PU+fPk2t6ClQoADVAhw8eJBqzsAkaA39j/y1iQaCbDz++OMy3QHDMLFn8+bNMkWXmsuaYdIJBEKEVVXx4sVF3bp16ah9dC5AbsyK9+7dKzMr8G4skw6wIMswUQIBc+HChdQSGXna3FC/fn2qBUDam0suuYRa0WP6xFg5++yzqeacu+++m2pCfPTRR+LEiRPUynqQJuiqq64SY8eO5aTvDBMnMAbMmTNH1KxZU5pWMkw6gvR3CKyIYItmcCW7YPdU5x/rJtDT4cOH5f/4fTJMqsOCLMNECcx0rUIcTH/c0qlTJ9GuXbsMgbNq1api+vTpsm4XBJ1Q0e3S2qV27dpU8wvLbv1uvQIpD5B3b8eOHeKpp54S3bt3px6GYWIJfPdmz54t/vzzT9GsWTNXOasZJllp1KiR+PLLL109/wjKqOaBhzuPG//Ya665Rnz77bfi+eefpyMMk7qwIMukNDD9gfmbWxNbgMiEJhA8q1evTi3nYMJC2h3zfSLoQ9myZak3emBGBP9dFTfmSSYVKlQQefLkoZZwlZ/WKz7++GNx3333SRPsDh06iGHDhlEPwzDxABYpyGGNsRDRWp1GbGWYZCVbtmxy1zNHjhx0xD46s2IIorly5aKWM2DZdd5551GLYVIXFmSZlGPFihXiscceE8WKFZNJwcuXLy+KFCki/8eu3Z49e+hMe1h3IitVquQoUXk4Lr74YinAOp0Q8ZkPHTpELT8wdUIUZLfgOlahHUJkVvL555+Le+65R+4Gwez51VdfpZ7YcfLkSals2LBhg3wONm7cSD0Mk1hAqQXrjF27domvvvpKLFu2TPrMxYLGjRtLRRzArtSoUaNknWGY6PDaPzYrwI7yvn375LwIhTp2qRlGByJ8I3AogqZiLffJJ5/IY27I5oOBP8OkAGfOnBG9evUSr7zyivRbwU4BAjCULFlS/mjWrl0rz0EAozFjxtgW8vB3EGgAIhQiHU2iABNl5KG1cvvtt4vFixdTyx09evTIWKRCC41UAV4K8tECnyRM8jDxvuyyy2Q7f/781OsOLPrnzZsnfW3NggEXCgI1ty9SI0BYyIrvgGEATHuxYDSfU/P/o0ePSmHWCnJdm6m+YgHcI9544w1Zh786rCQYhokM5hXMX2pwRyhL3fjIxoJt27ZJt6dffvklaMzB/AilshWsEXbv3u04HRGT3CAAJ+YDKP/xjJjPC4qaZgpMnDhRtGnThloOgCDLMMnOzp07fZUrV4ZSRhZjAPVt2LCBev0Yg61v6NChPkPAlecsWrSIejJn7969GddGGTBgAPVkPXv27PHlyZMn6P1lz57d99lnn9EZ7hk9enTQ9b/99lvqiR/79u3zXXjhhfL1DUHSZyziqcc9xmSc8VxEUwwhmv6SYeLPBx98oH0uw5XWrVvTX8aGM2fO+KpXry5fy1jE+pYsWUI9DMOEY9WqVSG/1Zw5c/r++OMPOiMx+Pfff0PWGJEKzjWEdPprJt1o1KiR9rkIV1asWEF/6Qw2LWaSHmgDmzZtKr777jvZhl+IMUHIwEkm2IkdMWKETB9j7lbAzBiRiKPBzB1rAlPgRKFjx44hWq5BgwbJ9EBeoX5eXf7bWGKMVTIypBmNcfjw4Z5GZMT1L7roImpljpffLcPYBfklrX7rmRHr5xW+/jNnzpS7S/gtwdoFO8MMw4RHZ1aM4Ipu/WO9BmsmO/MjAlXBIo5JTwoVKkS1zMGz7jZwKguyTNKDiLXwXTRp27atzOtmAiGvRo0aol+/fmLnzp0ZgixMZax/FwlVkHWSHicWIHfqokWLqOWnXr16om/fvtTyhqwWZGEKbvrm4vN16dJF1r0C+YBhBgOTGCzAYT4F341wuQFZkGWykjvuuEMcO3ZMPq9Q7sAHFmNBqVKl6Ixg4vG8woXDjJIKU7JHH31U1hmG0aPLAJBoJsUAQinWThhvMO5gfoR/Y5MmTeiMYHh+TG9gKgy/6ePHj0tz4i1btogBAwZQbzDIPAFFqCuwLcswyQpMEvAYW8uHH35IvX46deoUco5ZjImEzopMx44dg/5u3bp11JN1HDlyxGcIYEHvyxgUfMZEQ2d4B0y3ra/TokUL6ok9xiDoy5Url3zdHDly+LZt20Y9sWfu3LlBn9ssP/zwA53BMIlD586dQ55VuFnEC5ggVqtWLeO1x48fTz0Mw1iBq1Pu3LmDfqsoy5cvpzMSH6yD1PePApNphlHJly9fyLMycOBA6nUO78gySY2a8gGaHas20HjG5U5FOKw7t5GAFtLKhRdeSLWsAVHe7r333qBIxQjuhF1LL3LHqmDH0gp2XOIBgmE8/PDD0jQcPP7446JcuXKyHg9+/PFHqgVANOxwO18Mk5WY7hVW4rk7ggjnCDqHYC+gW7duMq0YwzDBIFCbGuQJLgNIvZMs6OZHfAYv3X6Y1ABWQ9jRV/FifmJBlklaYBa8ZMkSavlBdE4MpCbwnz1y5Ai1goEJz+WXX06tyKjhwRG1Nqv4999/xSOPPBLkX9OsWTMxf/78mOWNUz+v23Dp0fLMM8+Ir7/+WtYLFiwoBg4cKOvxApGMVdhsiklEoLRDFG+VeD+v8I+D8glgof7QQw/JMYthmAA6s2JPzCzjiG5+hI9vVq6PmMRE96zgOcEz7xYWZJmkZfLkyVQLcP3111PNDxzJsbBSQVCSkSNHUitz1PDybhKgu8EUYhEGH2DnY/DgwWLq1KkxnTzUwA3xEGThwzxs2DBqCSnExmK3ORK6YBwsyDKJCHI4IiWUSlY8r3369MnYlYUi6u2335Z1hmH8pEL+WJ0wzvMjowP5hVUQ5Mm68eQUFmSZpGXu3LlUC1C9enWqBXjnnXeklhBgcYVgQZhEdOeGA7sdVsxFWjxBhOXmzZtnmEpDGEfe0/79+8f9/ah5KmMBIi+bOznYjY138JgffvhBmsOo8ETNJCK6hQKC0pUuXZpa8aN8+fKiQYMG1PL/llVlIMOkK1AEf/HFF9QKkIiBnsKBnPqmtZSVG264gWqMDoyDyLG6dOlSOpIexHJTgAVZJinZsWOHFDRUdMIp/BkRYQ8mxtix+PDDD8UVV1xBvdGh7sDGy7TWBELsgw8+KKZNmybbVapUEevXrw9aLMaSeO9II8qduesMIMR6obmzg07bXKRIEVG2bFlqMUzioBNks1Lp0rNnT6oJGRF83Lhx1GKY9GbNmjXijz/+oJafZPOPXblyZUj6QphFe2EqmsrAgq5du3YypokupkEqgujFsBhSYUGWSWt0QgbynBUtWpRaoWBX7/zzz6eWPbLKRxQg4NH9998v8zQC+JxhIozWv9cL1M8b6zx3GOzNXd+zzjpLBnmKN2xWzCQLsBhJNEEWOzPW/IBDhgzhXVmGMdDNLXCBSibfUt1nwO890XLgJhqrV6+mWnA9lcHcpFrxwV1N5/bnBBZkmaRE5zherVo1qnnPBRdcQDU/8RJk8Tr33XefmD17towICr/eKVOmiNy5c9MZ4YHpjxoV0SnqAjSSwsAtu3fvFjNmzKCWEI0aNRKXXnopteKHbqJmsykmEdm0aZPMf6yS1YqXNm3aUE2IgwcPSjcPhkl3dHNLMpkVA/aPdYZ1F1vd0U5VdM/7VVdd5VlwUhZkmaRE55th11zYDmXKlKGaHyR5jjUQYps2bSp9gWF2BOGue/fu1BsZmF3ny5fPM9NjNWx6iRIlqOY9SN9h1d61b9+eavEDpus///wztQLwRM0kIuEsVMqXL0+trAHjlzVQ3KhRo0LiDTBMOgGlsM4/NpkCPWE9kAgR0pnkINZKDxZkmaQDWizsQKjEUpBV/SIRUTeWYLJr3LixWLBggShUqJD45JNPRJMmTag3c0x/hIoVK8r/3bJ161aq+YmVIHvq1CkxceJEaglpCn7LLbdQK37oNIi4D159nwzjJYlqPYDfjPX3i3Fk8eLF1GKY9ANuQWZedBNYWFnN8BMd+MeqKbUQN8MrU1EmdTh27FhM/WMBC7JM0rF582atr1UsBdly5cpRzU8sk/xjkrvnnnvEokWL5E4wtLd2AyisWLFC/u+V4KUGJbjsssuo5i1z5syRgQFM7rzzzixJdaTTIEIwyIpo1QwTCVgvJJp/rBXkuLZiDeLGMOmGTul07bXXZllKPyfo5keYikbj8sSkF5ibVCscxD257rrrqOUeFmSZpENnVowAA6qw6SWIfGw1kYuVIItIhvAJ/eijj2TKIERbdpI+AxpT4JUgC+WBlViZLKoplfBdZAW6xQabTTGJSLj8sYnizw1LEixcTGBlEo/0XQyTiOjmlmTzj01UCxAm8dA9K1deeaXImzcvtdzDgiyTdOgE2cqVKwctlrwG2lKrn2wsTIsRmKlhw4Yyvxh8y2BODNM8u8Ds+ttvv5X1ChUqyP/dYt2RRbRk5Kf0GvgEW80O8Z3Xr1+fWvEDSor9+/dTKwALskwiolsoIEI7xsREoECBAkHWMocPH5YKOoZJN2Btlez5Y0+cOMH+sUzUxGNTgAVZJunQRSyOpVmxiTUYw48//uhp5GIIsQjMtGzZMpmLDUJ569atZe7YaMttt90mhcwaNWpI/xUsZhHwxS24lnUHOlYTFsyVEGnZBDn1nKZLcoNu4MViHLl7GSbR0Jn5XX/99QllBq+akamWFwyTDqxduzbELQqRW2vWrEmtxAduS6pFhdemokxqgEj6ung2LMgyaQ0G0A0bNlArQDwEWQiKJhDuEBnYCxDgCL6g5oIUEx38yKZOnWqrfPzxx2LXrl0y7yzwajcWEXytk2+sTIjmzZtHNT9ZFfwinGCA9EcMk0hgPDT94a0k2u4Ifj9WWJBl0hGdfzh8S5PdPxapD700FWVSA51/LNZR6nzgFlsrMyy44Y+DHbGffvqJjjJM/IBJry43arx2ZK3my9CuusUUYnWLUbfEKtBTrNIEzJ8/n2p+skqQdRI4B5H5oHn88ssvpaIFO/bpmGYEv018D+vXr5f5gBMJ3A+8Nyh7UgW4EFiDo5mEe15h8YDnE8/p9u3b4/aMqgsXKMfUSOhM+oCcwnARwvOr8+/OSvAbwfil+105AddBjIk+ffqIN954g44GwHiE+R9zSDL4jjsxFUW6HqwjMO7gnmMTgP3kUx+d0gOWbbBw0wG5Er89yJhwQYkaYyLLFOPCvtatW/vOO+88zHoZ5ZprrvG9/fbbvn/++YfOdIfxYPs+/vhj39y5c33GgoiOMumGscDyvf/++7733nsvpHTt2jXoGTTL2LFjteejzJo1y3fo0CG6ujvq1q2b8ZqGAEpHndO2bdugz+Flefnll+lV3NGuXbuMaxoLUjrqLRs3bgx67yjGBE+98WPLli0h7wMFY6CKMUj7evTo4bvyyit92bJlC/mbEiVK+Hr16uUzJm76C285c+aMb9GiRfL5/uWXX+ho1oD71759e1++fPmCvoOrrrrK9+abb/r+/vtvOtMd5vxw6tQpOhIdy5cv91WqVCnjfd13332+v/76i3qTl5EjRwZ93yj58+f3/fvvv3SGT86lY8aM8d1yyy2+HDlyhJzbqFEj37Jly+js2FG6dOmg137xxReph0kHsL6bMWOG77bbbgsaL8855xzfAw884Pviiy/oTHcYgqNv9uzZvpUrV9KR6BkyZIjv/PPPl+8rT548PkPwpJ7MOXDggO/qq6/2FSpUSBZjse4799xzMz5nNAXfC173ggsukNfA3LJz5056hazHELZ92bNnD3nf8+bNozMCrF271mcI71JOOOuss0L+pkiRIr7OnTt7dt+ThWuvvTbjO/jvf/9LR1OTypUrB91zFNxzK9u2bfN169bNV6ZMmZBzMWd0797d9/PPP9PZejIVZDHZmA9h9erV5Qt26NDBlzNnzowXa968edDE6YQdO3bI65vXrFChgu/EiRPUy6QLGLR1A6XbcvPNN9MruAMCtnlNLAqPHj1KPc6oXbt20Pv0sixZsoRexTlYBFuFk4kTJ1KPt0yaNCnovV944YXUE19ee+21oPeBgs9vVdZ9/fXXUigw+7FgqVevnlSyPPXUU74WLVr4cuXKFXSNBx980DNhDkyZMkV+R+b18Sz+5z//8UypaIfx48dnCEhVqlSR38MTTzwRtIi79957Xb23vXv3BimRypUrJxdV0fD5559rF5R4n8lOgwYNQj4XjgEIDlA0FytWTB7HPI7xBp8biwN17MEzvX//fvm3sQACs/X1Hn74YephUh0onjAG4L5jfsez8OSTTwY9vziOcc0NCxcu9F1yySUZ18Q4FC29e/fO+Duz4DcTrUC8devWIIHt7LPPlkIpBFIIbUWLFvVdeumlvpIlS/pKlSqVUaDwvPjii6Xwal1Xo+Bv9+zZQ6+Q9cyZMyfo/aHgvv366690hs/3/fff++65556M/rx588qxu0uXLlKxC+W9qvCEcuP333+nK6Q26SLIYvNIp+CH4h0cOXJErlnwO8FxKFWbNm0q11AdO3YMWt/gd/Hcc8/JOU1HREEWGnZcBIuGDz/8kI76effddzNeBKVTp07U4wzrIsUsEBqY9AKTgTqYuy0YaAcNGkSv4A7sghUsWDDj2nY0tjqgPT58+HBMihdCzeTJkzM+KywyTp48ST3eou60Y1GdFWCnzvo+UMyddwiijz/+eMbgfMcdd8gdQt3gCsELyhPrdTC5//nnn3SGc+bPnx9W2YMJIJ5g0sHrYnGGRY71u1AXPW3atKEe+5iLYGt56623qDcytWrVCvlbFCymvLgfWQWUx+bukbWMGDHC99tvv2UsJrHj1bNnT7lwUFm8eLFcQJt/i8U2dtdjAd6D+TooVatWpR4mlYGQc8UVV8h7fvfdd8s53gqUfOYzAUEQwqgT8DqqgIRxMhoBCdY/5oJaLS1btqSzMgcCO357bpSW+FtcB4q6P/74g44mBhBG1e8Hu8YAY3///v0zvkcIbJgDdJtcGIsgtFivA2svfHepTroIsrC+sN5fFKydsDZds2ZNhsIJa4fp06eHrFfxG4Diw/r3WAfoflthBVmYIuEPoUHCokwFO1HWF8DDC9MKJ+AHa9VkmWXatGl0BpNOYPCGFlJXLrvsspDnBJpU3blmcbtrqmIVum699VY6mprcdNNNGZ8V7gWxwrrDidKqVSvqiS+FCxcOeh8oQ4cOlRPs7bffLtswlYrGXPinn36SGnnrtaCBdEvNmjWDrmktGIczM8PxCuz24TUvuugi3w8//EBHA8B01/reMIn9+OOP1Bs9WIhCGLNeC2Xp0qV0RnigeFL/zlqiuUaiAnN33WfCoqBixYqyjsUhrJ0iATNM699jh8grVwwrUPpZXwf3NBXMu5nwQLi566675P3GLqxOuapuimB8dYJ6HRQonaPBqrBVC3ZFw+0EpRumQsJaYCoKhaCpkMDYE80uNhQP2Km2Xqtx48bUm7qkiyCLtY713qLAvQe/NWxWYT0wcOBAOUdHAsov6zV0ayitILtu3TppKoYfMOyXdUD4tF4cZfjw4dRrD3UiNUu8FmRMcgANjW4nSrUWiDVQ7Jimo1DAOFmcJwMQTszdR3xO+C7HCow11ns6YMAA6okf3333XdB7MAt2QM0JHCaZdrTtMDO2Xgs7Bm5MqPC31uvpSjwUgPAlhrkuzMZgaq0Dmnjz+TFLv379qDd6sGtovQYKrhutabHVN1Ytbi0qshLsvOo+E3ZV8T8WhZktEkyspoAoED68Bn7K1tdA2bRpE/UyqciwYcPkfa5Tp07YuCdTp04NeS6cWAXA4kO9DqxmomHDhg3azRSzpMNOYWZgQ0Adz1HeeeedDIX3I488YmsX+emnnw66Fu5BVsd7iDXpIsiaylRrwS4sniHIl9G6EWAHV7WWmDlzJvX6yYZ/jI4gEIEMUdRef/118dhjj9HRYJBXsnz58tTy07RpU2G8ALWix1gcipdeeolafsqVKycj1GYFxgJMRs2y5rRMRowHRn6PxsKGjiQ3SKJvDALUCrB//35RpEgRasWH3r17i6FDh8p6u3btxPjx42U9lTCESfHss8/KurFIEBMnTpR1rzEmrpBnFNEdH330UWrFh1dffVU88cQT1PJjDLgCeXnXrFkj+vbtK5577jnqiQ5johKdOnWilh9j4hcPP/wwteyB3MW5c+eWY1Q4kMaoYcOG1IoNjRo1klGmDWFK9OzZk44Gc+jQoZA8xrfeeqtYunQptaLDWOwIY0FMLT+IfIgI+tGA8/C6xoRIRwLgnj/++OPUSi6Qd3rhwoXUCgbz9tixY4OirEdiwoQJIXM9Ik4aC1RquQeRatVx2ljMiIceeohaWQ/mfMz9kX5fyYCx8JNpXZCjNKvA77906dLCEGzkerFUqVLUE8wrr7wiOnfuTC0/kdae4ShZsmRIpHSM1xi3o2H06NGia9eu1ArmyJEjMi97OvPBBx+IJk2aUCsAIpKvXLnS0Rph9uzZUm6wgrH+qaeeolbqgXy7q1evlnWsD/7zn//Ieiqhm/tNMCbNmjVL3HHHHXQkc7Dux/rfpEyZMmLLli1ynJNIcdbCggULpMQLu+VIZj/jxo0LkpBR6tevT7320JnKwT83K4AP4OWXXx7yfpK1QPuByJapALRX6ueDaUpWgEBk5i4iTORgRppKQKtqBomBeWwsg8DodtxwLN6oPjvW0qxZM0fmZYiwq17LrflUpPcJf8dYR3yH2RheC2bYkXaXsTOsvj9jEqfe6NHND3ZjMmDnL3fu3CHXidbPNtGAiabqD2gWmPjZBT6C6nUQt8Jr1PgH2JFJFIzFpdaEPVkLLCa++eYb+nTxB4GW8D4yc0kxhKOQ9w7XNjvonl+UVatW0RnR8cILL2ivk2i+qlkBxlzdd4OCHVknbgKw/lSv5dS0PFlIhx1Z3dyPAotKJxaU8L1WrwVXApOgPLJGW+40gX79+kVM0vzRRx9RLYCxsKda9CCHGDSgKrHKVZkZe/fulTmuUgXcU13er2QE+cdUrrzySqrFF2MRKQYNGiTr2CUbPHiwrKcK+Dz79u2TdeS/i+WOt/k6Vi699FKqxQf8TsLl8q1UqZIwBB5p4WAXQ/ilWgBo993w/PPPC0OIpFYAvL+RI0cKYwFLR2IDdkgBtObYHQ7HggULqBZA974jceLECZlvUsXuTmHlypW1OzPFihWjWnKB7+S3336jVgCMh04sJ7CbhTHNCuYNt8+qipo/MJHy0UPjj7E8VcBOqBe5zp2APNqwUsKOCdaS4cD3rbPQsDtOfPLJJ1QLgLHJbi7yXr16iWrVqlHLD9a1uXLlolb6Em4dCWsq7LBFkhfCEYv5kcl6wj0rWLvUq1ePWtGjW+fPmDGDagaQZk1MTTt2YyP5gUHjD98onGstsJW3C2yd1eugOA0c5QWIlIWgQtjdSOaCQAcI9pEqebpq1KgR8pwg0FNWYQ1kgZ1v5BVNBeAvZPok3HjjjZ5EP44EgilZ7ykK/KHjCXbs1PeAAg0i8uE5xQyIZC1eaJwRuwA7s6ZfF1KXffDBB9QbO+C7htdDaPxIu7GYP1S/ZxSkN7ID8hOq18BvDVEv7YKAJGquuqycZ9xg+h5aC36zbnIvq4FXUJAWy0tUvykEUEsUEOAKvsKwNNDNp8lUEIANET4RFT8r6Nu3r7y/me3G6qxxMObCL84OSAGpXsdpIEak67JeB3NguoP7gXHX+r2YRZdDNloQbE+9XvHixak3NUmHHdny5csH3VMUN4FRsYurXg9xakzrsyBB1jQdwCAUCTjpqhd1MvgA5KRVr4UcsgxjBQtjXVqerI5sjQU1Bl68F5ikuwnkkwggQI9pyoncdrE0KTZR03JgIRZvzCjtakHebDfochMiZ55XwOQtnoFIEKwJnwFpiCKBXHHq50bZvXs3nREdalomFOSqdcqzzz6bcZ2sylXsBUgJZf1OUBAV1g06QRbpNrwEilXr9aGAYVKPsmXLyvv72Wef0RE9cNmwPg8oSJdlF2vuWLMg76RTKleunHEdO7loU5VwG073338/neGMV155JeSaCM6XyqS6IAvlsPV+msWNol0nyKKY2SMyTIuNujQPAI0bN5b/h+Ptt9+mWgBjcebItHj58uVUC+BlgAkmNdi6dav4888/qRVANQOKNwgAMXXqVGlCBZP0Hj16UE9yAtPUdevWyc8zbdq0uATRUoPwqCaO8UBnCgPzZrvBnVS+/PJLqgUoXrw41dwDk7e8efNSK/aY5jy6oB9W3nzzTaoFqFOnjihRogS1okNnMuhmfkDQJxOYGycj//zzj1i1ahW1AhjCLdWccerUKaoFQJAeL7nggguo5ofNCFMPBFfbvn27NA9GIKBwwK1s7ty51Arw4IMPUi06EBQUAQNV0n2c8BLd/Jg/f34ZqMsNsZ4fmfije1awnrT+puyim5uAOT9lCLLwU8VggMUbonSG4+effxYff/wxtQI4iTB67NgxbWTirPKPZRIXnX9snjx5ZFTErAYLdETZzZ49uxg3bpzrwT2rWLRoUYaP/PDhwyMuQrxEXcxi0IsnUOLpFGrdunWL6AOaGbju+vXrqRWgdu3aVEsudu7cKScOCCOIbB8OKCZ0MRRatmxJteg4evSo2LRpE7UCuFmgXnHFFVRL3gVquIj6ke5JZmAu1i0WMN97iRr5lQXZ1APRzAEim2NODMf06dNDlNPws7QbxVq3cHbiH2slFcYJL0EEcxVElb7wwgup5QwozVWSdX5k/OieFciUWK87Zc+ePVQLxpyfMkYZLE5uuOEGMXDgQDqi59133w1x0MbkhEHLLgiugMWeCu/IMirffPMN1QJgsnESgCcWtGrVSloqIN0FBCAIhcnEhg0bxP333y/TTmAXEp8hXmARbcVJ0Ag3QFiC0KRy++23U80Z2JVAsCIVKD6SEYTNh5IRc0QkZcP7778vdw2tYOe4WbNm1IoOKBfU+QG/dzcCmzVoS61ataiWXOgW7rCGqlChArXs891331EtmL///ptq3qAqhk6fPi3OnDlDLSYVqFixohQiw6WyMUEaMhVYFdi17NMtnDHGuplHzIB555xzjqhevbqspytQTCLViYrb+RHB6nQWH8k6PzJ+dPOT202RzOYnbR7ZSGCQgpmnFeRedLIL9eSTT4oXX3yRWn5w/c2bN1OLYfxgAa3+QJB/C3m4EgmYGT/yyCNywYx8nslgXQAhFpMScn8hn3NmCxCvqVmzZtDOZdWqVeV7ihe6/IFQ7GG3yI2iZNKkSaJt27bU8gNzLAjuiaKAiQXq/QT33Xef3IGxA/Lvqr9vO/ljdUCxgHsAoM295JJLZD2ZQNTHxYsXU8vPPffcI/M8OuW1117T5jNEtEidEtEpXbp0EWPGjKGWH9yTrHAnYLKOXbt2icsvv5xaAWbOnBmSVzQzkK8Sc5cVO/ljdcDCCvnhkfMTOVLTGbiTqEpIKDIxj7lxa4HVjuoOgR3848ePx9VdxgoUa/i8EJxsikZRgzWiuZNYt27dmGXegNLwrrvuEtdccw0diT379+/XzqlwIXCy2WmiW1MArN1kDmoIstGC6J3G34YU5IJywlVXXRVyLWMypV6GCVCgQIGQZ2XChAnUm1jMmTNHRvVGVDXkZU5kjMFBfrfIOeh1hNJoqVatWtB9jXcAGEQqtb4+CiICu+Xuu+8Oue4dd9xBvanJli1bQj4zipPfgTXgilns5o9VWbFihbxO6dKl6UhygaB3yOusfi9uc4V37Ngx5JooCEziJQiepr7Gr7/+Sr1MuvDMM8+EPAcI8ofI4nbYvHlzyHVQ7OaPVTFz4GYW+DQdQGA/9futXbs29TpHN+a4CeTnBT169Ah5T8lczj77bN/OnTvp08We9957L+Q9INr10aNH6Qz7IDuIIZSHXBfFlAHCOzBogFmxCnZQDYGUWtEDswKdppfNihmV3bt3y8AQKlmVQzYzDAFG5nmEb40ul2YigfcHk0S839atW9PR+GKMQ1TzE8/dSrhJ6Pxj3e6kQ7O7ZMkSagVwkkMtmdCZC2LHxBDgqRUd2A3XWea4nR/M4CLJOs/AP1bny+rWdEvniwwwv8ca9ffPpD66tSRcW2DKa4dY+McCM/8ur0f1pttu50f85mGxppLV82OquTnAVcxr95BI6NZSmEPUIH92QBBVrKd0mPOTLdPiyy67LMTpdtiwYTIxvl0WLlwoGjRoQC0/WMDCRMRJ9GMmdZkzZ05IJG2YtmBBlzNnTjrCJCtQhGGBbhJP02IEEdNFvsZxa8APu+ieWYDxEwH1UpWyZcuKHTt2UMsPzLZhsm4HmBjCHNkK5gf4a6kBg+wAEzmYjkHgfvjhh+lo8jBixIiQ+RZBNKDocxok7ffff5cLjb/++ouOBBg/frw0sfQKnbk4mxanF9jA0PmdfvHFF7b91jFGYKywguioS5cupZZ9EIAKzyOWxjBzVf2604mDBw9qMxcgBoibKOlQKOpMXtesWRNXU1gV3G+YlUOxFysFG9xCzEwNULhgzowFeG6xqVK/fn06EnsgWKqupx06dBBjx46lln1MM38VzHfYEJX+7BBko8FMhK8Wp9vWui18mJIxjMqAAQNCnpWsNkFhvANmStZ7awyG1BN7Ro0aFfTaKMYiRubTdUOrVq1CrgtXilRm+/btIZ8Z5euvv6YzogcuJup13M4PMFFCbmRca+/evXQ0uWjYsGHI9+I2L7GxKA25plm++uorOssb2rdvH/IayZ57m7GHNZezWZB31gnIBa1eC9d3w/Lly+V1vDarT0amTp0a8v1mz57dtTtAnz59Qq5brFgxOUanOqmaR9YQzoPup1mmTJlCZzjjvvvu0163atWqdIYN02IzpLoVOOvrHPajQWcSkgyBcZj4ozNBz+r8sYx3FChQgGp+1Ii3sUQ3DiEqbqS0EZkBcx6dSbndICbJBqxsVBD4wclvVXdfvDArRjAKuCQYiyY6mlxYLRdM3JoV69LpAVi7eJ16RP1tw5Q0nXe80hFdRH8nu0ZwPTB3tqy4HSdgTQNUi8F0RDcOYzw3A+Y5xfyOrcCCKZWDIKY6cE/TgWw4ToHrly6XPLCmiY16taZbmNn1ezKBKZEuLyj7IzA6dM9KovrHMvZRXQni5dOBQXLFihXUCnDbbbdRzRmrV6/W5sdMdUFWt0B1MomFS/fg1QK1SZMm8v9kA2ZvyPWu4laQDWeGCdNBuz6LmaH+tt3moWSSC6Q5M/1PrTgZJ2LlH4sIqyDVx+to0PnHup0fkY9cN77z953c6GJawB3VjdIYm1i61IgAkfpNohJksbDQDT5OBVmEM8euhRVoYtzkB2RSEzzEe/fupVYA3pFNHdTFrJpKIVZAQQLhQAU+Vm7QaZuxs1WmTBlqpR7ws9QpBZwsUGORPxYkuyCrWyhA0HSTD/fAgQNhAz099thjVPOOkydPUs0Px8NIL5ByBQpEK/hteyXI1q5d25XyBb8FpAaqVKlSSo/X0YCxQZfnNRbzY+HChV0r5JisRTc/OfldWwmnZIWlF1ILmUQV7AmBMVq0aEEtP0g2DSHDSb6nHj16iFGjRlHLT7xzR0Zi5MiRMuehOukmG5ggEJH2mWee8dxELF4sW7ZMO3AiuIlb8xYmMRg6dKjo3bs3tfzE4/5iDMJYZAURdjGBOwWmk8WLFw+5xsCBA+XvMFWB64kuTxwmN7uRb3v27CnHYCtu88du375dlCtXTpZt27bR0eTirbfeCoksjvx6ZiRmJyB6LPJeq0CLjsBkbkzsdaj5AN0G5vESBA5BbnsEHYqne0MswPoMOVARHCyRTLcRYG3KlCnU8gOhEXk77YJxdt++fdTy4zZ/7LPPPisGDBgg+vXrJ+vpDPKdPvjgg9TyAyUBlL8ywI5DEERRHcuhNHv99depldrgdwmrLYDAd7r83ckIFM2qMhv5yTt27Egt+yDPrs60uE+fPuL555+nlgEE2czo3LlzkJMtiiFpU699kCdSvR5eIxH4/vvvQ95bshfkyUxWjIk45PNcdtll1MukAm+88UbIPd60aRP1xo4GDRqEvG6zZs2o1xnz5s0LuSaKsVCjM/QgqM6JEyeolXwYC7+Qz4xALE7A3KJey23+2GHDhsnrPP3003Qk+TAWBSHfi7HQpF5ntGjRIuSaKP3796czvKVw4cJBr+P2/XuJLvBbsheMrYlEmTJlQt4j8pTaZf/+/SHXQXGbP7ZGjRryOk4C1KUa7dq1C/l+DSGMep2BvPXqNVGWLFlCZ+jB/Hno0CFqJTepGuypZs2aQfcUJbP7GgkEAcyZM2fINbNly+b74Ycf6Cw/UalbdVvGTv0QwvnHJkqgJ5g4oKQS2M1IVtg/NvWBZl1F1bR7DVwb4OKg4tZ8ddKkSVQLgFQT2HUIB3aokILIWNDRkeRDDbkPnJiKGXOSNmiE2/sya9Ys+f+9994r/09GVJNMUKpUKarZB+bgOjM/WEIgTY7XIK2JGpwHJmKJQjLPkzqwmx5p3Ik3uP8w21VxYn6oC3qWK1cuV/6xyFeP6yKAKbsuhQ+E6Abd/Fi0aFG58xYOWIZgDkWeYSZx8Xp+QlotjBkqzZs3D7luVKbFF198cYipHHL7PProo9SKHp0JGkxgERzFTdJcL4FJMfy0UsG0uHz58kkt+GEiVgMDDBo0SJr/MKnBzz//HBIQYMKECaJt27bU8h4IjzBzVIGJm9PFH3x78TnUgDZjxoyJKBjAnPHFF18UL7zwQoiJdbIA1xDV1/Lll18WXbp0oVZ0IDe0zl1l3bp1Uth3AuI7wI8UiyHdAjhZ0OXTmzhxomjTpg217IHfmM4PNrPn1SlIbF+6dGlq+XnzzTdFq1atqJX1/PTTTzKXpRrDI9lAjsU6depIISFRgLJL52aAAGZYY9oBz726/sTiFs+YU0yXN7i69OrVi46mJ7gnumdnyZIljoM9nTlzRiqu4DZk5emnnxZDhgyhVijIQd69e3fxxBNPiFdeeYWOJi+palqM8QZuGSZnnXWWvOdO85tfe+214vPPP6eWH6wN4LcdMl5AkM0MbOXiVGtZuXIl9dqjW7duIdcyBC3qZZgAp0+f9hk/hpDnZe7cuXQGkypccMEFQff4mWeeoZ7YoDNZhyns/1zksTMEt5BrnnPOOb4jR47QGXrKlSsnz92xYwcdST5g7q9+9unTp1Nv9MB8TL0Oyu7du+kM+5h56F5//XU6kpx8+OGHId+Lk+/YBHmN1eshV+8///xDZ3jLp59+GvJ6MKln0oO1a9eG3H+sLZ1gCDQh17rmmmuo1z7Hjx/3GYtkOV6nigmrG5D7U/1+c+TI4Tt16hSdYR+MVeo1UbZt20Zn6Ln55pvlecjvmwqkqmkx3LLMz4Vy3nnnUY99Nm7cGHQts8BFSEempsXQTBrnUSuAzhwwGmKRH5BJTbDDo9OMs9lP6qGa9cXatFiXVgAmbrBicIppvmoFIeILFixIrVCgmYWGEVYT6m5VZiCAEYIiQZtt1YRmBdC+qjiJHhpuJ8xpdFuYC86ePVv+PUySvOD06dMyACJ20LEz9Mcff1BPbClbtizVAjgNSoTosdagSwDPPnY8dPfSC7DbaQWa+kQyfWVii+65QlAqJ+jGCTcRsGHtAAs8BDfilFD6+REWMYZwQi376OZH7E4iAF84sMMO68giRYrIc5nERZ2f3ATMQ9A2FViXdu3alVrBZCrIYvDRLUiQLN0uBw8e1EYmThT/WCaxQA4pFQgFTpUoTOKiCrIQ0mIFFkGrVq2iVgA3/j8wiYVJospDDz1ENT2mqdQDDzwg/48W+NNiYEeEX0Twg1lP+/btqTf+6HwdwwmlkdD5xACnkVdhJoj3AfMtL6K3YlGF8QdR/BEdFeaNEMYQXT3WICef6n4Dodou8GXCM6MCl41YKpXVNGpY+DhZRzDJiW6MwCaJbqMkM3TjhNNIulBEwaQYihy4eTDe+8fiHuvGyMzmx1dffVWOV82aNfM8gjrjLXDdsYLfqM5vNjMQI2PGjBnU8pMvXz6pCAmnHI/qyUAKFxXVDywa4P+lfjA8nG5zDTGpiS7QE0K3M6mHKsji3jtZ4EQD/CSRakPFzUSNgHjqmIhBN1IQi/3798vdQihn7ISox6Jr7NixId8P0hfAnygr0PmvIkiHXRCuXwcUBXaBMgTBRSB4erFAxf1q2LChOHbsGB3x8+OPP8ogUrHOf4y5Eq9vRRc8JzOQVkRVEmKh2L9/f2rFBlWJDb9qJn2AX5sqzGLMxO/KDlBMjR8/nloBnIwRYPTo0fI9wP+cLQT81lA7d+6kVgA38yOuiTg4KnfeeSfVQkEwOvjQI4gXFLZMYnPHHXeEKJPszk9QzCIdnHVtg3nvvffei5jGLypBVrdIsbtj8vHHH8uHUgUmdZwPlNGh25HlxU9qogYkg6Cpm0y9QKdtxk6Xm6ilOsUeghXkyZOHWqEMHjxY/h0UfNA4Rgu01OFA/uusQLeTt2PHDqpFB+53uGAedk2n8b3ClBj/I6CGG5M4k8mTJ4cNAIjcimpO4ligRu6EibAdYDKI584KNOnIURtrELDLiqrBZ1IfL8YJCJ66BTLyKdu1AoFyBfm9YboK6w1GPz/CDQDzmVN08yNMimFlEg4obDGuwvqIrfASH1g8NWjQgFp+7M5PsJxSg7vCdequu+6iVhgMyTdTDCEU4nFQGT58OPVmjiGQ+AoWLBhyDZTu3bvTWQwTAAFHzj333JDnZerUqXQGk0rgfqtjRKzudb169YJeB8VtrmUErFCvGSk/4uLFi+U5xgTt++OPP+ho5hiCVMjrWAuCo/366690dvwwFpAhOSILFSpk67OZQT0aN24cdB0UY4Kjs6KjV69e8u+8zKGNnKfq+7IWBEOx83mdYs3Xh2A5Bw8epJ7IIPfmxRdfHPSeESAn2r93w+HDh4NeFyUeuaKZxGLdunUhz0GbNm2oN3MMAdZnLJjlONeoUaOQa9kJCIRgkhUrVpR/9/7779NRBvdD/V6vvvpq6nUGgmlhrLJeM9LYjDy+GE/z5cuXabDEZCNVgz0BBGnKnj17xuczBFDqyZw333wz4+/MMmjQIOqNTFSCLFAjHJYvX973119/UW948ECqEUmtZd68eXQmwwTYsmWL9nn55Zdf6Awm1WjRokXQvX7yySepxzv+/vtvGZ3S+jooL730Ep3hnCpVqgRdM9z7P3bsmK9o0aJywP/oo4/oaHRgzM2VK1fQ66hl1qxZdHZ8mTlzZsh7QSTnaBgyZIg8//LLL5cLzEceeSToOhdddJHvwIEDdHZksDjAd1u2bFkpvHkFFBPW96QrK1asoLNjB17Duljo3bs39YQH42mpUqWC3muTJk3kdx0PFi5cGPTaeC9MemJGETdLzpw5fT/++CP1hgcRc00hoGvXrr6jR4+GKGYQOTUacK0GDRrIv3n00UfpKAPUcQLFi7n49ttvD7pm8+bNqSeYM2fO+CpVqiTPeeutt+ho6pDKgizA78n8fFirQLjNDHwPUE6Zf4fo4ZMnT6bezIlakMWOg7oADBcKGWCHZdy4cb4CBQrIc6+77rqgv0XBG4emhmFUdOHfsePDpC4QwKz3u1atWtTjHUgbZn0Ns0Dh5hYMxtZrtm3blnoCYMFm7qhFq21Uadq0adDrqAWLvKzC3Ak1CyakzIT1AQMGyHOxI2/ehxMnTmSkJTILdgUiCV6Yc5544gl5LhStXiu9Pvvss6D3oysQyOOBNX0UdjoiKYSXLFniO//884PO79mzp9xFjxcDBw7MeH2ULl26UA+TbsCqRFX6oR1JUQUrk9q1a8tz69at6/v999/l8aVLl8oxxnqtwYMHy75w7N27V6Z8xLnt27d3lXIt1fjhhx+CvkuzLFiwgM5wzuzZs4Oueeedd1JPAFiH3HbbbbIf9yYVSXVBFnO0deOzdOnSYeU8bCx06tQp41wUpEH85JNP6IzoiFqQBatWrfIVK1Ys6EWh1bXmP9yzZ49vwoQJvgoVKsh+mJfNmTNHq82uUaMG/RXDBAMNoPq86AQDJnWAlty624hdJ6/NiqDhtT5TKLAY8WJR/+eff2Zo+VFgAvftt9/KPuQmxKSVP39+2QdBwukCCuZ1hQsXzngdtWT1DsOoUaN8Z599dsb7geDUunVr37Jly6S2HUDoxMLmxhtvlOcUKVLE991338k+E+y4mObGZoFwi11e7GqbYM6BUsDMZQtzQS93Yq1gcWV9P2YxdzE6dOhAZ8aeZ599NmNnFs8a3HT27dsn+/D9Yt695ZZbgt4nFlHr16+X58QTKKWs7wPPApO+4PfbsGHDoGcCmx5wWbOOAxgDhg4dKl0wcA5MFVXzfSgnsc60Xgvj8Pz58+XvAGCsxXmtWrWS+S1xDtakLMQGA6WX9XtEwVjuxYYTvmvMA+Z1MXaZ4wAUFZMmTcrYYW/ZsqWcT1ORVBdkAZRS1s+JeRumw6YVL1xNXnjhhYzfNQpMyTGHOXnWbAmyAAvL+++/X5qDmG/AfBNWn0YsSNu1a5ehFTd9EawFizmG0WFq5azl7bffpl4mValfv37QPX/33Xepxxvgl2f11UEdyfW9ApOvajqHhZP5mhBkvTCXgua8Y8eOUrEIs1vsUowdO1a+RiIofDZv3ixNx6zmQiho4/uwmsbedNNNvu3bt9NfBoOJb/To0b7KlSsHXQcF8w3mHbMNTS6shLDjEyug8ICiFkpYvF716tV9L774olTm4j1goRxP4GtdtWrVjO8ABd+L+ozjfb733nv0V/EFixrr/cZvAJp4Jr2BYAN3BDyb5rNhFuyyQjljtrGe7Ny5c1h3NiizsMuvurHh2cd1rL8HWMR4scOYimC9rrqu9OnTh3rdg/ET85Z1PLDOB6hjPE1l0kGQBfit9u/fP8gaCPO/GvsG9xwuAd9//z39pX2y4R/jYrZBaOylS5eKhQsXygjGp0+flsmty5cvL2rXri0aNWokjAWWPBeht3VRxxDRCiGbGUalcOHC4vDhw9Tys3v3blGiRAlqMakIUshY86Ei8qwhzFLLG+bPny+MyVKmx3n66acjpshxyrZt2+RnWb9+vcynhiT7hoAr05wYAzmd5S2I5Hn55ZeLDh06yPQ8iQCiT69cuVJGwkSEUMwbZ86cEQUKFJBzBfKxXn311XR2ZNauXSvnHEQ5xWfFnGMsumTKDOTRxfdrTIp0dnxB4v7SpUuL1q1by5Q/8QbfyyeffCKft+PHj8vvBfMv5ldEfNTl8IwXEydOlPl2TZA7csqUKdRiGH8KK4wRyNOMtF34bRtCj1w31qhRQ6bGwZogMzDWzp07V6ZYQxR0rD1xHYw3yL5x6623xmS8TyVWrFghU3Qh0vATTzwhU4t5De4x5kfkc0ceX2QNuPvuu+V8byeCfzJy3XXXidWrV8u6IcjKSL2pzIkTJ8TMmTNl5gFEJMZzlTdvXpnWFVGOb775ZjlfucGxIGuH4cOHi169elHLT+7cuWVeqVgt6pjk5ZdffhFFixallh+Eacdkx6Q2Bw8elIsXDHagUKFC8lh2ToaeKUgkjkUfcu6NGDGCjjLxYOPGjTLHNRYlWJwwAbBAnTdvHrVYgc0wTPqSboJsPIjL6lC3owLNCwuxjA5d/lgshpjUB7tI1lyZUHYtWbKEWkwkkEcRYFeWiS+wFgFlypSR/zN+sAOPHPIm2IW//fbbqcUwDMMw7oi5ILtp0yZZVDp16kQ1hgkGJggqsTBvYRIT7ChaGT9+PNWYSJiCbNmyZeX/TPwwNewwc2YCvPPOO9JM1KRz584iW7Zs1GIYhmEYd4QVZL/77jvRsWNHUblyZenz+v777yMwFPVGj2439sYbbxRVqlShFsMEowqy8O+69tprqcWkOjDRhC+TyYIFC6S5ORMZ+JCCihUryv+Z+MGCrJ5XX32VakL6ibds2ZJaDMMw6YfVTYpdprxB+y0uXrxY1KpVS4wbN05s3rxZrFmzRgZoeOutt+iM6Dh69GjIbgpuHPtvpS9QhkRSiCAwg7mzZNK4cWPW4qcZAwcOpJoQ//zzjwwYw4QHQZUQYKpatWqiSJEidJSJB3/99ZcMLgP/5IsvvpiOMgjeA4W4yZNPPiljYzAMw6QrNWvWpJqIOtAhE5kQQRZR3x5++GHp26JiN3roCy+8ICNWWcEur/VGMunBunXrZCRrRIpFxDJEIUS0OhWYoZ86dYpafh544AGqMekCAiLUr1+fWkJMmDBBCrSMHvy+/ve//4l77rmHjjDx4oMPPpCRmB988EE6wgBr0Cv4vnNQE4Zh0p0BAwaI5557TspTUH4y7gkRZGfMmCEDrOg4++yzqZY5P/30U5BZEUAkWgi3THqBtBA33XSTTHsCYQRKkjfeeEOmPlH5/PPPqeYHGisINUz68fzzz2fsxGM8gTDL6DEtX2C9wMQXpHKCpREr3AIgRRLSoJg89dRTvBvLMEzac/7554u+ffvKgLeMN4QIsjAjDkfTpk2pFhmYjj722GNyd9cEEYqhuU71HFFMMNglQg5Ba8APE/g+qkyfPp1qftS0TUz6cOWVVwb51A0aNEhrKZLuwP0DedqQx5RjD8QX5L1E7tbrr78+JGVYOtOjR48MCwr8jpGPkmEYhmG8JkSQhb+PDmyBt23bllqRGTlyZFDKDOyqIHohmxSnH0jUHy7/a8GCBanmB+chGbcJgv7wDlN6M3r0aFGyZElZP3DggBxbmGAGDx4slYf9+/enI0w8wHeO7x7zG0zFGD/Lli2T1jcAie5hQgeXEoZhGIbxmhBBtlChQlTzg51U5HVELrizzjqLjoZn4cKFQSajmOTHjBkT9W4uk1rs2rWLaqGouWEnT56cEQgKpnowl+QgT+kNLDiwEDbHHgSKO3TokKwzQmzZskXuxkLR+Mgjj9BRJh7AdQZuE7A4YfcHP7DA6d69O7WEGDJkCEdyZhiGYWJGiCCL6MQQHhCQ55tvvpHRMKdOnSry589PZ4QHZqHYQUPkWQBtLHxu2awofQnnF4XdVmu+UAiwEGRNunbtKq655hpqMelMnTp1RL9+/WQdgcC6desm6+kOxlmMrRAeRo0axUqfOPL9999Lv08EMRo+fDgdZRD7YOPGjbKOFFpdunSRdYZhGIaJBSGCLPLGYqfs5MmTcvcDi6TMgC/sM888I6M2/v333/JY8eLFpYkR78SmN1jMYFffBObEiNq2atUqkTNnTjoqRJ8+fTJ2byHAsqkeYwVms8hnDd577z3bqcBSEfiPf/rpp6JJkybihhtuoKNMrEFaOXzniLr+8ssvR6XkTQe2bt0qfWNBgQIF5G+UlSsMwzBMTPFp2LFjh69kyZKw8fRdf/31vs8//9xnCLTUG8CYyH2zZs3ylS1bVp6Lkj17dl+XLl18hiBMZzHpTt++feWzcckll/jWrFlDRwNMnDgx4/mpUaOG7/jx49TDMAF27drly5cvn3xOzjvvPN+2bduoJ/2YNm2a/B7Kly/vMwQrOsrEGsxrNWvWlN99//796Sjz+++/+ypVqpQxjk+dOpV6GIZhGCZ2ZMM/xsQTAlLwQOu8cuVK2TaEENGwYUNpSoWceQivj4BOZhTRHDlyyPNhblW9enV5jGEAnhf4TY0dO1a2jcW3TMcDf2xE/TSfMUT+RMoGaPMZRgd89Rs0aCCtQGCevnbt2qCd/XThlltuEYYgL7744gtRokQJOsrEmmnTpsk0OzB1f/bZZ+kog0CQkyZNknVYclndRhiGYRgmVoQVZAHMhOfNmyd9XxHESU19gXxIiEQMoQQTWZEiRaiHYUJBJEsIswiQYk3NVKFCBTFw4EAZVIxhMgNpm6A0w/jUpk0bMXHiROpJH/bu3SsDYEHByMQPuNog3Q7yWzN+ENvATJMFFwBEcmYYhmGYeBBRkLUCf6Dt27fLYCuIKAtfxzJlyrAPDGMbKEQQbRXC7KWXXioLw9gBQeTgk4+AR9j9wS4QwzDxZfHixaJRo0YybR8C9L300kvUwzAMwzCxJ2pBlmEYJpHAThB2ZCHMwszTjGzMMEzsgUtIvXr1xOnTp0WHDh3Ea6+9xopthmEYJq6wIMswTNICH2v4LB44cEDmHW7Xrh31MAwTK5CaD5GysROLPPHt27enHoZhGIaJF0L8H2kTazZVsvNZAAAAAElFTkSuQmCC;" vertex="1" parent="1">
          <mxGeometry x="352" y="540" width="216" height="21.69" as="geometry" />
        </mxCell>
        <mxCell id="MXc2tF7lGj1LIrIw39Sy-20" style="edgeStyle=orthogonalEdgeStyle;rounded=0;orthogonalLoop=1;jettySize=auto;html=1;exitX=0.5;exitY=1;exitDx=0;exitDy=0;entryX=0.5;entryY=0;entryDx=0;entryDy=0;" edge="1" parent="1" source="MXc2tF7lGj1LIrIw39Sy-13" target="MXc2tF7lGj1LIrIw39Sy-19">
          <mxGeometry relative="1" as="geometry" />
        </mxCell>
        <mxCell id="MXc2tF7lGj1LIrIw39Sy-13" value="Validation&lt;br&gt;&lt;br&gt;&lt;br&gt;&lt;br&gt;" style="rounded=0;whiteSpace=wrap;html=1;" vertex="1" parent="1">
          <mxGeometry x="300" y="600" width="320" height="100" as="geometry" />
        </mxCell>
        <mxCell id="MXc2tF7lGj1LIrIw39Sy-12" value="" style="shape=image;verticalLabelPosition=bottom;labelBackgroundColor=default;verticalAlign=top;aspect=fixed;imageAspect=0;image=data:image/png,iVBORw0KGgoAAAANSUhEUgAABcAAAADaCAYAAACBxuG4AAAAAXNSR0IArs4c6QAAAARnQU1BAACxjwv8YQUAAAAJcEhZcwAADsMAAA7DAcdvqGQAAJIhSURBVHhe7d0HmBNFGwfwoTcBEbHQRJooHRQQFQUFUZEiRURAEVApCkpvIkWkSq8fVUAEpEgTlaKAKCCggHQQ6b33li//udm7zd7mLmWTbJL/73lWM7shyaXszr77zjtJHE6CiIiIiIiIiIiIiCjCJFX/JyIiIiIiIiIiIiKKKAyAExEREREREREREVFEYgCciIiIiIiIiIiIiCISA+BEREREREREREREFJEYACciIiIiIiIiIiKiiMQAOBERERERERERERFFJAbAiYiI/LRnzx5x+PBh1SIiIiIiIiIiu2AAnIiIyA8TJ04UBQoUEEWLFhUnT55Ua4mIiIiIiIjIDhgAJyIi8sGVK1fEe++9Jxo3bizu3r0rzp49K44cOaK2EhEREREREZEdMABORETkhVu3bokJEyaIIkWKiEmTJqm1RERERERERGRHDIATERElwuFwiF27dokRI0aIfPnyiSZNmoj9+/errURERERERERkV0mcJ/UOdZuIiChq3blzRxw9elTevnr1qti8ebP4888/5YLbFy9elNsSsmnTJlG8eHHVIiIiIiIiIqJQYwCciIjICfW7s2fPrlrmkidPLmrVqiWzwREUN2IAnIiIiIiIiMheWAKFiIjIDQS8H330UdGoUSPx7bffiuPHj4sZM2YkGignIiIiIiIiIntgBjgREZHTtWvXxLx580SKFClE1qxZRc6cOeX/kyVLpu4Rp2rVqmLhwoWqFYcZ4ERERERERET2wgA4ERGRlxgAJyIiIiIiIgoPLIFCRERERERERERERBGJAXAiIiIiIiIiIiIiikgMgBMRERERERERERFRRGIAnIiIiIiIiIiIiIgiEgPgRERERERERERERBSRGAAnIiIiIiIiIiIioojEADgRERERERERERERRSQGwImIiIiIiIiIiIgoIjEATkREREREREREREQRiQFwIiIiIiIiIiIiIopIDIATERERERERERERUURiAJyIiIiIiIiIiIiIIhID4EREREREREREREQUkRgAJyIiIiIiIiIiIqKIxAA4EREREREREREREUUkBsCJiIiIiIiIiIiIKCIxAE5EREREREREREREEYkBcCIiIiIiIiIiIiKKSAyAExEREREREREREVFEYgCciIiIiIiIiIiIiCISA+BEREREREREREREFJEYACciIiIiIiIiIiKiiJTE4aRuExERkQeqVq0qFi5cqFpxNm3aJIoXL65aBFu3bhVVqlQRJ0+eFOxyBF+SJEnEX3/9JR577DG1hoiIiIiIKLowAE5EROQlBsA9N3v2bFGnTh3VolBo0aKFGDFihGoRERERERFFF5ZAISIiooC5ffu2ukWhMmXKFHHx4kXVIiIiIiIiii7MACciIvISM8A9t3PnTvmeXL9+Xa3xTKpUqUT27NlVKzzcunVLBvz1/9du37lzR90rNAYPHixat26tWkRERERERNGDAXAiIiIvMQDundGjR4vmzZurlmeSJ08uVq9eLcqUKaPWhLfLly+L48ePixMnTrj9/7Fjx8ShQ4cCUis9T548Yvfu3SJpUg7+IyIiIiKi6MIAOBERkZcYAPdezZo1xdy5c1XLM7ly5ZITOGbMmFGtiXwIlCNrfseOHXLBJKK//vqruHTpkrqH7/CdxYSkREREREREwYREn5MnT4q7d++KdOnSiUcffVSkSZNGbQ08BsCJiIi8xAC4986dOyeKFSsmDh48qNZ4pnbt2mLWrFmqFZ1QRmXt2rVi6dKlcvn77799yhKvWLGi+Omnn1SLiIiIiIgoMJDYM3v2bPHNN9+IjRs3yvNBvSRJkogcOXKIZ555RtSoUUO8+uqrMjAeKAyAExEReYkBcN+sWbNGvPDCC17Xwx43bpxo2rSpahFKpvz4448yo37RokUyi8JT//zzj3jiiSdUi4iIiIiIyDo4N0EJzK5du4rz58/LdSlSpBD58+cXKVOmlIHwAwcOyPV6mTNnFh06dBAtW7YMSGY4C0ESERFRUDz77LOie/fuquW5Vq1aie3bt6sWPfTQQ+Kdd94R33//vdi7d6/49NNPPS4TM3z4cHWLiIiIiIjIOgh4V6hQQQaxL1y4IOrVqydWrlwpb2/btk0mjP3777/i9OnTYsKECSJ37tzqXwpx5swZ0b59e1G0aNGAnPsxA5yIiMhLzAD3HTICXnzxRfHLL7+oNZ4pVKiQWL9+fVDrxIWTK1euiClTpoj+/fuL//77T62ND8MKDx8+LO699161hoiIiIiIyD8Ifj///PNiy5YtsvTlpEmT5P8Tcvv2bTFgwADRuXNntSbGPffcIxYsWCDKly+v1viPGeBEREQUNEmTJhXTpk2TQ9y8gYwBZDqTOQS2mzdvLifO/Oyzz0Tq1KnVFlcIlCPbgoiIiIiIyCrvvfeeDH4XLFhQLFu2LNHgNyRPnlx06tRJtG7dWq2JgfrhtWrVkqNdrcIAOBEREQVVtmzZxOTJk1XLc2PGjBFz5sxRLTKDDPkePXrICwbuMiZGjhzpVd1wIiIiIiIid3CONm/ePJE1a1YZ/PY22WnQoEFylLXe2bNnZdlHqzAATkREREFXpUoVWdvbW02aNEmwxAfFyJMnj1i+fLnsTGKGdT3U3TMr4UNEREREROStL7/8Uv6/S5cucr4ib2GUcK9evVQrztq1a8XPP/+sWv5hAJyIiIhCAvWqva2ZjtpymEwF9eIoYQh8o2zM9OnT5czresOGDVO3iIiIiIiIfIPkmo0bN8rbmPwSpU9++OEH2fZGkSJFxBNPPKFaccaNG6du+YcBcCIiIgqJlClTim+//VZOcuINZAJ0795dtSgxb731lli0aJGsE65ZsWKF+Oeff1SLiIiIiIjIe3/88Ye6JYTD4RB///23qFu3rjhy5Iha6zn8O6PffvtN3fIPA+AWuXXrlrpFRMHCDFCi8Jc/f34xYsQI1fJc3759ZRCXPFOpUiX5ft1///1qTXRlgbOfFjki/bNk34YoDn8PRBSOQrnvCsVznzhxQt2Kc/HiRTF//nzV8lzRokXVrTjHjh2Ti78YALfA4MGDRfr06cXSpUvVGiIKNGQuImu0Q4cO4s6dO2otUXBcvXpV3XJ1/fp1dYu8gclN3n77bdXyDCZxrF+/vjh16pRaQ4kpVaqUWLlypUibNq1sT5s2TZw7d07ejlT4nnTr1k320zZv3qzWEhw9elTcuHFDtewPGUW9e/eWn6VVmUB2c+3aNfHAAw+IOnXqyBNHomg2ZcoUkSlTJjF16lS1hojI/tBHwajLL774QvZdgumbb74R9957r5g4caJaExwZM2ZUt1zpR596Cv08M5cvX1a3fMcAuB/wAaCDivqauXPnFiVKlFBbiCjQcuXKJUqXLi1rCL/44ovi+PHjagtRYCH7cN26darlavXq1eoWeWv06NEib968quUZZAK8++67Qe9chrNChQqJoUOHytu4kDN+/Hh5OxKdPn1aVK5cWQZN0Ufz9vsVyZo2bSqyZcsm8uXLJy5cuKDW2hdq/1etWlVezEBtSLP6kJEgderUokaNGmL27NniySefFFu3blVbiKIHLsx98MEH8vh+3333ieeee05tISKyv8cff1wULFhQdO3aVbz++utBTTYpW7asHO3ZuHFjuQQrOat27dryAr4e2m+88YZqec5dopmWwOMPBsB9hJOF559/XnZQ8+TJI5YvXx7vAyeiwMHVxCVLlshO8a+//ip39ocPH1ZbiayHTNK//vpLvPTSS26vQONK//Dhw90euMk9XO2fMWNGvMkaE4P9AEZikeeaNGkiL+DDyJEjI3IUDbKby5QpI2eNR/AbE/G4yyiJNsgy1i58HDp0SPz000/ytl3hQsYzzzwj69jjhBKfKbJCIxEmrsVn895774k9e/bIv9vdBVeiSIRgzSuvvCInPHvooYfkOTaSXoiIwgUu3C1btkxOBLl48WIZr0BfJhiwv/zll19Ezpw5ZRY49qfo9wUaRub//vvvol69ejK5olq1anJSzAwZMqh7eA59eCOcH2bOnFm1fJfEwbQpryGwgVqaGNqA7Jk1a9bwwEwUIhgijAzwP//8Uzz22GNi1apVvBhFPkNmLC6oAALeCAyi03DgwAFx8OBBr2rPZsmSRR4b8H1MliyZXDTIdn7wwQdVi/QGDRok2rZtq1qewWSamBizZMmSag0lBhfy0THHd3vu3Lky6zRSnDlzRpQrV05s375dFChQQI7M0Nc+tyO8ZgSisZ9JmjSpPHnAsS0QQXt0/XEioV34+P7772V2tR3he1q+fHlZvgajLfFZZs2aVW2NXDj+4CRy5syZMtiP0kVmNTGJrLJ3714ZbD579qxIkyaNPJ4iuUTfdwk09LFwLELACAEk9McwaomIKByhTCP6ozt37pTJGJiLx12pEKvhIjqeG6PkEQRHLW6cL4UDZM0j6UGvevXqYt68earlOwbAvYQhWfhAkH3CE27/oHOPnQKGsKNoPk7+0OnCEBEsODHr0aOHrGFElBB8j4oXLy5nGS5cuLC86omOM5G3UFN6+vTpqhU4ONHE6CGKD92SV1991et5NVDeYtOmTczy9QI6khia+MILL8gAWyTARdEKFSrIrBOcZOA7gcCpXSGJAnNZYPZ89Iv0EKTGSQsmic2RI4daa41HHnlEBtthw4YNstyG3Vy5ckUmnKCvjVFfeJ0YVhwtEAzEaFNkVOGCKoKB0fT3U3CMGjVKjqJCv8QI52AYQo8yUijPE0g478NFn1mzZsmLgOgDVKxYUW0lCi58H0+ePBkbp0CMQh+nwGidPn36BPx3QeEPiSaIF+L78/TTT8tkB2RLBwP6Tc8++6y4efOm7O9j/xrMi5q+QD8eyWPGOWqsStYIeQD877//lvX8MNwJHX0ElbX/628b/49OId4U/Dv8X38b/8fMp+3bt5dD1a2Cx0RtG20mUwxzb9mypbztq23btsnAb7hdh0DHBJko3l7Bwsk2DhYIVOKgomUfuYMhy6jfSZQYnCAjiIN9A07kcYWVgTDyVs+ePWWQAdlPWFBrTLuNzq638H1EBjlGDun/j1IfGEFE5nBRC8cYb2f7xkSamNiRPIO+B0pK7NixQ2zZskVeQAxn+H29/PLLMqgM3333nahZs6a8bTfoU37++eeib9++si+UPHly8f7778uAN/YbOKb9+OOPsgY0+lqYBA4JGJ5AIB0LHtMdZAVpcxagT+YuqxqvDa81VapUak1woD9fpUoVOYQYMBlew4YN5e1ogtJuyBrDPhGfET4zO1/QofCB8zCU2kG2NWBU2scffyz70MgYxIhKbMNt1NxfsGBBwC7c41iEQPukSZNkG7EB9McotFD2D6Nwwi1OgQAfEqO8DTJ+/fXXYsiQIbL8Ava5xovSRuvXrxdPPfWUahG5h3KN6NPgt4RRbYhxBatfhVHHzZs3l7dxnoT+pC/ntMGC/h7mf9DD8Qn9oYT6tR5zfgghVb9+fexRA7I4TyTUs1ijQ4cOsY9dq1YttdZ3/fv3d3m94bakS5dO/SWec3acTB/LbEmaNKnj/Pnz6l8SJW7w4MGx358GDRqotUQUjpYtWyaPA/rjgifL5MmT1SOQJ/7880/H//73P4fzRFetCV8NGzaM/R60bNlSrbWfGzduOJ577rnY15oxY0bHzz//rLbGOXnypOOll16S98mcObPj7Nmzaot7u3btcjhPFGQfbdiwYQ7nCbza4qpOnTrycZMlS+a4ffu2Wutq06ZNjkKFCsnfIb4jwdSsWbPY96dRo0ZqbXTCd0PbFz755JOOmzdvqi1EvsF+4oEHHoj9jRUuXNhx8OBBtTXOxo0bHdmzZ5f3efnll9Va6w0aNCj2tZQvX95x584dtYVCpWPHjrGfSTguOXLkUH+J5+69917TxzJbcIy9deuW+pdEievSpUvs96dVq1ZqbXC8/fbbsc89ZMgQtdZ+Lly44MiWLVvsa9WW2bNnq3v4L+QB8Pnz5zuqVasmO/ja8vzzz8sD8cMPP+xIkiRJvDfAbEmRIoWjYMGC8qCJx3jzzTcd//zzj3oW/61atSq284kgLj4cf+DAnjVr1nh/Rzgt6Dh5Cz+4SpUqyc+pbNmyCQbES5Qoof4VkeeqVq0a+x2aMWOGWktE4ahTp04uxwVPFpyU4OSeogs6x9p3oGTJkjLIbFeffvqpy3d27NixakuMa9euObp37+5IkyaNy/3atm2r7uFe06ZNXf7NCy+84Ni/f7/aGqd169ZyO/qiRgiwduvWzZE8efLYx0FgIFgWL14c+7wIwF+9elVtiV5du3aNfU8QmCLyFfaNOMfSvk84hzYeMw8dOhR7kUy//PTTT+oe1tmyZYsjVapU8vFx8e7YsWNqC4UKjkEZMmSI9/mH0/L444+rv8ZzvXv3dlSsWFHGKZ5++mnHI488YvrYWBBvIvIG4n9a8gNinEuXLlVbAu/KlSuOfPnyyefG/hb7XTvSJz9oy8cff6y2WsP2NcBRzgS1ydq1a+d2GAqGkHbu3FmWRwmES5cuiSJFisj6PYA6mSi14A8MsXf3GBhqjxp/+fPnl5MgYcFQeaT8Y0gPFuOwBQypR/02DE8zkzRpUjmUDEOdMXsqysjo4WuA9xe1iTAkTltQkxK1B82gLiFqLfsLw1vNarw5T87k30TkDdQ0xe8HQ+ExbBxlllDrlIjCD0ovoFSDu+OQO5jcEcevYJdtoNDAcGWUb0EfBn0k7PfR37Ej1LVFjXut+40yS6gnqu+XNWnSREyYMEG14njS70K98I8++ki1YmAY+IABA8SHH36o1gjZRqlAlDtAjUgNJpvE0FOUxNFDPw11KwPt9OnT8rNE2QX0dfHaONdOzPkQvtP79++XfXpMVujvuQhFpzZt2oivvvpKtYQsNYnh+Br0n/Gbw6RtRl988YU857YK6tKihIS2v8Gkr3Xq1JG3KXQwMba78mGYjwElcbQYBeIVDz30kNs4BY51+E7hu4PylGbQV0OdeTwe4hTGmA4eA+W49HEK1OVGmR4cs8yg3vGcOXNUy3eomfzmm2+qVpxevXqJrl27qhaRZ1D+GOV5cH6D3w32fZjjIxhQVk8rLYzJhdG/slMN+99++00899xzsf1jKFOmjPydWxrndT5BWMiUKVPsVQD94jxoqnsEjvNEIPb5nDtTtdY/zpMQl78Di/OEXWYBXbx4Ud3LO5MmTYr3mNriz1DgrVu3yix942N+8MEH6h7+cZ7sxHtsLPPmzVP3IG9gdIJz5xrVGVO4gq99j3CllUMpicLXv//+K0tE6I8PnixWZwyQfWFovva5t2jRQq21H5QayZ07t8v31HkyorbGQMkB/Xb98uyzz6p7JWzu3LmOChUqxPv3yGzTyhx8/fXXch1GTQGyvpF1jmxQ/b9BFt3o0aNlRmAw1KhRI/a50f+mOAsWLIh9b1CWwpOSOER627dvjze6GuVH9Pr27euyXb/07NlT3csa7dq1i31s9NfJHsyy/8uUKeOYMmWKz+eXAwcOjPeY2vLZZ5+pe3kPZdxefPHFeI/ZuXNndQ//YHSE8bGxoDoAeQ/HLeyH7DxKL9C0EXhYXn/9dbU2OKpXrx773B999JFaG3qXL1+W/U3ttWF55plnHOfOnVP3sE5YBMBRB9p4sNYW7EwDac6cObHPheEC+/btU1t8hxOgLFmyxD4u/jbUBHJXg9FTn3zySexjGhd/hzkggIjgv/4xv/rqK7XVP7/99pvL42LBe4LAOHmnT58+sUPWUBLo8OHDakt0uX79uiNv3ryx3ycExIkofM2aNSv29+zNgoARRbYRI0bEft5IlrBz3+Gbb75x+X5iMfalcBw33kdbUDrFGzjJRAKEfig7bk+YMEGWMkAbCRmo/160aNHY+6AP9uqrrzp+/PFHtzXEA0GfyHHPPfc4jh49qraQ5rXXXot9j2rXrq3WEnlGn9SlLUh00kP5B+N9tOWHH35Q9/Lfr7/+GlteFP/HxT8KPQSi0qZNG/uZoxRWv379/D4WvPPOO7GPaVyOHDmi7uUbXMA1XvRFsN4KCxcudHlcLKlTp5bnmuQdXJRAmUK8h6VKlXKcOnVKbYkuSFZ86KGHYr9Po0aNUlsC78CBAy7l9ZYsWaK2hA5q6SMZRHtNWF555RVZtiUQwiIArs94MC646hcox48fd9x///2xz9W+fXu1xT/aSYe2TJ8+XW3xT5EiRVweV1tQT80KCP4nS5Ys9nGt+sGYTQaKGvDknalTp8Z7H4M9wYKd6C9eofNm11pXROQZY21jTxZMHBitFwKjATKz9CfqmAjZzjBqUf/9xGIMPrkLgCNAtGfPHnUv71y6dEmeYKGetvZ4Wp8RGTda1jeC4+g3+Po8/sBJmT5QzwvX5vCd14KGWL799lu1hShhJ06ciDfCA/NtGbkLgOfLl8+yC2IY7ayvr8zRHvaB+ZO0zwX7GszJYAVMSqk9rn7BMcgKmLRZ/7jr1q1TW/xjNhko5tYg72BSbuP72KNHD7U1+qDqg/Y+ICCNPlCw6OdXQpzQ1+oTVkCSbf369WNfDxZcLAvkZN9hEQB3l9mMIdGBLG3QvHnz2OfC5D/+Tnypee+992If19tsHnfOnDnjNksew5isgqxi7XGtyIYHZBnpXy8Wf0q2RCtM+mV8HzG0MFph34DOuvZeBHuIERFZC8Nun3jiCZd9nCcLJtZmGaTIpC+XkStXroB2mP2FPpP+e4klffr08QJK//33n8x+1t8PyQdWJUsg67JKlSouj//oo4/KTHoEykNFfwKEoFywSq6EI/33HpPJI3uKKDH6gIu2YDi8kT4Aqi3IVsSIEqt8/vnnsY+dMmVKvzOAyTr6EglffPGFWuufvXv3xj6mccGkd1bBsUN7XFQQsAJKv+hfLxaUCyPvoJ9hfB9RbilaYQSBPgs8mBcBkeSrTTyMBfvjUED1i3r16sW+DiQsDhkyRG0NnKTOJ7M9dxP+oEh60qSB+RMOHz7sMgFR48aNRYYMGVTLd85Oqpg3b568jUl++vXrJ2/7C5NqOj9P1XJl5SQ5eM2AgvnOk0152x937twRq1evVq04mOiJPIcJtDZt2qRacYoWLapuRR/sGz799FPVEmLhwoVyUjwiCk+YIBoTZHk7YQuOj5isiCILJrqcP3++agnRsmXLgE2GboVFixapW3FwjE5imNQ8Z86cYu3ataJBgwbi6aeflhNibty4UThPEtQ9fIfJ3HEsxERDephEFMdHTM4UCrt37xYzZsxQLSE++OADW03MZDft2rVTt4TYt2+f6YSpREb47RuVKFFC3YpTt25dOQnia6+9Jp555hnx+eefi7/++ktOMG+F8+fPiyFDhqiWkBMMZs2aVbUolC5evBg7ISriLJ06dZK3/ZXQ5M2BiFNgcsGMGTPK2/64fPmy+PPPP1UrDuMU3sHkzf/++69qxYnmOAUmfkW/VTN16lSxY8cO1QqsBx98UPYxNZgU+cyZM6oVHIgB1q9fX3zzzTeyjde0bNky0apVK9kOqJg4uH2h8Ll+qJ9+CWT9b1yN1J4Hz+/84aot/nGeAMU+7uzZs9Va/6GIvfa4xsXKK/aY+BKPiWG0VsDwJOPrxYJheuS577//3vR9jPah/8gg09fbx7BOIgpvKOWg3895siCDFpmvFDn0WWoog2L3CQHNRrsFa6JW50mFnMxc609juG2jRo3kbUwgiixi7TWVKFHCMX78+KBOpP3222/HPj9KNBw7dkxtIXfKli0b+55ly5aNGfOUIEw4p9Xe1S84Lw02ZM/qX8P69evVFgo11M3WPpcVK1aotf7T7+ONi5Xn/LVq1ZKPiZF/VkDNe+PrxYiFYB4fI4F+fg9tQbZvKEed2QEqOOj3yzVr1lRbAm/Hjh0u1SPatm2rtgQeRq1hDhPtuTHKIpgxK9tngK9atUrcvXtXtVxZecVQ78iRIy7ZFM6TFvHoo4+qln++/fZb+f9ChQoJ55dc3raCuyuruJpi1RV7cHaw5f8LFCgg/++vlStXqltx8NgPPPCAapEnkOFolDdvXuE8KVKt6IQMsmbNmqlWzPft999/Vy0iCkf4Tb/xxhuq5RlkGjhPwMTZs2fVGgpnW7Zsccn+RhZJpkyZVMt+nP3teFnXYJZ9aRX018aNGyf7my+99JL4/vvvZX8aWeXI5qxRo4a8X44cOeT7+dFHH8lsdIwmQ9Y5+g8YRbV37155v0DZs2ePS/a386RIZu9Rwtq0aaNuxZy3TJ48WbWI4tu8ebO4cuWKasUJ5D7IDDKM9dnfpUuXFk899ZRqUahhlB2UK1dOlC9fXt62gtl5KiBGYeU5fzDiFPi+YkQiec7s8y9ZsqS45557VCs63XfffaJRo0aqJeTIm507d6pWYOE3ghinZvTo0bKiQKChGgZG/cyePVu2P/zwQ/n9CGbMyvYBcHeB3XvvvVcUL15ctaw1cuRIcfPmTdUS8qTACtevX5cnIPDZZ5/FG/bqKwxZcDds1eqLBBcuXJD/t+rAYvb5cliR98wOLFZ2XMIZgl56AwYMULeIKFyNHz9elorwBkqbvffee6pF4Wzw4MHqVgyr+mmBguG/Wv9JLxD9WPRfu3TpIgPbKCXyzz//yPW4IIzj35o1a0T+/PnFsWPH5Prjx4+LtGnTimHDhsk+WZ48eeR6nAjhfcZ9K1euHLDyKEOHDnVJdLH7Z2kXVapUcRnij8/KXcIQkVmZRCRJPfzww6oVHBMnTnTZF/L3bh9IEPj555/l7e7du8v/WwEXUdH/MmP1uSrjFPbEOIV7+jgFkiUGDRqkWoGnf25cIEUQPJAQ/K5Tp44M9CdLlkyMGjVKPmfKlCnVPdz76aefZJkYswu53rJ9ANzsyhsEqv63ljGjQU2yihUrqpZ/UFPr0qVL8mpnrVq11Fr/YaeCH4wZqwPgqNsGjz32mPy/P27fvi1PxIx4YPEOsimQzWXEA0sMnLwXK1ZMtYS8CBXojDYiCixk+6JuHDpQ3sDvf8SIEapF4ejkyZMuGcPIYESWs52ZBZ/Q4bdyhJ6ma9euok+fPi71HJFliQzQtm3bxvadUfcbtEA4IOtPnw0O6F/++OOP4vXXX5dtKyFYMWXKFNWKOV6XKVNGtSgh+P5Ur15dtWLqqC9YsEC1iFzZYZ4gXKAZPny4agmRLl06S0dDk38QlEKAqmzZsqJChQpqrf/cxXLAznEKxGww/4YR4xTeOXTokGn970BVcgg36PM88sgjqhVTC/zEiROqFVjo1+lHM2D/rE8CthIeF/t7jN7Evh/nY/pR+olp0aKFzJZPnjy5WuM7WwfAkX2CjriZQP1ocEKtP2moWrWqZZnaWvkTTKhp1WNCMA8s2g7MiiurmFQCk0sY8cDiHQyrxvB+Ix5Y4uBqowYd8DFjxqgWEYUrbXIubyEIiAkUKTwhSeHGjRuqJUS1atXULfsyCz498cQTAZm0U58FjEmW+vbtK/sJxn6bFvhG+Qw9fTa4frLzQGQXIxtU3w8Mh8/STvR9G8AIViIzZvsgfXJIMCxevFiOhtG8/PLLnOzWRrTyJ02bNpX/t4q70fxg9bkqJnoGK+IUq1evjnd+jeAbLhCQ58yyv9H3efbZZ1WLUPpNg/4t+kbBgBI0+jIoGBE4Z84c1bIO/iaUrsREzBh5hO8EJln2FEanYMLv3Llzy36tv2wdAA9F/W8tSK2xqjOOdP1FixbJzBsrZvLXc3dgQQ1FKw4AGly50YYwWXFl1Sxwj7rVnAncO2YHFnw+wR7WaGeoNaU3b948dYuIwlnnzp29Hu2CjljdunUtGUZHwReoflogBTP7skePHvKYV6lSJfm8HTp0MB0poWWAI6MeI/KMkA2OrHFk6OBEFdmBVgvHz9JOMEIVNUQ1OB/QMiCJNDh/MythFOwMcP7e7QvHAZyXIxvU6qx8s/NUwEXgLFmyqJb/8Dfggiouqugzan1lFqdg3WrvmX3+Tz75pMwCphjGi9n6OW4CzRgjsfq5UQIac87gAihGPf7xxx/yd+QNXIzCaETsM6xg6wC4u8Au6n8H4qo1Sknof6Tp06e3bAgQgt9Xr16Vj2dlYPL06dOx9R2NrM6kxlVVXJBAgBrvjb/MPl9mf3vP7MDC7G9XuGJYuHBh1YqpxxqoeqZEFDy4qDxt2jRx//33qzWewSQzrD0afrDv1vd5kKEc7CCOL4IZAMdJJQJNKFuS0MmClgGOfp2+DIoe+tuo0YiTD29PWBKDTKMNGzaolpAToWGCTvIcsuj02Vu4kLFkyRLVIoqB/q7ZsPZg7jvx3UQpUA0uynmTAUiB9d1338lsZ4x8t+IcX4NJjo2jjDRWn6tqowvy5ctnSZlcximsYRanYJlWV5hYVZ8Air6RlqQQaOhD6EcjYj9tVRkUlJbGhU48JpIqMBpRP7LQU+iDQlQHwANV/xsfDmpfaTA0y5Oi7J5AaRVo0KCB/L9VsFMJVv1vbVZaK7K/8T7jR2DEA4t3kMGIUjJGPLDEh/2GnjYhLRGFN3QaJ02apFqew7/R15Im+zPWOA5EXWqrHTx4UCYrGIU6cK8/ucJrDDYMhdX3XzGpYyD69pHO2LcJZuYYhQezC3AYRm7F+ZynEMBAaVMNSphlzpxZtSjUtDhF/fr15f+tEswyrVbGKTA/BUZAGSGIR57DhW5cBDFiol58+mM5+kbBmtMDSROYS0eD2vcrVqxQLd8h+I0+OiavfOutt+QEu5i/yVO4aIqLWkuXLo0tCRPxAfBQ1P82ftGsCsYiSIngOr5gqH9jpVDU/9Zn0voKV7bMhp/zwOKdtWvXmg5d5oElPgbAiSIXgmetWrVSLc99+OGHsq4chYdA9dMCySz4BKEMgCPrG8PFNThJDbZw/CztyNi3wcmiVdlbFBnM9kEFCxa0ZDIxT/H3bl8YAYSkNIzCqVy5slprDXfJjGD1uaqWAW7FpNhm9b9xgZZ1q71jlv2NbGNcACNXoYxTWP3cqHqBET7Lly+XbZSezZgxoyyx5OmCUkZ58uQRr7zySuzF04gPgAe7/rdxaBaUKlVK3fIPPsQ2bdqI8ePHW143yt2BBWVWClhY/xtQv+fdd98Vn3zyiVrjO7PAPep1WVGzK5rgd2KE+kqYYIBcGXfuyJwP1vAiIgq8/v37i+LFi6uWZ1D6DJkJ+tFfZE+obawNg9RY1U8LJLPgU/bs2UOa/Yg+rz772l1/O1BwcqSdGGnC4bO0I/T59CWgrMreosgRzBJM7hgD4Py92wfmEUACwYQJEyy/KOIuToELMFbW/wbM7YI4RfPmzdUa35nFKVB+F0E88pxZABy/fUy2Ta6McQocx3E8Dwbjc2N/7a7CRGKQ4IqyKvrfEOqAe7sYL0AlSZLEsthmEucf59tfF2AIsg4ZMkS14qAe4ZkzZywfJokPSV/vG6VP8KWzqgRKIJw6dUoGOs0+QhwE7Dy0GxP3LFu2TLViNGzYUEyZMkW1XOHKDz6j7du3yx8WPn/UKCtSpIic6CmYWQzu4HPAMJ+NGzfK/+MED68LB0vsWMqUKaPuaR1kzBsDApiwCjU7QwF13pB9dOjQIbnz0uro42/HjivUUAtcG8kAo0ePlhmgRBQZdu/eLWsVYyIkb7Rt21YMGDBAtciOMET77bffVq2YC/3hcBEToxMw+Y8eMmMwN0woTZ8+XfTq1Uu8+OKLYtCgQTLbJliQXVS9enXVErKfhH5eqPoJ6K+hZvrWrVvlbYzYRLADJ+reJBRgqC+CjbhYgxN89FFR2zNbtmzqHoGBBBV96RP0a9C/IUIQAX1xDEfXwzm2L6OmfIF5G4xZuSdOnJAZx6GAC944p8RoZJzroxwMRjfj954zZ051r8StW7dOBviw70JWK7IT8XtH1iIJsWvXLrcBqxYtWogRI0aolv2gH2m8cITY1FdffaVarhCTQcASfzN+azj/x+8Oj4OypHYo74UL3Xh9SABDtjxeJ+JciK3hNXqbQOIJXOhA7EavS5cuonfv3qoVXIgB4DiNUQ+YEB9/O2JS+hIgoYLPB4kR+omsZ82aJWrXrq1agXP27Fl5IV0fU1y/fr3cn3kD514IfhtjU1ZA7XB9DMcftg2Ao+P5999/q1YcTM4QiCEB+DH26dNHtWKK0eODtzNMWOHuRzFmzBjxwQcfqJa9YGgmagDhJEMPV57fe+891Yq5WoSDIyZzQh0udxlK2FnUqlVL/r2B2HknBFlUOIlFbSJkY6NmmDv44WKW3/bt2yea+YWhaGPHjo33HhmhhqZxqCt+Owl1vnCi2bRpU8sC8jjoDx8+XF4tNPvNQo4cOWSnAZ9TKNWrV8/lwhA+j5kzZ6oWEUWCr7/+Wrzzzjuq5RkE3jB5nNXDf8k66B/oa70Hqj/oLQRNhw0bFjtE0wh1DzHSQA8XYxPqr2A0XMeOHS3PkLMLTECrD34gCG9MiggGTA7YtWtXeUJsDBACgha46NKzZ0+3Ezehb4qLCbiAhu+CGSQC4ByjdOnSao21+vXrJ78vGtTA1erhUuTDxQ/0Zc1GMuFcyngBDjDhrH7SNT1873Ee3K5dO7XGP0OHDhWtW7dWrZj924EDB1QreJCcg987jhvuztcQvMFvNaEMebyfffv2FWvWrFFrXOE87IsvvnCZoNYbuLCLUeM7duyQnxGOfQgkhhucx7pLMpo9e3bIzwndQQAS5+nGuAN+Z5jQT4NgH85t58yZI/f97kJqDz30kIzX4L2wqoSDpxAjmDt3rpg8ebIsm5pQRnH+/PllAiV+94lVLEC/BkmL2L8kBO+NES40IS7gDkYkIIsfvyMrHD58WMYpEK8xBuM1iJugTxLqcwDMP4j+iCaYSY3oNyCJSIN+BWJW3kAfXR/LsxL2p2bHMp8gAG43Z86ccThPRrEXibc4dzTqXtZyvqkuz9OiRQu1xb6cOweX16xfnB1fdS/7Wb16telr3rt3r9zuPOA4nDtVh3PnKNenTp3aUbNmTcfAgQMdzhMkx7p16+T/nT8wR7JkyWL/Pe7n3LnJxwg0fEe7dOniePjhh2OfH0vOnDkdjRs3dnz77beOP/74Q/6tEyZMcLz00kuxrzVfvnyxf6s7zo6ny+NavbRs2VI9k+9u3Ljh6N+/vyNDhgyxj5sqVSpHw4YNHc4dlPz7Fy5cKD8nrMf2Vq1aqX8dY/DgwY5s2bI5MmXK5HB2JtXawOnevXvsa8VSoEABtYWIIkn9+vVdfuueLA888IDj2LFj6hHIbooXL+7yefXu3VttCS3nCbHL67JqcZ5gqmeIPM8++6zL39qxY0e1JTiuXbsmnzNFihTy+R999FFHp06dHMuXL5d9F/TbypYtG/v6UqZM6fj666/Vv46DflCdOnXkfbJkySL7OM6TV8f69esd8+fPd/Ts2dPle9ujRw/1L601d+7c2OfAgv7m1atX1VaKdGnSpHH5/K1Y8B26c+eOegb/vPvuuy6PXbt2bbUlOPB3IH5wzz33yOfHsR7nQT/88IM8p5wxY4ajSpUqsa8PMQj8ds20a9dO3gePhfMbnOfg975kyRJHv379HOXLl499nAYNGqh/5Tns980+z6FDh6p7hI+6devG+zuw4P09efKkupf9fP/996avGef+cOvWLcfo0aMdDz74oNyWLl06x5tvvukYMmSIY8WKFfI79eOPP8q/Xx/PSp8+vePXX3+VjxFoR48edbRp08Zx//33xz4/lty5czs++OADx+zZs+WxDq8Hf8tzzz0X+1qLFSvmOHLkiHokc3gc/eNavXz22WfqmXyHY+Dnn3/uSJs2bezj4nbTpk3lbx9/P46db7/9tiN58uTy78f9NYhH9erVS37OeB/HjBmjtgQO9kv69+GZZ55RWwJPvw/EgvfFW9iX4jUHYrFyH2jLAPi8efNcPgD9smnTJnUva2XPnt3lecLhQPPEE0+4vGZtQVDWzrAzMb5mBEHhypUrjtdff12uQ1AUQeYTJ07IbWZwoNEfXHAy891336mt1sPOECdGxgMKAtY44CXkzz//lJ0u3B//fvfu3WpLfPj+lSlTxlGyZEm3S+bMmV1eA5aMGTOa3le/vPbaa46tW7eqZ/INAvt58uRxee5GjRq57dDgIKNdLNAuYo0bN87l32NBBzKQvvnmG5fnQwcfJ8JEFFkuXbrkyJs3r8vv3ZMFFyuxnyd7wQmndiFVW3ACZweTJ0+WwVKz4y0ueOtfs7YgKGp2f23BCdr169fVM0Qe9FX078ekSZPUlsC7ePGi4/nnn5fP+9BDDzmWLl2qtrjCd04fuEP/EsFtDU6uK1WqJLchoG/WV8Vzde3aVQZIcD/0VxEYsdo///wT+zq1BX1Oig4ff/yxPA8x25doQTr9gu+j2X21pXTp0paeB5coUcLl+fGbCBb8juvVqyefF0HrqVOnOm7fvq22ukLwS/86cZ6iQb8AAW+sR/KM2TkcLogNGjQo9lwPC4KLnjp16pRLsM644NwrnGD/avZ3FCxYUN3Dnlq3bh3vNRcpUkRuO3funOOFF16Q6/A5I6ahBcbNzJkzx+Vx8PnqjyNWw3d72LBhLslpWMqVK+fYsmWLupe5X375JfbYjLgYguju4O8uVaqU6f5DW4zHeSz33Xef6X31S/Xq1RNNFEwMjutaIqW24AL12bNn1T1cIbESrw33QxImIDFP/++x/P7773JboAwfPtzl+fA5BgsumOifu3DhwmpL5LFlABxfUP0HoC0IiFp1NVoPPwbjcyEIb2foaBtfs7bgiqOdVahQId5rRufk+PHjsZnPyKhJ6ICih8Cr/rFwhRWBdKshq96YtYTnwoHG0+/lrl27ZCYR/i1etz9w4NG/Fiw4aAfatGnTYv8GLAgiI5M7Mfv375cBDFxlXbNmjWmGw8SJE9W9AwMnhMbn3Lhxo9pKRJEEv3f9vsrTpU+fPuoRyC62bdsW73PChVW7Gz9+fLzXjb5sNDtw4EC89wQnn8GA4IXWd0J/LqETfLhw4UJs8BoL+nz4LsKHH34o16G/isCX0Z49exxZs2aN/bfagpN7q+H5kyZN6vI8ge5PUXhAZqr+e4EF39lgQUDOePFy7Nixamtg3bx5M3aEDoLW27dvV1vMIcitz2zF+Y0WrMQoZKxDJuL58+flOj2csxYqVCj232oL1nkKo2qN/16/vPXWW+qe9rdjxw7TvwGL3UfZIwPa+Jo/+ugjeezSkg8x2huJFp6oWrWqy2MhIczdRRh/bN68Od7FJgR1kbjnaWLHhg0bYhML27Ztq9b6xiwJxd3ICiuNGjVK/na158R5gCfHw7///lseRxGf+O2331weQ1swOiCQcIHc+Jz43gUD9sv658VFf+xDI5EtA+BFixZ1+QC0BTuQQMAVL+Nz2T1zYubMmfFes7YEq2PhC3TSzQKfGMqMHSV2ugMGDFD39syCBQviPZ7ZUFV/YIjQvffe6/IcuLKdWGfKDIbE4d9jh3z48GG11jvIKkIgWf96sGDIbSBh+K7++fB5YfiQpzDsCv/OOOJCWxK7Ou0vvG/G5wxm5hkRBReysYy/+cQW7FvXrl2rHoHswDh6B0tiwUs7wIm+8XUjeyyamfXZEhoRZ6UaNWrI50MCAjJDPaFlfWoLgofa34CReGYZZUiKcDdKM3/+/Ope1jIOSf/kk0/UFopm+L7pvxdYgnmR12x0AsoPBAMCeHi+ihUrehysxHujf60IKP7111/ynA0BIXclRjG6Vv/vtAVBNE9h5I/ZY2gLksTCBTLfzf4GLHYZvWUGFzL0I8u1BX1JXNDE56kfGeAJnGcaHw+lQq2Ex9NfrMWC0l6+BE+17zIu+Jpd7PHEoUOHXF6LtqxatUrdw3o47uK4p38+/GZR2sxTKM+Ef+cuTuFr3MZTZgkC6G8Eg1k8NNBxmVCx3SSYZrOQajDRAGbgtRoK43/88ceqFePkyZO2nnwIkwO4m+EdM/xiIgM7wkSRzz//vGrFefjhh+WMvJ9//rno3r27WusZTBZinGEfEw45d3iq5R9MNlq/fn05W7AGk5JgtmdMGOAtTL5SvXp1eXvevHmxt72BydqcByjVioFJa06fPi0nGA0ETLCECRH0unXrJieH8pRzxy7y5csnJw81wqQXeP3OjodaExj47PBd0yQ0q3coLF26VE6Aof++hSN8jiVLlpQTiDlPHNRaouBCXwL7SucJt1rjGUx45zzplZMGU+h16tRJTjqmwT4Fky8F+njhr2effVZOaq1nt2NOsGFyOExEp8FniAm/U6dOrdYExsiRI0XLli1FkSJF5CT3qVKlUlsShgmoWrRooVpCJEuWTE5qduTIEbkNk1QZ/fjjj24n0ypRooTYuHGjalnnlVdekf0HTagmFiX7wCR9OIbdNUzmh+NhsCZ7+/bbb8Vbb72lWjH++eefgE8GiN8CJk178MEH5QSFiC14Av1vTESnh0k7//vvP/Hpp5+KQYMGqbVx9u7dK89tzGTIkMHthJtGvXv3ludV7rzxxhumkwraESZTxMSsRtjfI8bi6ecRbJjoskaNGqoVR4tTYMJrTOLsDXz/cNzRwwSgmAjUChMmTJATbOrPrTGp48qVKxOcbNKdiRMnisaNG8vbiNs899xz8rY3pk2bJho0aKBaMdKkSSMnGA3UOeH7778v/ve//6lWjCFDhohWrVqpVuL+/vtvt5Nv4j3Fbz2QcM6SNm1al8lFsV/o0qWLagUOvt+Ikejhc8R5fMRBANxOQlH/WxvGqC3IULa7xx9/3OU1awuuTtqZMYNYv/haugV1GI2PhQw+K+CqrXFYKa7+JlbvOyH64S3Tp09Xa72jZTXoFwzZChTUwzI+n7Pz7FNJonfeeSfeY2FBZlYwGCdSQw1Pu8CQK/1ri4QlGJObEiUEcxNocxB4szhPUNQjUKgZhxAj29XucHzUJl3TL1p9yWil1ePVFtRRDTQMbcZE6Vi8nQMFNd71r1dbUMfW3TB2TIZm9m+wBGryVuNEgxilSNHNXZ8ymJM9d+vWLd7ze5qN7Sv8fVodbm+zzVFn2/h6sWC0h7ts2EWLFpn+Gyz4XXoKEw8iY9XscbAEYv6AQDGrPY/Fm5IwoYB6+mavG0vz5s3Vvbxjlg1t1XEP82oZHxvHOZSg8ZV+xJ27OTISYxw5hQUlcAMFpViNz+drySDjZJDagrI3wZAzZ06X5w1W6SP0WZMYRj9gcvBIlNT5x9nKL7/8om65QlZr0aJFVctaJ06cULdiZM+eXd2yJ7xe545NtVyZZVfbCa5GmsFVNVzB9IX+KpkGV0GvXbumWr5Bhg6uqBozJ5CJVqpUKdXy3qlTp9Qt4XOmvtn7WL58eXXLWr///ru8qqqHjAbnSbzMOvdWnTp11C1XyNoPBmSa6x0/flzdCj3jdy0SROLfROEFo7mmTp3q9f4Ko3/GjRunWhRKxn6aL1lNwYZMIWRgGhUvXlzdik6h+CyRuYm+Yo8ePUShQoXUWs+4y95Ehhyywc24y25FdpVZxrgVjH0b9DV5/I1umzdvVrfiYPQClmAx/t7vvfdecc8996hWYGA0MbKMmzZt6nWmu7vf+5tvvul2RBiyv5MnT65acdKnTy86dOigWonD/uGbb74xfSxkhleqVEm17A0xCuPnrnnhhRfULXtyF4dCDGro0KGq5R2zOMWlS5fULd8hFtCuXTvVitOnTx9RoEAB1fJeuMUpMNqjbdu2qhUD+7ixY8eqlneiNU6BcyTjPs5OMRIr2a4ECnYwW7ZsUa04VatWlaUjAgFDO9asWaNa9h82iCFFGFpkBj92Y7DSLlDSAR0fswMByon4umPct2+fyJs3r2rFwfN4OsTVCEN0MEz133//VWtiYAjTn3/+KVKkSKHWeA9D8jD8EENcUPLH29eI15Y5c+Z4Jzb4feB3YiWUJMHJorEjg6Ho3nTq9NyVwQnGkEjAgU0/7AwdTgxltouFCxfKIZhmv5NwggPpk08+KRo2bOjz75DISp07dxZffvmlankGQzY3bNggChYsqNZQKOAi+f79+1VLyKG1X3/9tWrZ06xZs2TQRA/7QgTFzQIc0cLYz8dw87lz56qW9fBceE4MuUcZA/S9vPHZZ5+JXr16qVYMDOM/ePBgggkz7du3FwMHDowt6YhyOAhuBSrgbywtA+jDob9I0QkB4PHjx6tWDASEvS0J5g+U7UC5Rw3Oo1BmIFDOnDkjf2NIhMJFyJw5c6otnkFyz7vvvqtacRAYTSjJDOWQWrduLW7duiXb6DNMnz7dp+Q9BJBRsgn/xzlKkyZNbJ/gpocSrSjVagaJBTVr1lQte8F3BwkTxtAYjtfr1q2TcQFfoORW6dKlVStGunTpTC+QewqBSVxMNwYoEdP69ddf/SoPh9eK1/zAAw+4vZCREBxnUUbQaPXq1fI4aCUch7FPMV64QvIK9n++cFcGByVCgnHxEHFIxMU0hQsXNo2NBoKxr/3666+LBQsWqFYEQQDcLtxNPIAFQzwCBTND65+rYcOGaos9GUu26Jddu3ape9nPypUrTV+z88Cu7uEbTKZhfEwM//EHZuk3PiYW5wmtuodvMBmM9h33dYIizEBsfF0o03Lu3Dl1D+uYTciSKVMmh/Ogre7hPbNhSsEcqmv8/aRKlUptIaJIhknvnn76aZffvycLhuyi1BaFToYMGVw+k44dO6ot9oXXqH/NWEqWLKm2Ri+U6tO/Jy1btlRbAkMru9arVy+1xjtmk9thP+KJffv2OZYsWeJ24jwrjRo1Kt7rDMbzkn1hf2P8TgR7SPtzzz3n8vyvvPKK2hIY+J3jefC790WrVq1cXi8WlPPwpOQjJmbG733z5s1qTXTCRMHG9xALzn9PnTql7mU/c+bMMX3dHTp0UPfwzZgxY+I9ZrZs2dRW7+G7iMm0jY+JxZsJH83oSwD5Wq7LbNLPtGnTOm7cuKHuYZ033ngj3nPlyJHD40muzXTt2jXeY6L0cLBoE3FqC0o4Bgsm2tU/t6d9nXBjqxIouGLlfE2q5SpQwyZAP9QDAj0Rj7/cDc/BVWK7Tn4JZq8bQy0GDBigWr7BVUojf7L1fv75Z3n1zwiToCCTwVe4suzskMnvOLIKkR3kC7P3ERkGyK63EjLdzcrSYNgvrlz7Sn9VUxPI37eRcWgRRiZYMRSNiOwNWTwzZszwel+5bdu2gEzATZ65efOmuHjxomrFsHs/DTCJqpG7yZWiCbKS9dAfChT07/Gbx2//gw8+UGs9h/7a2rVrVSuOp0Ohc+fOLSen9GXCdG8Z+zZgfK8peiADGscuo2Dvg4zfwUDuu+/cuSMzp0E/ca03jJMWA8p2eFJCDRMl4vce7ft5d3EKnJvbdfJLMCvbgdgKSur4wyxO4c+IZ4xidhcL8KdMB0ZDa1UEUHrY28k+NWbv49NPP2355JeI15iNHsPoA39G2Zm9/mCVPwHjsRzxo2AxPnek9iFsFQB3t8PEj9A4e65VUEbi3LlzqhXDn/IWgYahLjt37lQtV3avq2W2Q8HM4P4GbjE83Qg7Wl+5GyKPA4G7eo+JwXAgDEtCUBk7Zcyw7OswGrP30eoAMk76WrZsaVo/0jik2xvonKIEilEoDyzAk0Si6IALmcZZ4j2B8mIYukvBZ7Z/tnM/TWNWfzfa639jmDIuaOj5c6KaGAQA8XzoI2Fou7e2b98e7xwB7FiOgH0b0kP5DCR4GAV7H2RMMgvkvvvo0aPyPPnRRx8VTz31lFrruStXrpheuAyn8iOhhn0m6q+bCcf6340aNfL7oo3VcQqUITWDEjy+2rVrlyxPgv0G/t5p06bJ+b58EYw4BUoNffzxx6rlyp84BfYBZhcsQhmnMEsCCRQGwEPAXQC8XLlyPk225wnUXzIG+ex8YuXuPQI7H1hQzxj1s4z8rQWFzw6TVRr5emDBazTbceME7b333lMtz6FeFHbQmIwCBxVc/Zw1a5bbGu6JQc1ws9p5Vn/2qCdu9nmhU4m6zr5CQMBsgplgHljMft/uJr0hoshTq1Ytn+bKQD1BXMyk4DLr+Ns9AI4gjFntzGjPDAz2Z4kg2JAhQ8TgwYPVGu+YZYPi9ZYtW1a17MMsuw5zxlB0MrsAh8knzeZMCiTjbz6Qv3dkYI8ZM8bn+SFw3oPMeSMGwD2XUJwimKN9vYULNZiLysjfOAUCqrgoYOTrMQT1+80u0mDCVSQVeuvAgQOyb4s607iNOTIwFxXmK/MF5mU7dOiQasWxOk6B37hZQmjJkiVlrMJXOOZrdfw1iEEGM8Zmto8M1rHc+NyRGh+xTQAcgb2tW7eqlqtAfumQkWoUyGwUf4VrABxDSM0yEXBxwx+4qmpWvsLXALi7q6o4UGEkQmKw08SEqj169JB/GyaBGD58uLwAgCD44sWLTSdW8JRZmSDsmP19H40weYQZBI78YXZxAe8RhgkHi1kWv1mHlyITOriY5MOuS/fu3dUrpUBCUMzbUlnogNarV890ZAwFTrj108As+IRjtS8TokUSs88ykAExBPxatWrlc1k8swA4kgD8KQMXKHbs26Df36xZM1kCBkGJcFrwnenUqZPb0px2ZxYkw/7Hn8nxfGH8zQdy343HRqkjX4OWZr93TAQYjAn6I4XZeR7ge2fnCwlm59f4Pvl7sROPa/wN4L0wTorpKXdxipdeeklOsp0Y7JPxGWHCZMRK8uXLJyfKRfwC1RZ++ukn+Vi+Mvv8EVQvVaqUalnDXZyidu3a6pZvzF4/9ptmI6wCJZTHcuNz43wnXI+BCXL+UbYwd+5cvLumSyAnk8BkDMbns/PkSs5OZLzXi8WfyRSCoVu3bvFec/78+dVW35lNMoUJlnxx7do1h/NELN7jYXEeJOSkCPoFk2I0btzYUa1aNcczzzwjPxvnSZHLv8OEHy+88ILjm2++8WgClcR89NFHLo+PpUSJEmqrNQ4ePCgn1TQ+D5Z169ape/kGk98YH7NRo0Zqa3CMHj063mvw9++i8LFx48Z4n7+dlmbNmqlXSoG2detWR5o0aUw/h4SWefPmqUegYNiyZUu8z2DYsGFqqz316dMn3mt2nmiqrdELk0Ia35cvv/xSbbWf3Llzx3u9dj1HWLt2bbzXOm7cOLU1NDBxvPE1hdvy+++/q78mvODcw/i3tGjRQm0NHuNrwHmTXVWqVCne661Vq5baSp7IkiVLvPcQS+HChdU97Am/DeNrxrm/v5o2bRrvcTGxui9OnjwZ77G0pUKFCvHiFO3bt5fn2K+//rr8W9AHSZ06tcu/w/n+yy+/LCcAvXv3rnom37399tsuj4/lpZdeUlutYdYn1Ja9e/eqe/mmdOnS8R6zTZs2amtwYPJR42vYs2eP2hpYTZo0iffct2/fVlsjh20ywN1dMQxk/W8wuxJu1+wulNNAjSYzdh+eZfb5WvGazSardO7o1S3voD63cdiLxtkBFs4dksvSr18/gUkiUS4EGe6YpACZzBg2hCxODFNC7ST87RiWhOwvf5m9j1Zn/qM+udlvABOX+FJTT4Orl6tXr1atOMEsfwJmGWjBzoghotBznoSIr776SrU8E+g+CcUXTv00Det/mwunzxJlbPbv369aceza37Zj3wZZ1J5kJdoV9vfIBg9HZuUSQ7EPMn4H7fp7x+v6448/VCuOnUdX2w1GWBprvmvs/j4GIk6B79SCBQtUK46vcQrEItxZsWJFvDhF//79xaRJk2RJE3y3Uc4if/788vl79eolJ5FEBYalS5eKN954w5LjRTDiFO7m8UE2O0bS+grlmhALMoqmOEW0xEiSIAqubocUTijNSqBUq1bNNMhpFQxpNpa2+PTTT8WgQYNUyz4wkz2GX5vBUBDUcLKja9euyYkujRMfTZkyRTRs2FC1vLd7927TmfUxfKdixYqq5bkBAwaI9u3bq1acjBkzyoOHHnYGGCaCmosPPvigXAI5jBcQTMdQPONPFq+tSpUqquU/DPVDvXKjmjVr+jUJHA6+ZqVpMOs0ZtkOlqFDh8abKAR15EuUKKFaFMnQAURH0a5wES3ayyQEG/ZtZjPJG2EfjxOFYHeGox2OR8Yh6AMHDhRt2rRRLfvBidjevXtVKwYm2O7YsaNqRaeDBw/KiWj1UDLus88+Uy37QH/HOJwaQ+IxKSZKq9gNSiQaa+wioQGTuIUSzrNQWsJ4DmB3KHPzzDPP2LLcTWJQy9cscB+Kvi6Om/rh+w0aNPC5RncgoWSM2QUCxCZwsZwSN3LkSNGyZUvVcjVnzhwZZLUjTNqJ83gjf8+vEbA2K6GCICtqVXsL/Qck3xnlzJlTTlqpp8UpcAHyoYcekvGDQJeOcxeXwf7fynkz8FmZTbSKuX0wYb2vUKbW+HmH4piP/hAuUOj9+++/smRsoCEuN3XqVNWKYZNQsbUQAA+106dPy1IReDnGZfDgwepegXH9+vV4z/nxxx+rrfbi/GHHe63a4tzpqHvZz7Jly0xfM4bC+sN5EIj3mPfdd5/j1q1b6h7eqVGjRrzHw4KhQXaA4UnG1+Y8uDmcJxfqHv67cOGC29+is2Oj7uUbsyHhefPmVVuDZ8CAAfFex7Zt29RWIoo2Z8+edThPIOLtF4zL+PHj1b+gYHJ2/ON9FnYum3Hx4kXT4+gPP/yg7hG9zIZwY6i2HbVu3Treay1VqpTaaj8//fRTvNc7ffp0tZWiiVlZUZR4xDlvsGXIkMHldbz11ltqi72MGDHC5XViuf/++y0pCxEtatasGe89xILjIWI9djVz5sx4rxmlQc6cOaPu4RuUIDE+bq5cudRW75UrVy7e42GpV6+eukdooeSW8bWhNOzNmzfVPfx34MCBeM+hLd9++626l29Q6sT4mKE45puV9z127JjaGlh169Z1ed5UqVKpLZHFFiVQzCYe0AR6yAyujBmv7rsrgxFq7ibAzJYtm8w2siuz4TDITPB34kOUHjHCsB5fr3CaDXsBZIDYgVn5kGLFiskMdats2rTJ7W/R39m7zb4HoXhvzX7fKO9CRNEJo8C++eYb04lnNB06dBCNGzdWLQqmzJkzq1txQj25X0JQesDsOMoSKEJOJIXMND27fpbBGMptJfZtSGM2Aebjjz8eknI0xv23Xc+xzX7v5cqVi8jh/4GAY96qVatUyxUy6M2O43ZhFl/B8drfiQ/N4hT+ZMGHY5wCmd9WjpB39x6Av8dns32ArxPq+sOsTxSs349x/xypfQhbBMDdBXaDVWvT+OFev35d3bKPo0ePyqElZuxeV8vs8/VnhmE4ceKEaa02DGX3FYZpmilTpoy6FVpmBxarP3sMjzSD4UboPPsKQ1/NZle3QwAcnVs7d8yIKPCwL+rUqZNqucJxBeUrKDTSp08fL3CD0mp2ZRZ8whBksyHW0QYXmVAST8+OnyXq2G7ZskW14th5vh0GwEljNgcBEmZCIRzOsVGrOdwueNlNQvW//U2gCjSzz96XUqp6O3fuNJ23zdcAOPbvV69eVS1XjFPElG/1p4+FMidmfTc7xCmQ6BjoMrsaBsCDyF0AHB1NKyYOTEyWLFnUrRgINtuNu/cI7HyAxs56/fr1qhXnxRdfVLd8g6uqxolUUJ+pUqVKquU9dydhdsiuv3TpkumO2epOhdlzQKlSpdQt3+A7YHbgDsWVVWMHDSfjga6L5i3U+kLd23Be0PGzc5YmkR72T5i42AgT/6IeHrPAQsvYCbdjP03DCTATFg59bswTYcziR/A+FH0WT5kFn4zvNUUHs758qPZBxn035v2xG+yzMRmgkZ0veNmNWRBZY+c4BSY7RrDayN84xbx589StOA8//LDPtbDdBb8hb9686lboHD58WM49YBQucQqMXjDGlSAUAXDjsTyYQWjjc0dqH8Kn6DKCGosWLRLNmzcXb7/9tvjqq69MMw88cebMGbFt2zbVchWsHabxi4Ufsd2EawAcWb9m3w1/XzNmNTZ67bXX/BreZzbzLU54smfPrlqhg4k0jK8Pr+25555TLWu4y4L3dwIYs44RMuL8ySr31aFDh9StGHbauaMjhgsuKA+Eq9nhvBQoUEC+twl1ionsAJ1eTDBtzCzBxEKYwT9NmjRqDYVKOPTTNGYnaKHKvrSjcPgsly9frm7FQQAxQ4YMqmU/xr4NMAAefXBebfZdsEsGuB1/78uWLVO34mBkaOHChVWLEuMuToHkATtfSDB73ci29XfSxsmTJ6tbcWrUqOFzMoVZcBZQpsUOxyWz7G+UGEYSiZWCGafAuWwoRu6FMk5h5xiJlbwOgCNAg6s5qLU8evRoWTcTM/FjVmmzq6eJCWX9b43xww2nADiCs3a48ueO2Q4FMwT7s0PZvn27afmTN998U90yh4PRuHHjVCu+1KlTq1txcuTIYYvsYLMDi7cnY5jJHDNIm82crHGXBe9vJ9Dse5DQVWEc6Lt37y6zsKx28OBBdStGMK+sJgYXOvbu3ata4Q8dFcyiTmRn7du3j1erEftWzAiPC3UUeuHQTwNc8MdQcCNmgMcJh8/SLCDmayYbRkOh7xXov9N44orgg1m/liKbuwzJUAXAjb/306dPy7KIdmL2ey/nY/1vZFBizhB3yX2RKKH63zh/9LeWdiCZxVcQtE2bNq1qeW/NmjWmZWsTi1OMGjVKTJ8+XbVcuduX58qVS90KLbM4BbKnvYmhrFu3TnTt2lVcuHBBrYkvmHGKChUqqFvxYR/WuXNn+ZqtZjyWBytOgUTLY8eOqVYMO8VIrORVABwde1wRww/bCDv6wYMHq5bnfv75Z3XLFQ6Ywaj/DcbJGPHDu3z5smqFHoaL7dmzR7Vc2X14ltmBxd8LGxMnTlS34uAHWqVKFdWKDx2SJk2aiJ49e6o18WFiTiNkANqBFXW18Pf369fPdKiXxl3JIX+urKLeHwK7RgkdWFCKAJ+VWaa/v4wHFrPPPVQw5A515+xWksVX6JC88847qkVkP2PHjhWDBg1SrRgYXTNz5ky/M0rIOsZ+ml0D4Cj/dOPGDdWKwwzwOMbPEidc7rLbQmH//v2yDJmRrwHwbt26yb6XWT/OSsaL+3bq21DwmJVgQpDMWHs/WPLkyaNuxUCw1E5lULC/NpujyNffO2Ih/fv3Ny2BEakQA8KFDTN2HqUOZoFPf2MrZnEK/A4SGrWNOE+LFi3kd8cMRiKaJQ9GSpwC+4WGDRuKL774It55ul4g4hT47iJJ0CihOAXOETA30IwZM9Qaa6AvZNw/ButYjuc1VhuI1H6EVwFwZHubdQo17grTu4M3GcOLzaCcRbBqbpoF2u10cHaX/Q12PrBcuXJFbNiwQbXi+HNgQfkd1GM1QimehCYIQBYqvm8JTb6ZP39+dStOKGZMN8JVRrMrjN589jgwoQ43/saEaliaXaXHwQblLHyF4LfZpDcJdS61zO+nn35a/t8quHJs7KQF60KbJ5B1+tNPP8nXifcsnBecVGASsaJFi6q/jshe8Ftr2bKlasUZNmyYqFy5smqRHRj300hSuHjxomrZh1nwCZN42nmkXrAZP0v06zCxuV2YlT/B+Ygv/RHUbcVIEvx7f2uUJsYYNLBT34aCx25zEJh9D+10ARPBb7OsUl9LYMyePVv+3y4TEwaDWRBZY+c4BS6+mmVq+/OaEfuYNWuWasVBcDehuJY2CjGhOAVG0BvZYZQPKkCYjXzz5n1EPBCfBY6TCQWzzeIUmCQya9asquU9s2oU+KwSilcFKk6BShvG0sHBOpabXXiI1H6EVwFw1PpOiLdDXFBH3N3kN61atVK3As9s2ISdDs4JBcB9vUIdDBgpYDYJnj8BcAQszEp4NGrUSN0yp12Jr127tvy/GbMfuVkml1XQScWV2x9//FGtMffnn3/KgKKet/W/Bw4cKP/ftm3bBCeWNTu4YnJRf2YfNjuZROkeY1aInjYc0d9ZuI3CZeeODHBcfAnnJWXKlOqvIbIfdNbr1KkT7xiFvgfmNyF7sXs/TWMWfMIxJlgJHeEg2J8lknOmTZvmcUk1s3IIuIDhSwYtRrEhCI6ykQn1eazAADiB3eYgCPbvHSWHUEYCMQZjNqMZs987+rC+/H5wPocyhgULFrT8/MXO3MUpEgsihppZ4B7nX/7U/0a8AUFwPZx3JzYa1tc4hTE+YCWUtUEpWLOys3q4iGQMICN24E39by1OgfJBCTGLU2TKlEnd8o1ZnALvdUJxTew38P32d7JUI+NILgjWsdzsuSM1ic3jADgOIsjmSwiycL0xZswYdcsVsr+DebBGp9RY6ymh4RfB5u7Agp1SoDvU/jA7sGCCP3+u0pnVE37yyScT/IH+999/sqQGTl4S6pBUq1ZN3YoTqHrMuMKH58P3LLHRBmbDilBz39P63/jd4n3D7NO4Ap0Qs0kp0RH0FbLXceJplFDwHplgGIr0yCOPyO+LlaLp6iYRmcNFVJTMMtYZxLrELvRTaJjtp+3UT9OYBZ9Y/9sVgkO4iK8XiM8S/SwEX9BHbNCggTxRfeWVVxJMbMAFMbOkBF+yt3HepJVX+vTTT+X/AwUj24xZrOzbRB98BxAANgrlPgjZmcYyDYH4veNCU82aNeV5TP369eVFp9KlSyc6ugQjNIwQg/Al8QeljuCTTz6R//cVAnL4W7Dvqlq1qli6dKnaYj8J1f9OLIgYambxlZIlS8rgra/M4hTI6sY5rTs4T1+7dq2M6+A7604w4xQoBYbvIC5WJfYbMotTeFP/GxnYSJpEcLt69epqrTmzOIU/WfCXLl2KHbWhl1CcAqVk8b5gP2F1jWzjvhEXT4JVjtH43JgDKeprgCc21BSTRXgzZBiZvGY7dBxwEqrTHAj4cqFDrmeXySvwA3O3c7PzVVUwO7D4+5rNMnjeeOMNdcscJpXAichbb72VYFYqgsrGWkcYoeBuxmFfIfjy6quvyh0NOmnvvfee2mLOrDPr6bAiBKAR9EYHBRNLJBbMxkHaeGKKK9nGK7uewm8ZFyCMErrAhXkB8HyByJ44cOCAuhUDO3Z/LsgQUXhBtgxOKI37AuyTUMsvoREyFDq4gI2RQ3p2nGTMbtmXdoSTVWNJGKs/SwQCK1WqFC8wg/OOKVOmqFZ82G42AZcvZeC+/vprWTYSAZVA99eN+zNgADz6IHnELOs51PsgYxZ4IPbdOBecO3euy/kKRn8Y5/jQ2759u2lyny+/d+xrkPj1wAMPyHM7X6GuMM7F8Lfg9SOgisRAd5MjhhrevzNnzqiWKzuXP4FA1P/2JU4xfPhw+f/EyqTg/cycObNqxUDZELPR9v5AJjAuFuPC6scff2waeNfzJ06BcnZaHKRHjx6J9sHNYo0IYvsKk+Cb1a9PaJ+JGCYkVK7GV8ZjuVmSbqAYnzuS+xAen+kldCUUV6uwg/Z0iCeCch999JFquerdu7cMRAab8UPetGmTuhVauCrmjp0PLNgZmdWE9/fAYtbJT+jCC06Cxo8fLyePQAA4MWbfSyu/C7iYgaFVGCaN8jUTJkxQW9wzCz57OunF559/Lv7++2+5k27WrJla6x4CwsbPCFkV+/btUy3PoVY7JrMwk1DG/siRI+X/cfJqNZST0eMJIlH0wL4UJxjGORVwEQzDpf3J+qHAs2s/TYNgp1nwlPMgxBfoz/Lbb781ndQKEsqYwzmIGfQhvYEAArJAkQE3YsQItTZwjP1tBEmyZcumWhQtzEowIQMXmaWhFOjfOzJQ3ZWT9OX37m3ACee87777rryNOUR8HTmL0mydO3dWrTiYGA+lPu0470VCcYpAX/jzB0Zfm303/HnNSBgzC6YmFKdA/WzMsYcyHihTmhAcT4zn8oipmdXf9hWOm6hrjcA6At+Y1DUxZnGKhDLe9dq0aSOzzVGS8M0331Rr3UNA2BicxmeJ99FbQ4cOdVuNwl18AH8rEishEHEK47E8mHGKUD53sHkcAMeJoVZuA7PQIvhaq1YtWbQek9x5Wo4BcDXWbNKBl19+WbRr1061ggvDjPTMOhGhYDaURuNPjapAc1f/29+gvTE7GQHbhK7SIeiNnSIC255k+qL2q3GnPXbsWHXLP7gqjCFBCCbjs8PVfU/qJJsNH/Okc4bfJWaTRuYc6lB6eoEKV3uNzC5mJAR/a5MmTeRJI4bQGGXJkkXdcoVOLGqN4W/G8EWrGSdljaZJaoiiXZcuXeINdUyXLp08zjJYZH/GfprdAuBm/UacsBpHGFLgP0v0r9wxG0INCKDh4hj2CTjP0TO7sOEOglW40IZ/06tXr6D0MzDJuR77NtHJbB9khwtwxt87SgggucYqvvzekbU6c+ZMeW5kHP3rze8dcN6EC6CNGzf2KIjnDl6PO5gYz9N5DIIJyQPu2DlOYZb97e38WkbGGAVgtFNCwWAEgPFbQO1rT+aZQJzMWJbCqjgF+sL4+zH6HcFdBOY9GRVpzEoHT+IUKE87btw4WaJ19OjRam3izOIU3vYh5s+fL0uToUSTWZzFXZwCk5Vi34FExAoVKqi11jEey62eZNMdXEhBwqResJ47JBxeaNGiBS7xOJxfCseNGzfUWu9Mnz7d4TwhkI+jX8qXL++4fPmyulfwHTp0KN5r2rt3r9oaGs4vosO544n3urTl+PHj6p7249xBx3u9uXPnVlt9V7hwYZfHRNudX375Rb5/zh2z4+zZs2pt4hYsWOBwdohin8N5QHM4OzZqq/fwOb399tvysfC4eG+cHRm1NXHOg3Tsa9GWSZMmqa3mjhw54nAedOV9nQcwtdZzzzzzjMvzValSRW1J3LfffutIlSqVfN/wXn700Ucuj4Vl48aN6t6uXnvtNbm9devWao11rl+/7kiRIoXL6/j999/VViKKZNhn6n/7WHB8cHZm1T3I7jZs2BDv87t06ZLaGnrdunVzeX1YSpUqpbaS3vbt2+O9VydPnlRb/ffiiy/Ge3wsDz74oOPKlSvqXnEuXrwY27/s27ev47PPPnP5d88//7y6Z8Lu3LnjcJ5Uy39TsWJFx927d9WWwDL2jceMGaO2UDQpXbq0y/cAS9euXdXW0MF+GucF+te1du1atdV/H3zwgctja0uaNGlMz99u377tqFy5srxPkyZNHF9//bXLv8uePbu6Z+KGDx8u/83jjz9uum/xBl6L/nUYl+bNm6t72sOvv/5q+jqx4HzX11hRMDRu3Djea37yySfVVt9ly5bN5TETOnbMnz9f3idHjhyOq1evqrWJmzJlistzpE2b1nH69Gm11Xv//fefo1q1avKxcO7es2dPeSzz1Jw5c1xeDxac/ycEMbasWbPKftwPP/yg1noGv9+CBQu6PN+7776rtiZu3Lhx8u/EPgmxonr16rk8FhZ3cZ8yZcrI7b169VJrrHPq1Kl4r2P37t1qa2AZ+9d4b+zUv7aaVwHwffv2yS8M3pj27durtZ773//+ZxrQffnll7364QdKiRIlXF7XzJkz1ZbgwIECP7jVq1fLg5yxs2BcXn/9ddmB8Ca4GyxPPfVUvNfbqFEjtdV3gwcPdnnM4sWLqy2u8J7kypVLHoCXLFmi1nqud+/eLs/z7LPPOm7evKm2egZB7pEjRzruvfde+Rj33XefY+HChWqrd/Lnz+/yenr06KG2xLd+/Xp5UMH9+vfvr9Z6Z+fOnY6MGTO6PGdiwWKc6OH58J7juzt16lS5/sCBA47UqVO7PJbZ+7B161b5b1OmTOnXBQd31q1b5/IacCIcrJNTIgodXEQ0XvzCMmjQIHUPCgfYXxtPLletWqW2hh4uFOtfG5a2bduqrWSUL18+l/fK25PghHz44Ycuj40FyRCbNm1S94iDvh2C1bgPgiJw7do1R4ECBWL/LfYfiSXFIABRqVIlef9ixYrJk9lgQNBNOzfDgn4UkiAouiAohICv9j3Qlp9++kndI7S0gLO2IHBslYEDB7o8NhYEBRctWqTu4app06byPi+99JL8/ePYgtv6f79ixQp1b3OIW7zzzjvyvghgWhGo6tevn8trMC7YZ4YSEokQC0LQEOf0Zv0q/fLWW2/JwNqFCxfUI9gHkvKMr7dNmzZqq++MF8JxMdbM0aNHHQ888IB8D3/77Te11nOffPKJy/Mggczbc1p8nvjOpUuXTj7Gww8/LPvL3sJvCOfU+tczYsQItTU+PAeOxzhWjR8/Xq31Dr5X+v0djoE7duxQW80hqN+lSxd5f/zNWgLMli1bXI6hWMw+E+2CT/r06QNyfEcfSP8aHnvsMbUl8EaNGuXy3NhfRzKvAuDw5Zdfxr453gTXhgwZIr/o+jcXmeC4yoSDth0gqKh/fThAWg3ZsE888YTMzsXy6KOPOnLmzOm4//77XZ7b2wU7UDwGdujaY2MpVKiQDOYG0/nz500vdEyePFndw3cIbGsBZSwIKhuvUCHQieA3tn/++edqrfc6duwY+zxYcKHm2LFjaqs5dIjmzZvnaNCggSNTpkzy3yGg26pVK792lhg5of/9IKvMeKDD7whZjtoBwZ+/HX788UeXizD43u7Zs0dtdYULMVrmySOPPCIPTHrIQNEeB8ubb76ptsTA+6plMGEfEwjYB+lfg3aiS0SRa9euXbH7Yv2CABmFH2NgE5m6doGsQf1rw+LrRe9ogGCD/r2yIvigQZ9C+93jxBYj786dO6e2xsHozxo1asj7vfrqqy6j85BMoAUGsCA70GykKvpiy5Ytk3153A8ZYmbPFSjGUYJWZDFS+DEbVYHz7FCOrtYbPXq0y2tDxqlVcMFKf0EN2aCHDx9WW+PgHFIbzY6LVBj5oTl48KBLEA9BbXcjrXEhrUiRIvJ+efLkkYk+VkAmrjFhyLj4m2WeEJxHIgsd2ex4P7U4Bc7rELA0ez2eLjgXRgUBvF94bG0pWrSoY+jQoeoVBAc+L7PXmFjWsifwPdIHZvHeGRPocHEFwWZs9/VCEIK5zZo1i30eLDVr1kw0KRL7g1mzZjnq1q0rA7n4d3i9iHkgfuMrBLz1r8UsgIr3AX8vYlaIaQwbNkxt8Q3+Dn3gGsc+HNPN4Bit/WZxcfuff/5RW2IY30vjaIv9+/fL7y62jR07Vq21lnHkmS/Jxr5C3Er/3AiIRzKvA+Do6KE8gfYG1a5dW5bqMIMfJ4ZFaMMF9At2eH/88Ye6pz389ddfLq/RmyFQnkCHXP/4wVrcXX0MFLO/Ezs7qzJScFKiz06uXr26vGqG0hv169eXz4UdIgKe/po7d64MsmvPheA7dhIISCOrAtkF2EngwIHXoT9Zwn0xLA87TStgh6sPgiOIvHjxYnnAxonjQw89JNfjirIVB3HAe41OoPacGTJkcHTo0EH+3cisxxAgfbkUnECeOXNG/es46FTpS6HgAgn2I/jc0PFBBwHr8R56ewXbU8bsDpY+IIpsyMjECZz+d48FWZrelKEi+zBmyNgl2Gc2dBXHuWAGQsMNsvf17xeCLlbC+Yd2go/+EfogGPqMvhu2tWzZMvYi/3PPPWcaKERmmD5TEP0rZMyh/4N+FjL8tcA3go0ItAcyQGXGeCEBiUUUfXBeov8eYEFiil3gHFB/DnPPPfdYWiIDo1S18yCcqyCQi2AbknlQagKJOFiP7cisRAauEYJn+hHM2H907txZnvNgQaIckoG07cgA96f0hJnvvvtOBou158CC903bl+mD9lZDUFD/vMFaEEsKJrO/E99HfwLAesuXL3cJgiNusHTpUse0adPk34q+AT7jxMqZegLlULTvBhYkQyLBC1UMcKzDcQrBaQRTUTlAf4EF9/34448ti8/ok2Sx4HWgz4bfH4632kUUxBUSG2HhKVwAxnFZe05cZEEWPo7R+M0iqIykQW17nTp1TEt7YF+kDwLjeI5scXxuAwYMiN23eFNqxVvGShRr1qxRWwIL8VpjIq7ZBcRIkgT/cf6hXkNh/Pfff1/OeOvcMQvnQVZOcqFNNnH8+HE5C/uePXtkW1O4cGHRvXt38cYbb3g8KV8wYSKMAwcOqJYQzs6vfM1WwFuNSQkx67BzxycXZ+c79jYW5w9OTqJgXJw7SzmxjvNLGm/BxBhYbt68GbtobfxbTOxYqFAh9SqC45VXXhHOnYa8jYkQMAs+ZrC2CiY76NSpk/j555/l+6pXrlw5+R2zanIC50mR+N///iecHSk5yUlCnDt1+Vt46623xGuvvebzTODuOA9kchJZ54mjWhMHkzZh8hVM9OY8GKi1/sOs4yNHjhRDhgwRJ0+eVGvj4LtZpUoV0bp1a1G+fHm11tyECROE80AiJ5DQw3f/k08+EV988YX8zloNf4Nz5y5/F4DvJGbqdnZQZJuIIguOfy+++KKckFkPExKuXbvWq4m7yT7wuWJf7jyBkW30I9HftPKY54tly5aJihUrqlYMTD73119/qRYZof+KSbJxLNag/53QhGHeOnbsmJxc7LvvvhPXrl1Ta+Ng8ts+ffoI54mv23OSc+fOiX79+okZM2aIgwcPqrVxMGlm5cqVhfOkOyQTDubPn9/lXAsTWRUpUkS1KFq0b99e9q/1MGEezjvt4qmnnhJ//vmnagmxfPlySyeSQ18f538TJ06Ut40w4R1+px999JE87zBz48YN8dVXX4mpU6eKHTt2qLVx8O9wroP3OxCT4AGOafgbsD/MmjWrPKfu27evnLgPE3QGqv+Cvx3fl0OHDsXGJYyLr3EKfWxCv+A8GZMa5suXT72KwEPcABP8YdJjwPcC56c1a9aUbSug79m5c2exevVqtSYGjjMvvfSS6NGjh2WTDJ4/f15OIjlq1Chx+PBhtdYcjq943rffflset/B5WgnHScQLjJM5Ao639erVk++LJxN+eurMmTNi6NChMtaE47URvp/4bBGnSOw9x2sfNmxYvHgP4gVdu3aVrz0Qjhw5IrJnz65aMZNwYj+A31Wg4buqn/y1ZMmSLvvpSORzABzwg8NsqLNnz5aBSOzIjPDBoXNWrVo1Ubt2bfmm2lmrVq3kF1+DAw46z+QdHPCwEzx16pQMBOM7EAj79u2TM/ejo5M+fXp5UHnsscfUVuthZmQcMPfv3y87CugM3HPPPaJAgQLyhMNsJuFA2L17t+w4oiOEnTIuPCHYg518oKBjs23bNnlQw+eKgyb+7hIlSsiDmjfwHmLBzNc4Acb+IVOmTGqr9TCzet26dVVLiOrVq4t58+apFlFgoFOGk63r16+LMWPGyP0FBUf9+vXF9OnTVSsGLhJiv2NlgI2CD31JBDQ1U6ZMEQ0bNlSt0EDgCQERPZzU46SM3Hv33Xfl56fBCXyzZs1Uyzo4P9m4caNccPEE/aZSpUrJxdMAAE6XcKKIADMSIxC4Qd8Wfa/UqVOrewXXzp07YxOPAEk86J9S9KlUqZI8F9dbtGiRPAezi969e8s+kaZNmzZi4MCBqmUdnK/gd4rjPQJiKVKkEMWLFxfPPPOMV7/VzZs3iz/++EOeY2I/kTNnTvHyyy+H5AJ6jRo1ZAAcF/JCtb+JJDgmTJs2TX62eG8D1S/cvn27PF9HwigC7fj+5M6dW221Hi7S4nv/33//yb8R5x2IjzzxxBMyToHXEAxIIEXwH8dbJJ0hmfT5558PaED39u3b8nk3bNggzp49K4/RiFMg9oj+v6e0Yz2SLfF7Q3Jj1apV5fsYKLiAgYRVzXvvvScvygSD8eJpr169ZLA/kvkVANdDMFzrWOLLgi9drly5ZMcsnLIs8aNBh1jz7LPPxrt6R0ThBVe6MWpF88MPP8gr30SBhAstuEgMGL3x+uuvy9sUWMis+fzzz1UrBvohK1eulCN0KLzhN4XflgYB8VmzZqlWaBiPMYDXiZMmcs+YOf/qq6+KxYsXqxYlBtma+iQdJu1ELwR49KM0EfhCsoqdRjvh4gwyfRGgBiQs4SIOJQ4BfIwg10Y/EVHk0FdOAFzE0McjAwkXCbSR+bhYqI08iWSWBcAjCYYB6IdNI9s2mENziMg6yDJHhjou0gE63BjWaMcSTBQ5UAIMpZA0CNAhUEeBhSAkgpF6+K1jFAjf/8iA4Ak67FrZByRcYPho5syZZTsU9CcQgEwhBKOYqZe4YsWKyWxNQJYlMtci/eTLKvqSEsiyQ+mCYI1EJPvA547sZD27XkxCKYK5c+eqlpAlyawqBRGpcB6DCxnI4EVWKhFFDpSBQ5xCq6RRpkwZ8fvvv8vbgbZ161aXkmk4bzUmc0SiwBeWCUNt27ZVt2KMGzdO3SKicIMyCFrwGzAsncFvCiRkXaHGJAXXb7/9JocNGmHYNYPfkQNDaDFnhAblyPRlNIINQ22RKKGHsgMMfnvm008/VbdihjAHa9hvuEM5On2dTpR9YvA7OpkFS2rVqqVu2QvKnuiNHTtW3SJ3MMIepUUDVU6UiEJn/PjxLmWkUY45WDDHm14wnzuUGAA3gWHqyObRTJ48WZ5gEVH4waQYGtQbb2ThZKxEZnCRRT+xGwUehlajLIbxWI0aw4GatIZCB5+rfuJLTFQdKqgRaxxMadfgkx0h4wg1NjU4GdRKJJB7+r4N5n/BhIcUnYwBcAxj15eJspOyZcvKWtwajI7TJ6lQfCiHAJhziYgiBy5sYY4oTd68eYOWsIN55FAHX4PJfaOlTCQD4CaQXYQaohoEMvTDtYgoPKxatUpOiKFBbcxwmpOAwg/q/qL8CQUPTp6RcWu86PDCCy9wBFeEwn5cf2EDdWR//fVX1bIOhptjwk19eRMjY/ApXbp0svwAeQbBus8++0y1Yibx0tfCpPhQXkdf975BgwbyxJkiC0ZEoE4+Jm1P6KI6yojoIZARyInl/YVRWRrMGzZ16lTVIjNaANyuFzWIyDcLFy6UZd80mCQYF7SDYdKkSXJyVo0+9hnpGAB3A1dfMOGEZtiwYeoWEYUL/dCehx9+WHz44YeqRWQ9BGKbNWumWhQMt27dkjVFjRNpYagwLlwjuEaRCftzfd1bK/tp//77r5yAqGTJkrI/iFGBLVq0UFtdGQPguD8vtHoHI7P0w/vZ504YsuS10S6om46TZoosixYtEo888oicJPaNN94Q2bNnN53s9/r162Lz5s2qFQMjZOwMF6f1k99iNAMyISk+XARBebfHH3+cJVCIIow+ToHft3EOo0DBqMVRo0aplhAvvviinAMxWjAA7gZqBPfp00e1Yoa4zp8/X7WIyO6Q+Y3MPU3Xrl1Zk5UCCrVsjx07ploUDAiCrlixQrViYDJETP5l5ww48h8mv+zevbtqCXnBQ8uU8wdq+D///PNiw4YNak0MnCwYMy2Rvah/TvQdjfPIUOKQ8dSzZ0/VEuLHH38UK1euVC3Sw4XWr776SrWEnPcgd+7cqkWRYPny5TLoffToUbUmZq6D5s2bxyvzhX0SLgRrcuXKFRZzXujPsTGHwsSJE1WL9JAdj34ls7+JIgtGqWOEjwYZ2MHK/kbpE20iefRb9aNyogED4AmoXLmy7IBoOnXqxCvURGECwUitjiiyTZj9TYH0008/yeFkFDx9+/aNd9KcMmVKebGa5QCiAzIdn332WdUSon379uqW71CP8dChQ6rlatu2bepWDHzXLl++rFoxc8gULFhQtcgbderUcckKxWdprK1OQvTq1UucOXNG3sYIiP79+8vbFDk+//xzl6C2Bp+78SK7sXwILsBhVIDdPfnkk+KDDz5QLSEvZl69elW1CJD9/cUXX8gAFeZKIKLIgL6NfgLwGjVqiLp166pWYGE/i5impnXr1qJMmTKqFR0YAE8EJlbKli2bvI0h1pydnsj+UFMLGTSQMWNGMWXKFFnbnygQEAB7//335W1k41HgYXSH2eSWOEbrA6KUOFzYRyYzTrbDDfbryGTBfh6QUYP9vz9mzpypbsVnDG5jknQNgk4ITpJvEOTBsfr++++X7T///DPBzyIa7d27N3byS3z3v/7669jvPkUGZH2vWbNGtVzhs0YpFA3qt+pHOubJk0c0adJEtewPIxlQXgoQ2NePbCAhpk+fLvbt2yfq168vChcurNYSUbjDsXvjxo3y9kMPPRTU+YoGDBggjhw5Im8XKlRIfPnll/J2NGFEKBH33Xef/JKiYw64Kq8vGE9E9oKsmXbt2qlWTG1BfZ1YIqt17NhRTmKC2m2YjJECa/369aJhw4bxskMxkR5OFMk7yKJOmzZt2AYbUSd39OjRqhXze/RntB5KTJhBAEKfJYMTCP3wVWQsFylSRLXIF5irA/WtNV26dBE3b95ULcJ3THs/kD2GUj0UWdztfwC18vXZ3XPmzIkdgYLzVPx2UBoqXOC4880338iRW4DRDJjglWKyv1GWAO+RvlwMEYU3xBH1CTxI3NEu/Aca+q3aqDHsd5FAEk7HDKswAO6BChUqiDZt2sjbuELdqlUreZuI7GfgwIFi165d8jaGVDMgRoG0evVqWRv4wQcf5MRtQYALDVWrVpUZy3r16tWLqhnMrYI+zezZs0WGDBlcSr6FGwwP1yYP2r59u1/fBfyWjXLkyCEDNfr6jAi6a2W2MEEZLsCQ/6pVqxY7omb//v0uQ3Wj2ZIlS8S8efPkbVxoQWkEijwPPPBAbNKVHi526DP1sO9BuSYNyomg3F+4KV68eOzImUuXLommTZvK29EOpWww4gPxB33WPxGFNyTTavM7oDzrq6++Km8HA2KYWqkp7HeLFi0qb0cdB3nkxo0bDudBGulmcpkxY4baQkR2sWbNGkfy5MnlbzRr1qyOs2fPqi1E1nN2Ihz58uWT37fZs2fLdXPmzIk9TuiXWbNmye3kuwsXLjgKFSoU770tW7as4/r16+pe5I133nlHvodNmzZVa8IXvh+PPvqo/HuSJk3qWLlypdrincmTJ8d+t1588UXHwIEDHdeuXVNbYyxZskQ+B+6DY83u3bvVFrLClStXHAUKFJDvb5IkSRyLFy9WW6LT4cOHHffff798P1KlSuXYsmWL2kKRqF69evKzTpkypeOtt96S/QqjNm3ayPtgwX7KuI8KJ3fv3nVUqFAh9u8ZNmyY2hKdpk2bJt8HHM8uX76s1hJRuENfBn0a/L7z588v+zrBMmrUqNh9bLly5Rx37txRW6IPM8A9hGECyP5BlhTgSjsyU4jIHjA5ELIAMWwQw3lQOy9TpkxqK5H1kPGJWbRr1qwpatWqpdZSIOB3jREdxkkIc+fOLScijMYhfP7asGGDLPEGGFof7tA/w34f/TVkRyIj/PTp02qr51Bep3Tp0vL2wYMHhfMkJXZCOme/WWbhYrIiPAeyxTHfRL58+eR2soZWGiFNmjTyPUeZHuPkf9EC5XzwfdO+y0OGDGE94AiHTO/06dPLcjcYLo/SQNocDcjewwiXQYMGyXa5cuXEggULROrUqWU7HCHjHcciZL8Dyhj+9ddf8na0wQhWjIDJnDmzWLp0qUiXLp3aQkTh7PDhw7HlG++55x4xY8YM2dcJBuxPP/nkE3kbNcexv43qudEQBSfPrV692uH8ssqrJ6VKlXI4OydqCxGFCrJHXnvtNfm7RAb4vHnz1BaiwFi3bp0jWbJkjvvuu89x/PhxtZYZ4IHy4YcfxntP7733XseOHTvUPcgbyJgvWbKkfB8fe+wxtTYyzJ8/P3YkUJUqVdRa7yDrrnHjxrHfNfzWH3/8cZntra174YUXHDt37lT/ggJh6dKlMgsW7zcyRKMxY6ljx46x37nevXurtRTp9u7dK88ztc8+Xbp0cgRUxowZZRv7pPfff99x6dIl9S/C399//+3IlCmT/PtwXIrG7OdNmzY5smXL5vj999/VGiIKd7du3XI888wzct+WOnVqx4oVK9SWwLt48aIjb9688rkzZ87s2LZtm9oSvZgB7qVnn302NtsME3E5T5DklRwiCh1MFLN48WJ5NXPy5MmievXqaguR9ZCV9d5778nMvMGDB5vWDCbr4D3W1zqFFClSyAnAChQooNaQN1B3UJuBHtm1kQQ1pLXslkWLFokOHTqoLZ5D1h0mlPv999/lv8dM+RhlhMfEiI/vv/9erFy5Ujz22GPqX1AgvPzyy3JyVkz85zxhFB9//LHaEh3wPevXr5+8je8hJgWl6JAnTx6xZs0aOeIE/Q1k7Z04cUL+H6OQkdE3duxYmUkYKVDbHlnPyH5HJjRGPmiZ79ECNdGRKaqfcJmIwhtGtfz222/y3OW7774T5cuXV1sCCyMV0cfHfAIYJYn9a8GCBdXWKBYTBydvOTulsRlGLVq0UGuJKNhGjhwpf4dYxowZo9YSBU63bt3k9+3VV19Va+IwA9xaONZqtZb1y/jx49U9yFvDhw+PfR+RRXjkyBG1JbLgO6LVWvziiy/UWgpH33zzTex+oHPnzmptZFu+fLms942/uXnz5motUeRbtWpV7GjrunXrRnWtWiIKbxi5hX0Z+jAzZ85Ua4OjSZMm8rnTpEkj96sUgxngPqpataqYNWuWzBIaOXKkcHbI1RYiChZk+bVs2VJeUUWGKLJiiAJpy5Ytom/fvvJKOrKvKHA2b94s6tWrJzMY9Nq3by9HX5H3kNWMWeA1lSpVElmzZlWtyILvyLhx42RNcGTOjhgxQm2hcIP5PXC8R53jPn36xGZFR6q1a9fKkQw3btwQrVu35neXospzzz0nFi5cKO677z7x7bffyhFLREThZujQoaJr165yPhPMUYO5jIIFNb/R58d8AhgNif0qxWAA3A81atSQZVAwBBsTlqAEAxEFBwKRmLgtW7ZsYtWqVQx+U8BhKC6+c5gQr3///iJ79uxqC1ntyJEj4vXXX5cTgOmh/AQuQJD3vvrqK9G0aVOXCwqRVv7EqEmTJuLXX3+Vv1WUz9i0aZPaQuEGk5oiMPzoo4+Kjh07itWrV6stkQWTHFauXFneRvAPJaAwSSBRNKlQoYLcXz/55JPif//7nyxvSEQULhCbwAXsvHnzij/++EOWdAoWJAxgwuynnnpK7kexP6U4SZAGrm6Tjy5fviwmTJggO+f333+/WktEgXT9+nWZ3YfMsCxZsqi1RIGDwGunTp1k7bbly5ebBiXmzp0rg7RGGDFUu3Zt1aKEIOiN+TZQ41QPHTkEM5FJQZ67du2aaNu2rRg1apRaEyNTpkzi2LFjck6TSHf69Gkxbdo0eQEAI/cofJ0/f14Gw3AxMmPGjGptZEHWFrK1WGOeoh1GQeD3gJHXOXLkUGuJiOzt0qVLYuLEiTLRJNh9laNHj8r5I5AEEg19fG8xAE5ERJSInTt3ysmJMAne1q1bRe7cudUWVwyA+wfZyZjEFsOf9XLmzCnWrVsnJwAjz+EiAsrI7NixQ62J06JFC5ZWICIiIiKiqMASKERERAlAUBb1hDHq4IsvvnAb/Cb/ffrpp/GC3+nTp5f16xj89hxyGwYMGCBKly5tGvyGSC9/QkREREREpGEAnIiIKAHDhw+XtWfLli0r6whTYKBEByaM0UuWLJmYOXOmKFy4sFpDCblz544cbYByMZgs9ObNm2qLq0KFCsnaqkRERERERNGAAXAiIiI3/v33X9GlSxdZQw1zPaAEClnvhx9+ML24MGzYMPHKK6+oFrmDifNQziRfvnzizTffFBs3blRbzKF+MhERERERUbTgmTwREZEbmEAEkzJ2795dFChQQK0lK6GmOoK2yF7WQ0C8efPmqkVmTp48Kbp16yZrpH/00Ufygk1ikidPLurXr69aREREREREkY8BcCIiIhPjxo0TK1asECVKlBDt2rVTa8lKx48fF1WqVJGzpeth3eDBg1WL9Pbs2SOGDBkiKlasKHLkyCF69+4tzpw5o7Ym7tVXXxUPPPCAahEREREREUU+BsCJiIgMDh8+LIPeKVKkEBMnTpRZs2Sta9euiapVq4qDBw+qNTGKFSsmZsyYwXIzTseOHRO//PKLGDt2rHjvvffkBKz58+cXn3zyiVi2bJnbGt8JYfkTIiIiIiKKNkkcTuo2EREROSEDefHixbK8RM+ePdXaxM2dO1fUrFlTteJgYsLatWurFqHrgfdjzpw5ak2MrFmzinXr1ons2bOrNZENtbvPnTsnS5ns3r1b7Nq1y+X/Fy9eVPe0RpYsWcSRI0fkhR0iIiIiIqJowQA4ERGRzrRp00SDBg1EwYIFxaZNm0TKlCnVlsQxAO6ZDh06iP79+6tWnGrVqomiRYuqVvhBlwq1zI3LhQsXxNmzZ+WCgLf2/xs3bqh/GRytW7dmaRkiIiIiIoo6DIATEREpJ06cEE888YQMWK5du1aUKlVKbfEMA+CJGz9+vGjatKlqUTD9/fffokiRIqpFREREREQUHVhgk4iISGnZsqXMzkWmrLfBb0rc8uXLRfPmzVWLggmTuTL4TURERERE0YgBcCIiIifUo/7uu+9Evnz5RK9evdRassqOHTtErVq1xK1bt9QaCqZ3331X3SIiIiIiIoouDIATEVHUQ9Z3ixYtRJIkSWSJjjRp0qgtZIVTp07JiUXPnz+v1lAwoY59vXr1VIuIiIiIiCi6MABORERRDyVPUP+7WbNmoly5cmotWQFTjSD4un//frWGgq1q1aoic+bMqkVERERERBRdGAAnIqKo9sMPP4ipU6eKRx55RPTr10+tJatgMtFly5apFoUCy58QEREREVE0S+JAahYREVEUunjxoihUqJA4dOiQ+PHHH0WlSpXUFt/MnTtX1KxZU7XizJo1S9SuXVu1ogtqfv/888/iwIEDag0FE8r6vP/++yJZsmRqDRERERERUXRhAJyIiKLWhx9+KMaOHSsaNWokJk6cqNb6jgFwIiIiIiIiInthCRQiIopKK1euFOPGjRMPP/yw+Oqrr9RaIiIiIiIiIookzAAnIqKo9Nhjj4ndu3eLWrVqiRdffFGt9c9ff/0lM8qNmjZtKkqUKKFa8VWpUkVkz55dtYiIiIiIiIjIKgyAExFRVEqTJo24fv26aoXW0qVLxcsvv6xaRERERERERGQVlkAhIiIiIiIiIiIioojEDHAiIopKFy9eFFYfAsuVKye2bNmiWnEmT54sqlevrlrxpUuXTiRPnly1iIiIiIiIiMgqDIATERFZpHjx4rIOuNGsWbNE7dq1VYuIiIiIiIiIgoUlUIiIiIiIiIiIiIgoIjEATkREREREREREREQRiQFwIiIiIiIiIiIiIopIDIATERERERERERERUURiAJyIiIiIiIiIiIiIIhID4ERERBZxOBzqFhERERERERHZAQPgREREFjly5Ii65erw4cPqFhEREREREREFEwPgREREFpg/f744ffq0armaNWuWuHjxomoRERERERERUbAkcXC8NhERkUf27t0r9u3bJ0ud3L59W1y4cEHs3r1bbNu2TcybNy/BEii5cuUSr776qsifP7+8nSJFCpEsWTK57aWXXoq9TURERERERETWYQCciIjIQ126dBF9+vRRLetcvnxZpEuXTrWIiIiIiIiIyCosgUJEROSHVKlSibRp03q8JE3KQy8RERERERFRsDADnIiIyEMnTpyQtbzvuecembGNxZfSJdeuXRNXrlyJXQoUKMDAOBEREREREVEAMABORERERH65c/A70bzGR2LOicKi89Il4tNCydUWIiIiIiKi0GK6GRERERH57sp68WW9pmL8puPizPHtYsfhO2oDERERERFR6DEATkRERES+uXtMzP34bdFz7XlxV60SHFtIREREREQ2wgA4EREREfngutgyuL5oOnmvuMWgNxERERER2RQD4ERERETkpbvi5JI2om7X1SJN3jwiPXuURERERERkU5wEk4iIiMhiDRs2FOvXrxf33HOPyJQpk8iYMaNIkyaNSJo0JlJ869YtcefOHXH79m1x48YNcfnyZXHp0iVx9epV8f7774tPPvlE3i8hZ8+eFTVr1hQnTpyQj40lbdq0sbeTJ08uH+/KlSvy8fF/dPtmzpwpChQooB7FNzd3jBY1yn8kVufsJL5ve1S8/dZEcQw1UJJlE00W7hP/eyVVzB2JiIiIiIhCjAFwIiIiIgshsJ0hQwYZfPZF69atxeDBg1XLvS1btoiiRYuqlmdSpUolfv31V1G6dGm1xgfnVoq2FaqIoadeFmN/nSXq7fxA5K7KADgREREREdkTB6wSERERWShZsmQyK3vnzp3i77//FitXrpSZ2kmSJFH3iO+FF14Q8+fPF//884/46quv1NqEFSlSRBw4cEBMmTJFZM6cWa11lTNnTtGuXTuxZMkSsXnzZnHkyBH/gt939ovJjRuIobvzio+njBfv5kmuNhAREREREdkTM8CJiIiIgqBDhw6if//+qhWnatWq4vvvv1ct3yBrfOjQoaolRNmyZcWAAQPE008/nWDg3TuXxNrPXhSV+xwQZYf8Iha0fEKkdK69vrgxM8CJiIiIiMi2mAFOREREFATIxEZNcKM//vhD1uf21fXr18VPP/0kb6Pud8+ePcWqVatkENy64PddcWhmM/F23y0ia5OJYkrzmOA3ERERERGR3TEATkRERBQE999/v2jZsqVqxTl58qQYPny4ankHA/maNWsmduzYIbJlyybWrFkjunXrJsuwWOnqn33F2x9+Ky4801N8O6SKeJA9SCIiIiIiChMsgUJERERh7fTp0+K3334TGzduFJs2bRLbt28Xly5dEjdv3pQB4sQkTZpUlgqZOXOmnLwykM6ePSty5colX5/efffdJ/bv3y8yZsyo1iTu7t27okmTJmLSpEkiX7584ueffxaPPPKI2mqdu8fni/fLvSm+vlNXTF81SdTO5hr9ZgkUIiIiIiKyM+bvEBERUVj65ZdfRN26dWXmc/Xq1UWvXr3E4sWLxb///iuD4hcvXpSB5sSWCxcuiKVLl4r169erRw4cBLpbtWqlWnEQGPd08ku4ffu2qF+/vgx+Fy9eXGZ+ByL4LW5sFcMaNBWTT5QQnaePjBf8JiIiIiIisjtmgBMREVFYQbY3yn5s3bpVrXH18MMPi4ceekikTJnSoxrYWgb4l19+KVKkSKHWBs758+dlFjgC73rIPkcWeObMmdUac7du3ZKB/7lz54rnnntOLFy40KvMcY/dPSWWti4vaoy+IKpMXCW+bfCoMCuswgxwIiIiIiKyMwbAiYiIKCxcvnxZdOrUSYwcOdKltMmjjz4qGjRoIMqXLy8KFy6caADZDnr06CE+//xz1YrTvn170a9fP9WK78aNG6JWrVpi0aJFomLFiuL7778XadKkUVutdFvsGltDvNBipcjaZrFY3u95ca/aYsQAOBERERER2RkD4ERERGR7Bw4ckAHfvXv3qjVCVKhQQXTv3l1mQXuS6W0nKM+CLPBz586pNTHSpk0rs8AffPBBtSYOgt81atQQP/zwg6hcubKYN2+eSJ06tdpqrfO/dBAvVhkkjpYfKX6Z94F4LLnaYIIBcCIiIiIisjMWciQiIiJb27NnjyhXrlxs8Bs1vzFh5fLly+X6cAt+A8qdtGnTRrXiXL16VfTp00e14ly/fl3WOUfw+9VXXxXz588PWPD7zr9TRdMGX4ntuZqJSRObJhj8JiIiIiIisjsGwImIiMi2tOD3oUOHZLtUqVJi06ZNok6dOrIdzjAZplm5lrFjx4rDhw+rVlzwGxN1vvbaa7L2d6pUAcqwvvy76PlWSzHv2vOiz4yBonIWdhWJiIiIiCi8sQQKERERxYMJJnfs2CFu374tJ5UsW7ZsokHXf//9V2zYsEFO0oi63CVKlPArSxmPg8kpN27cKNtVqlSRmd8oExIpUO+7Y8eOqhXn/fffl4Hwa9euiWrVqomff/5ZBr/nzJkTuOD33ZNiftOnRZ3JZ8VTbUeLHpWyCE9y62/9OVi83XmxOIsSKEnvF6/3nSpaldBNJpokjchevIx4LBOD6UREREREFHwMgBMREZGEGtMDBgwQo0aNEseOHVNrY2CiRQRi+/fvL3LkyKHWxlizZo345JNPxJ9//qnWxEiRIoWcnBITPmbPnl2t9Vznzp3Fl19+KW8XK1ZMrF27NkATPobOlStXRO7cucXJkyfVmhh47zZv3ixat24tli1bFvjgN9xeLzoVe0b0/ee2WmGRZI+Klst2iOEvsC44EREREREFHwPgREREJMtrtGzZUuzbt08ULFhQZiCXKVNGoJuAbX379pWlONKlSyemT58ug+GADGYEqlHKA/8GWdrI0F6/fr0YP368WLdunciSJYvYtm2beOCBB+S/8QQyyfH8d+/eFffdd58MriOrPBINGjRItG3bVrXi4H1ETfCgBL/hziGxZPBIsfLEHbXCE3fFwWX/E7P/uiRkhzJJelGsdlPxUk5dtnfS+8Qz77cX1fMkUyuIiIiIiIiChwFwIiKiKPf999+LN954Q5YrmTBhgqhbt67aEmfBggWxQW/cb8WKFbJMygcffCAef/xxOTnjI488IrcDypYg+xtlVOCtt94S33zzjbztiZo1a8pa1zBmzBj5PJEKZU7y5MkTL+seXnnlFTFv3rzAB799dkMsaZJbvD7hqEAFFJEsm2iycJ/43yvM9iYiIiIiIntgMUYiIqIohkzrevXqiaxZs4rffvvNNPgNVatWlUFaQCZ4o0aN5CSOGTJkkMFwffD74sWLMhNcC36DVsfbE6glPn/+fHkbz9m4cWN5O1KhrItZHXBA1rx9g99ERERERET2xwA4ERFRlDp06JAMVKP29+zZs2Wd7YQULlxY3RJi165dMhDetWtX8dBDD6m1MWbMmCGOHz+uWjFQxsRTI0aMkKVPoEuXLiJ58uTydiRDhnu2bNlUK860adPEnj17VMuOHLJMTiznbY4tJCIiIiIiO2EAnIiIKEp1795dTr6I+tOot52Yc+fOqVsxUNsbWeBGSZIkUbfifPjhh+pW4lBOBRD4rlGjhrwd6TAZZsaMGVUrzp07d+QkorZ146DYse98TP1vcJwX+3f+J26oJhERERERUaixBjgREVEUOnDggMiXL5/M3sbElylTplRb3MuRI4c4fPiwaglZBmXixImqFefmzZuifv36Mqv83nvvlZNktmvXTm1NGMqn4N+ge/LCCy+IlStXqi2R6+zZs+Kll14SmzdvFsmSJZNBb72kSZOKf/75RxQoUECtCZW74uDUD8U7Y7eLm3fviFvXL4gTB/aJQ+duxgXAIUlKkSlHHpHrwYwidYpkImnKIqLF9BHirazMuyAiIiIiouDjmQgREVEUGjt2rLh9+7Z45513PAp+X7p0SRw9elS1YlSqVEndcoXHmzVrlrhw4YLMMPc0+A2oSa5dm69YsaL8fyRDVr0W/G7atKkYMmSI2hIH5WDskQXuENeO/CPW/7lZbN2xS/x75Jy4nTaLyJ7zEZHr0dyyXnvuXI+InNmziLS3z4kj/+4S27dsEhvW/SOOXme+BRERERERhQYzwImIiKIQ6myPGTNGLFmyROTMmVOtdQ/3e+2111QrBup8P/jgg6pljaFDh4rWrVvL23iNxucMBGRYI7vdrHRLIJ0+fVq8/PLLYtOmTaJ58+by771165bMzD948KC6Vwy8xq1bt4onnnhCrSEiIiIiIiJPMABOREREiUIW98CBA1VLyEAsynJYrXfv3qJbt26qFTzZs2cX69atE1mzZlVrAuvYsWMy83v79u3i448/loF/zfjx42U2uFHt2rVlZj0RERERERF5jiVQiIiIKFHGWtzly5dXt6xlrH8dLKhtjlrowYDs7ueee04Gv9u0aeMS/IZ3331X5M6dW7XifPfddzILnIiIiIiIiDzHDHAiIiJKEGp5Z86c2SU4jWBszZo1Vcs6/fr1Ex07dpS3K1euLB555BF5O5BQXuTpp58WDRo0UGsCB8FvTO7577//yr/zyy+/VFtcTZkyRQbCjd544w0xZ84c1SIiIiIiIqLEMABORERECVq8eLGoUqWKajk7D0mSiFOnTsmguNWmT58u6tevL29jos73339f3o4E+uA3yrz07NlTbYkPFxsKFiwodu3apdbEwHuPmuHFihVTa4iIiIiIiCghLIFCRERECfrll1/UrRhFihQJSPAbnnrqKXVLiA0bNqhb4e+///4Tzz//vAx+I/CdUPAbkiVLJj777DPVioO8he7du6sWERERERERJYYBcCIiIkrQr7/+qm7FCFT9b8iXL5/IlCmTvI3M80gYqHbgwAGZ+Y3/o+SJp5N81q1bV2aBGy1YsEBs3LhRtYiIiIiIiCghDIATERGRW5cuXZIlN/SQyeyJmzdvigEDBogtW7aoNYlDiQ/U44Zjx46FfaAXGd9a8HvgwIGx9c09gdrkn3/+uWq5YhY4ERERERGRZxgAJyIiIrfWrFnjMvklFC1aVN1KGOp5t2/fXnz99ddqjWcaNWqkbgkxbNgwdSv8aMFvlD8ZMmSIaNOmjdriOUw0avZ+Izt+/fr1qkVERERERETuMABOREQUhXbu3CmaNWsmqlevLubPn6/Wxmcsf5IuXTqRK1cu1UrYtGnT5P/xHN6oUaNG7HMgiL59+3Z5O5z89ddfMlP+0KFDYuTIkaJVq1Zqi3eQEd+jRw/VcsUscCIiIiIiosQxAE5ERBRlEJwtXbq0GDNmjPj+++9llvGyZcvUVlc///yzuhXjiSeekEHZxPzwww9ixYoVoly5cuLZZ59Vaz2DCSA/+ugjefvu3buibdu2YVUL/H//+58s46IFv5s3b662+KZatWriySefVK04S5cuFb///rtqERERERERkRkGwImIiKIM6kpfvHhRtWKCzAiKG/3222/x6n/nz59f3XIPdcM//PBDWcPaXfZyYhA0RrAdEEzH5JF2d/XqVdGwYUPx/vvvi+vXr8u/AVn2VujZs6e65YpZ4ERERERERAljAJyIiCjKbNiwQd2KgYzu119/XbVioO53u3bt5O2UKVPK/8OZM2fULXM3btyQNbwPHjwo+vbtK2tg+yJ16tSy/In23N26dRNLliyRt+1o165dMqt+6tSpao0QvXv3Vrf898orr4gSJUqoVhxk6KNOOxEREREREZljAJyIiCjKPPjgg+pWDGQXP/bYY6oVA5nLKK/xxhtviD59+qi1QqxcuVKcOHFCtVydO3dOVKpUScyZM0c0adIkNoDuq2LFiokvvvhC3kaWOmqDa3XF7QBZ9FOmTBGVK1cWhQoVEtu2bVNbYhjrp/sK2eT4DFC33Qze6x9//FG1iIiIiIiISC+JI5yKahIREZHfUDsaGcWAkh1Dhw4V9957r2wjyNqxY0dZGxy1u3/66SeZjY2yHuPHj5f3eeqpp8TXX38tChQoINunT58W48aNE6NGjRJHjhwRDRo0EBMmTBApUqSQ2/3Vvn17MWDAANWKyQbHYtXjewPv1aRJk8SpU6fEyZMnxe3bt9UWc3nz5hUtWrQQrVu3Vms8N2LECPme7t27V9y6dUutdS9r1qwiffr08vPCZ4d/T0REREREFO0YACciIopCEydOlIFllDRJkyaNDNReuXJF/PfffzLbGvWr+/XrJ9KlSyfvj+4C2ljOnz8v1+HfACZ7ROmTxx9/XAZdK1SoINdbCbXEUbtcg4z14cOHi4oVK6o1wYHJLf/44w/VioFa51owHoFqvH96jRs3jr144I3nn39erFq1SrVcJU+eXE4WCihXYwzEY9JMY6kbIiIiIiKiaMQAOBERUZQ6e/asWLx4sQyyomY3gqqoY12rVq3YCSiNEPyeO3euWLt2rfw3CPzivih9gnrfgczKRhD5008/lZNsahCQfuedd8Sbb74Zm8UeSMh2R/Y3LgxoCzKu9VCyBO8TXicuDOD9QZDcW3iMo0ePujwXaqJrgW89BMAvXLgg/821a9dEnjx55IUNIiIiIiKiaMcAOBEREYWNw4cPy/rkixYtUmtipEqVShQtWlQUKVJELqhzjnWY4DMxCE6XLFlSPPzww2oNERERERERRQoGwImIiCjsLFy4UJZb+fnnn2V5Fn8hc33r1q3xJgMlIiIiIiKi8MYAOBEREYWt/fv3y9IoK1asEFu2bJHlP3yBTPFNmzaJYsWKqTVEREREREQUCRgAJyIiooiAySB37Nghtm/fLi5fvizrb3vSzUEJFNQ+L168uFpDREREREREkUGI/wPD2YFi3gax7AAAAABJRU5ErkJggg==;" vertex="1" parent="1">
          <mxGeometry x="314" y="640" width="292" height="43.24" as="geometry" />
        </mxCell>
        <mxCell id="MXc2tF7lGj1LIrIw39Sy-18" style="edgeStyle=orthogonalEdgeStyle;rounded=0;orthogonalLoop=1;jettySize=auto;html=1;exitX=0.5;exitY=1;exitDx=0;exitDy=0;entryX=0.5;entryY=0;entryDx=0;entryDy=0;" edge="1" parent="1" source="MXc2tF7lGj1LIrIw39Sy-16" target="MXc2tF7lGj1LIrIw39Sy-5">
          <mxGeometry relative="1" as="geometry" />
        </mxCell>
        <mxCell id="MXc2tF7lGj1LIrIw39Sy-16" value="Loading Dataset&lt;br style=&quot;border-color: var(--border-color);&quot;&gt;Data initialization" style="shape=parallelogram;perimeter=parallelogramPerimeter;whiteSpace=wrap;html=1;fixedSize=1;" vertex="1" parent="1">
          <mxGeometry x="380" y="290" width="160" height="60" as="geometry" />
        </mxCell>
        <mxCell id="MXc2tF7lGj1LIrIw39Sy-22" style="edgeStyle=orthogonalEdgeStyle;rounded=0;orthogonalLoop=1;jettySize=auto;html=1;exitX=0.5;exitY=1;exitDx=0;exitDy=0;entryX=0.5;entryY=0;entryDx=0;entryDy=0;" edge="1" parent="1" source="MXc2tF7lGj1LIrIw39Sy-19">
          <mxGeometry relative="1" as="geometry">
            <mxPoint x="460" y="830" as="targetPoint" />
          </mxGeometry>
        </mxCell>
        <mxCell id="MXc2tF7lGj1LIrIw39Sy-19" value="Print MSE" style="shape=parallelogram;perimeter=parallelogramPerimeter;whiteSpace=wrap;html=1;fixedSize=1;" vertex="1" parent="1">
          <mxGeometry x="380" y="750" width="160" height="60" as="geometry" />
        </mxCell>
        <mxCell id="MXc2tF7lGj1LIrIw39Sy-21" value="End" style="ellipse;whiteSpace=wrap;html=1;aspect=fixed;" vertex="1" parent="1">
          <mxGeometry x="440" y="820" width="40" height="40" as="geometry" />
        </mxCell>
      </root>
    </mxGraphModel>
  </diagram>
</mxfile>
